/* XPM */
static char *image[] = {
"48 48 238 2",
"   c None",
"00 c #384672",
"10 c #bbceff",
"20 c #c0d5ff",
"30 c #c8dfff",
"40 c #4c5f93",
"50 c #b5c9ff",
"60 c #bfd5ff",
"70 c #9aafe6",
"80 c #c0d6ff",
"90 c #7f92c8",
":0 c #9cb0e3",
";0 c #c8deff",
"A0 c #9cb0e7",
"B0 c #303f6e",
"C0 c #a0b4e8",
"D0 c #90a4dc",
"E0 c #9bafe6",
"F0 c #bdd1ff",
"G0 c #b67b28",
"H0 c #c49237",
"I0 c #c39037",
"J0 c #f0e690",
"K0 c #c59232",
"L0 c #ce9f3a",
"M0 c #eedf7e",
"N0 c #ffffae",
"O0 c #d9b451",
"P0 c #c89234",
"Q0 c #cb9838",
"R0 c #f4e889",
"S0 c #c49235",
"T0 c #ffffaf",
"U0 c #c7922d",
"V0 c #e6ce6f",
"W0 c #f2e68b",
"X0 c #c49336",
"Y0 c #ffffb7",
"Z0 c #cc9b36",
"a0 c #f4ea8b",
"b0 c #b97b1e",
"c0 c #cc9b3d",
"d0 c #bd7e17",
"e0 c #f6ed8e",
"f0 c #f0e790",
"g0 c #efe07f",
"h0 c #f4e989",
"i0 c #fafbad",
"j0 c #b7cbff",
"k0 c #fafba7",
"l0 c #fafca7",
"m0 c #aac5ff",
"n0 c #a5c2ff",
"o0 c #a7c5ff",
"p0 c #a8c6ff",
"q0 c #a8c5ff",
"r0 c #f9fba7",
"s0 c #96bcff",
"t0 c #7691cd",
"u0 c #6b86c2",
"v0 c #6d88c4",
"w0 c #7f9bda",
"x0 c #4c5a8b",
"y0 c #6273a7",
"z0 c #6a7aae",
"01 c #7895d3",
"11 c #5f70a3",
"21 c #a9bef6",
"31 c #b6cbfe",
"41 c #7996d4",
"51 c #6172a5",
"61 c #abc1f9",
"71 c #bed3ff",
"81 c #f8fba7",
"91 c #9cc1ff",
":1 c #7794d1",
";1 c #6271a3",
"A1 c #9eb1e7",
"B1 c #7284b6",
"C1 c #9bc0ff",
"D1 c #80a0e1",
"E1 c #738ac3",
"F1 c #96b0ec",
"G1 c #6b83be",
"H1 c #95bbff",
"I1 c #92baff",
"J1 c #93bcff",
"K1 c #90b9ff",
"L1 c #94bcff",
"M1 c #9ec1ff",
"N1 c #98bcff",
"O1 c #ffffa7",
"P1 c #91a4da",
"Q1 c #8eb0f4",
"R1 c #fff77a",
"S1 c #fff878",
"T1 c #fff575",
"U1 c #fff477",
"V1 c #fff97a",
"W1 c #fff87a",
"X1 c #fff579",
"Y1 c #fff479",
"Z1 c #fff581",
"a1 c #ffe641",
"b1 c #fae14a",
"c1 c #e8c84b",
"d1 c #e4be3d",
"e1 c #e4c03f",
"f1 c #e3be3f",
"g1 c #e9c53d",
"h1 c #ffe638",
"i1 c #f1cc2a",
"j1 c #e5bf3d",
"k1 c #f8e765",
"l1 c #ffec49",
"m1 c #ffe232",
"n1 c #ffe337",
"o1 c #fbdc34",
"p1 c #e9c025",
"q1 c #e4b61e",
"r1 c #e4b81f",
"s1 c #e6ba23",
"t1 c #e8be23",
"u1 c #fee236",
"v1 c #ffe438",
"w1 c #ffe544",
"x1 c #ffea48",
"y1 c #eed14d",
"z1 c #ca9d44",
"02 c #d7b355",
"12 c #dbba5d",
"22 c #dabb62",
"32 c #e3c55c",
"42 c #e9c02a",
"52 c #cd9c38",
"62 c #cca044",
"72 c #f3e26f",
"82 c #ffe439",
"92 c #f1ce31",
":2 c #cb9522",
";2 c #d6af4a",
"A2 c #ddbd57",
"B2 c #d0a23d",
"C2 c #d7af43",
"D2 c #fee540",
"E2 c #eccb44",
"F2 c #d5b052",
"G2 c #fbf798",
"H2 c #ffffa5",
"I2 c #f5ec92",
"J2 c #f3e377",
"K2 c #e9c129",
"L2 c #d9b44a",
"M2 c #e2c768",
"N2 c #cb9c3c",
"O2 c #f3e16f",
"P2 c #ffee50",
"Q2 c #efc92d",
"R2 c #d4a83b",
"S2 c #fcfaa0",
"T2 c #f2e688",
"U2 c #ca993b",
"V2 c #eed96e",
"W2 c #ffea45",
"X2 c #eccc45",
"Y2 c #d6b254",
"Z2 c #fcf99a",
"a2 c #ffffad",
"b2 c #e2c86a",
"c2 c #dab142",
"d2 c #e9bf27",
"e2 c #d8b34b",
"f2 c #ffffaa",
"g2 c #e6cf70",
"h2 c #cc9f40",
"i2 c #f6e770",
"j2 c #ffe73e",
"k2 c #d7ad3f",
"l2 c #e9d679",
"m2 c #e8cf66",
"n2 c #fff15d",
"o2 c #ffea49",
"p2 c #ebca45",
"q2 c #d6b25a",
"r2 c #f4ec91",
"s2 c #dec165",
"t2 c #cea245",
"u2 c #dcb74c",
"v2 c #eac22b",
"w2 c #cb962a",
"x2 c #dcbb5a",
"y2 c #e0c15e",
"z2 c #cc9c3c",
"03 c #e0bd4b",
"13 c #ffea40",
"23 c #efca2d",
"33 c #cf9f35",
"43 c #c8983d",
"53 c #e8d066",
"63 c #fff25d",
"73 c #ffe539",
"83 c #ffe949",
"93 c #f2d343",
":3 c #f6e672",
";3 c #e1be46",
"A3 c #e1be49",
"B3 c #f1d95b",
"C3 c #ffe740",
"D3 c #ffe73f",
"E3 c #f8d938",
"F3 c #e4b927",
"G3 c #e0b324",
"H3 c #e2b626",
"I3 c #e3b729",
"J3 c #e9c12c",
"K3 c #f4d232",
"L3 c #e1b93c",
"M3 c #f2df6a",
"N3 c #fff05c",
"O3 c #ffe53b",
"P3 c #ffe53d",
"Q3 c #ffe63e",
"R3 c #ffe83c",
"S3 c #ffe53a",
"T3 c #ffe83d",
"U3 c #ffe63c",
"V3 c #ffe940",
"W3 c #ffe93f",
"X3 c #ffe83f",
"Y3 c #ffe63f",
"Z3 c #ffe93e",
"a3 c #ffe73c",
"b3 c #ffe53c",
"c3 c #ffe53e",
"d3 c #ffe646",
"e3 c #555555",
"f3 c #ffe74a",
"g3 c #e4c451",
"                                                                                                ",
"                                                                                                ",
"                                                                                                ",
"                                                                                                ",
"          g3g3g3g3g3g3g3g3g3g3g3g3g3g3g3g3g3g3g3g3g3g3g3g3g3g3g3g3g3g3g3                        ",
"          g3f3f3f3f3f3f3f3f3f3f3f3f3f3f3f3f3f3f3f3f3f3f3f3f3f3f3f3f3f3g3e3                      ",
"          g3d3c3c3c3c3b3a3Z3Y3c3c3c3X3W3X3X3V3Y3c3c3c3c3U3T3T3S3R3Q3d3g3e3                      ",
"          g3f3c3c3P3O3N3M3L3K3W3c3Y3J3I3H3G3F3E3D3c3P3C3B3A3;3:3g39383g3e3                      ",
"          g3f3c3P373635343332313c3X303z2y2x2w2v213c3c3C3u2t2s2r2q2p2o2g3e3                      ",
"          g3f3c3b3n2m2z2l2k22313c3j2i2h2g2f2e2d213c3c3c3c2b2a2Z2Y2X2o2g3e3                      ",
"          g3f3P3W2V2U2T2S2R2Q213c3b3P2O2N2M2L2K213c3P3c3J2I2H2G2F2E2o2g3e3                      ",
"          g3f3Q3D2C2B2A2;2:29213c3c382P27262524213c3c3c332221202z1y1x1g3e3                      ",
"          g3w1v1u1t1s1r1q1p1o1v1n1n1n1m1l1k1j1i1h1n1n1n1g1f1e1d1c1b1a1g3e3                      ",
"          g3Z1Y1X1W1V1W1V1W1X1Y1Y1Y1Y1Y1U1T1S1R1Y1Y1Y1Y1Y1Y1Y1Y1Y1Y1Y1g3e3                      ",
"          g3u1u1u1u1u1u1u1u1u1u1u1u1u1u1u1u1u1u1u1u1u1u1u1u1u1u1u1u1u1g3e3Q1P1P1P1P1P1P1        ",
"          g3O1u1u1u1u1u1u1u1u1u1u1u1u1u1u1u1u1u1u1u1u1u1u1u1u1u1u1u1u1g3e3Q1N1N1N1N1M1P1e3      ",
"          g3O1u1u1u1u1u1u1u1u1u1u1u1u1u1u1u1u1u1u1u1u1u1u1u1u1u1u1u1u1g3e3Q1L1K1J1I1H1P1e3      ",
"          g3O1u1u1u1u1u1u1u1u1u1u1u1u1u1u1u1u1u1u1u1u1u1u1u1u1u1u1u1u1g3e3Q1G1F1E1D1C1P1e3      ",
"          g3O1u1u1u1u1u1u1u1u1u1u1u1u1u1u1u1u1u1u1u1u1u1u1u1u1u1u1u1u1g3e3Q1B1A1;1:191P1e3      ",
"          g3O1u1u1u1u1u1u1u1u1u1u1u1u1u1u1u1u1u1u1u1u1u1u1u1u1u1u1u181g3e3Q17161514191P1e3      ",
"          g3O1u1u1u1u1u1u1u1u1u1u1u1u1u1u1u1u1u1u1u1u1u1u1u1u1u1u1u181g3e3Q13121110191P1e3      ",
"          g3O1u1u1u1u1u1u1u1u1u1u1u1u1u1u1u1u1u1u1u1u1u1u1u1u1u1u1u181g3e3Q1z0y0x0w091P1e3      ",
"          g3O1u1u1u1u1u1u1u1u1u1u1u1u1u1u1u1u1u1u1u1u1u1u1u1u1u1u1u181g3e3Q1v0u0t0Q1s0P1e3      ",
"          g3O1u1u1u1u1u1u1u1u1u1u1u1u1u1u1u1u1u1u1u1u1u1u1u1u1u1u1u1r0g3e3Q1q0p0o0n0m0P1e3      ",
"          g3O1u1u1u1u1u1u1u1u1u1u1u1u1u1u1u1u1u1u1u1u1u1u1u1u1u1u1u1l0g3e3Q1Q1Q1Q1Q1Q1P1e3      ",
"          g3O1u1u1u1u1u1u1u1u1u1u1u1u1u1u1u1u1u1u1u1u1u1u1u1u1u1u1u1k0g3e3Q1p0p0p0p0j0P1e3      ",
"          g3O1u1u1u1u1u1u1u1u1u1u1u1u1u1u1u1u1u1u1u1u1u1u1u1u1u1u1u1i0g3e3Q1p0p0p0p0j0P1e3      ",
"          g3O1u1u1u1u1u1u1u1u1u1u1u1u1u1u1u1u1u1u1u1u1u1u1u1u1u1h0g0f0g3e3Q1p0p0p0p0j0P1e3      ",
"          g3O1u1u1u1u1u1u1u1u1u1u1u1u1u1u1u1u1u1u1u1u1u1u1u1u1e0d0c0b0g3e3Q1p0p0p0p0j0P1e3      ",
"          g3O1u1u1u1u1u1u1u1u1u1u1u1u1u1u1u1u1u1u1u1u1u1u1u1u1a0Z0Y0X0g3e3Q1p0p0p0p0j0P1e3      ",
"          g3O1u1u1u1u1u1u1u1u1u1u1u1u1u1u1u1u1u1u1u1u1u1u1e0W0V0U0T0S0g3e3Q1p0p0p0p0j0P1e3      ",
"          g3O1u1u1u1u1u1u1u1u1u1u1u1u1u1u1u1u1u1u1u1u1u1R0d0Q0P0O0N0S0g3e3Q1p0p0p0p0j0P1e3      ",
"          g3H2u1u1u1u1u1u1u1u1u1u1u1u1u1u1u1u1u1u1u1u1u1M0L0Y0T0N0T0K0g3e3Q1p0p0p0p0j0P1e3      ",
"          g3u1u1O1O1O1O1u1O1l0k0k0k0k0k0k0k0k0k0k0k0k0i0J0b0I0S0S0H0G0g3e3Q1p0p0p0p0j0P1e3      ",
"          g3g3g3g3g3g3g3g3g3g3g3g3g3g3g3g3g3g3g3g3g3g3g3g3g3g3g3g3g3g3g3e3Q1p0p0p0p0j0P1e3      ",
"            e3e3e3e3e3e3e3e3e3e3e3e3e3e3e3e3e3e3e3e3e3e3e3e3e3e3e3e3e3e3e3Q1p0p0p0n0j0P1e3      ",
"                          Q1Q1Q1Q1Q1Q1Q1Q1Q1Q1Q1Q1Q1Q1Q1Q1Q1Q1Q1Q1Q1Q1Q1Q1Q1p0n0n0n0F0P1e3      ",
"                          P1j0n0n0n0n0n0n0n0n0n0n0n0n0n0n0n0n0n0n0n0n0n0n0n0n0n0E0D0C0P1e3      ",
"                          P1j0n0n0n0n0n0n0n0n0n0n0n0n0n0n0n0n0n0n0n0n0n0n0n0n0n0;1;1B0P1e3      ",
"                          P1j0n0n0n0n0n0n0n0n0n0n0n0n0n0n0n0n0n0n0n0n0n0n0n0n0A0;1;0;1P1e3      ",
"                          P1j0n0n0n0n0n0n0n0n0n0n0n0n0n0n0n0n0n0n0n0n0n0n0n0:090;180;1P1e3      ",
"                          P1j0n0n0n0n0n0n0n0n0n0n0n0n0n0n0n0n0n0n0n0n0n070;1;1;1;160;1P1e3      ",
"                          P150n0n0n0n0n0n0n0n0n0n0n0n0n0n0n0n0n0n0n0n0n0P14030206020;1P1e3      ",
"                          P110j0j0j0j0j0j0j0j0j0j0j0j0j0j0j0j0j0j0j0j0F0C0B0;1;1;1;100P1e3      ",
"                          P1P1P1P1P1P1P1P1P1P1P1P1P1P1P1P1P1P1P1P1P1P1P1P1P1P1P1P1P1P1P1e3      ",
"                            e3e3e3e3e3e3e3e3e3e3e3e3e3e3e3e3e3e3e3e3e3e3e3e3e3e3e3e3e3e3e3      ",
"                                                                                                ",
"                                                                                                "};
