/* XPM */
static char *image[] = {
"48 48 717 2",
"   c None",
"00 c #20211e",
"10 c #252422",
"20 c #2c2c27",
"30 c #34302e",
"40 c #2f2c29",
"50 c #2f2d28",
"60 c #161511",
"70 c #1a1c19",
"80 c #1a1a18",
"90 c #151715",
":0 c #1f1f1c",
";0 c #232321",
"A0 c #2d2a2a",
"B0 c #292a2b",
"C0 c #333433",
"D0 c #3c3c3b",
"E0 c #403f3c",
"F0 c #454441",
"G0 c #2d2d2c",
"H0 c #191b1a",
"I0 c #191a18",
"J0 c #191917",
"K0 c #1b1b1a",
"L0 c #1e1f1d",
"M0 c #21211e",
"N0 c #232422",
"O0 c #262724",
"P0 c #2a2a28",
"Q0 c #30312f",
"R0 c #373935",
"S0 c #3c3c3a",
"T0 c #47484a",
"U0 c #585553",
"V0 c #1e1d19",
"W0 c #1d1d19",
"X0 c #1b1d1a",
"Y0 c #1c1d1a",
"Z0 c #1d1e1b",
"a0 c #1d1f1d",
"b0 c #222324",
"c0 c #242625",
"d0 c #272928",
"e0 c #292b2a",
"f0 c #302f31",
"g0 c #383839",
"h0 c #40403e",
"i0 c #40413f",
"j0 c #595955",
"k0 c #282823",
"l0 c #191b17",
"m0 c #1b1c19",
"n0 c #171b19",
"o0 c #161d1b",
"p0 c #1a201e",
"q0 c #1e2423",
"r0 c #242827",
"s0 c #212827",
"t0 c #242a29",
"u0 c #333636",
"v0 c #323535",
"w0 c #333534",
"x0 c #3b3c3a",
"y0 c #60605c",
"z0 c #2f302c",
"01 c #131913",
"11 c #131a18",
"21 c #121b1b",
"31 c #0b1c18",
"41 c #0a211a",
"51 c #092320",
"61 c #132b27",
"71 c #132a2b",
"81 c #203636",
"91 c #1e3431",
":1 c #142c2f",
";1 c #283436",
"A1 c #1b2b2b",
"B1 c #353b38",
"C1 c #5c5d57",
"D1 c #31332f",
"E1 c #091c16",
"F1 c #001815",
"G1 c #001a19",
"H1 c #00211e",
"I1 c #002726",
"J1 c #002a2b",
"K1 c #0d3131",
"L1 c #1e3734",
"M1 c #003c3f",
"N1 c #0e4a49",
"O1 c #00484b",
"P1 c #004349",
"Q1 c #304f50",
"R1 c #445356",
"S1 c #515c58",
"T1 c #1b2c28",
"U1 c #001712",
"V1 c #2e2420",
"W1 c #48231e",
"X1 c #622120",
"Y1 c #7a1f1c",
"Z1 c #881f1a",
"a1 c #92211f",
"b1 c #9e2221",
"c1 c #a12520",
"d1 c #a82422",
"e1 c #b02f2a",
"f1 c #a54b48",
"g1 c #3a5054",
"h1 c #3f5c5d",
"i1 c #2a6467",
"j1 c #232825",
"k1 c #631c1d",
"l1 c #65201e",
"m1 c #6e1f1a",
"n1 c #77201d",
"o1 c #7e1e1e",
"p1 c #872020",
"q1 c #8d2223",
"r1 c #992424",
"s1 c #a62726",
"t1 c #b22524",
"u1 c #c22820",
"v1 c #d13029",
"w1 c #c6332f",
"x1 c #ba4749",
"y1 c #ac7479",
"z1 c #2e1f1e",
"02 c #691c1a",
"12 c #5f1e1d",
"22 c #691d17",
"32 c #751d1c",
"42 c #7d1f1b",
"52 c #861f20",
"62 c #8f2223",
"72 c #962324",
"82 c #a32727",
"92 c #af2524",
":2 c #cb3130",
";2 c #cf3332",
"A2 c #d33c37",
"B2 c #de5851",
"C2 c #392a26",
"D2 c #6e1a1b",
"E2 c #621e1e",
"F2 c #6c1d19",
"G2 c #731e1c",
"H2 c #791d1b",
"I2 c #83201f",
"J2 c #8e2022",
"K2 c #962424",
"L2 c #a32626",
"M2 c #b12723",
"N2 c #bb2626",
"O2 c #c7312e",
"P2 c #ca3936",
"Q2 c #d33c3c",
"R2 c #da5655",
"S2 c #342521",
"T2 c #6d1b18",
"U2 c #5e201b",
"V2 c #6d1e19",
"W2 c #741e1c",
"X2 c #7b1e1d",
"Y2 c #84201d",
"Z2 c #8d2122",
"a2 c #942124",
"b2 c #a52628",
"c2 c #b02822",
"d2 c #ba2924",
"e2 c #c62e2f",
"f2 c #ce3737",
"g2 c #d53c40",
"h2 c #da5e5c",
"i2 c #3c2825",
"j2 c #5b1c19",
"k2 c #5b1e1c",
"l2 c #6d1e1a",
"m2 c #731e1a",
"n2 c #7e1e1b",
"o2 c #85201e",
"p2 c #8d211e",
"q2 c #952122",
"r2 c #a72522",
"s2 c #b22624",
"t2 c #b92626",
"u2 c #c32a2c",
"v2 c #d43738",
"w2 c #db3e40",
"x2 c #db5c5b",
"y2 c #4a3331",
"z2 c #641917",
"03 c #621d1f",
"13 c #681b17",
"23 c #731d19",
"33 c #821c1c",
"43 c #8c1f1f",
"53 c #941e21",
"63 c #9f2223",
"73 c #a92624",
"83 c #be2828",
"93 c #cb2e2f",
":3 c #d63737",
";3 c #d53d3c",
"A3 c #d95957",
"B3 c #4c3331",
"C3 c #6e130f",
"D3 c #5b1b1c",
"E3 c #761d1c",
"F3 c #7e1c19",
"G3 c #871f1e",
"H3 c #8b2020",
"I3 c #9d2023",
"J3 c #a72524",
"K3 c #b62525",
"L3 c #d22c31",
"M3 c #d73636",
"N3 c #d93b3c",
"O3 c #db5656",
"P3 c #553b36",
"Q3 c #690f12",
"R3 c #591c1c",
"S3 c #6e1b19",
"T3 c #791e1c",
"U3 c #811e1c",
"V3 c #801f1f",
"W3 c #8a2023",
"X3 c #9f2222",
"Y3 c #a92524",
"Z3 c #b82525",
"a3 c #c3282b",
"b3 c #d43533",
"c3 c #d83c3b",
"d3 c #de5858",
"e3 c #59423a",
"f3 c #600b11",
"g3 c #561e1c",
"h3 c #6b1b17",
"i3 c #781b1b",
"j3 c #751c19",
"k3 c #77201b",
"l3 c #841e20",
"m3 c #8e1f1f",
"n3 c #a92421",
"o3 c #b62424",
"p3 c #c12829",
"q3 c #d53535",
"r3 c #d73b3b",
"s3 c #e05b59",
"t3 c #5a413b",
"u3 c #660d10",
"v3 c #641c1c",
"w3 c #6f1917",
"x3 c #7a1d1a",
"y3 c #792424",
"z3 c #781f1c",
"04 c #751e1d",
"14 c #8f2628",
"24 c #b02521",
"34 c #b72324",
"44 c #c12828",
"54 c #ce2a2d",
"64 c #d53233",
"74 c #d73a3a",
"84 c #e35859",
"94 c #5a423c",
":4 c #660a0e",
";4 c #611b1a",
"A4 c #6c1814",
"B4 c #751b1b",
"C4 c #7f1c1a",
"D4 c #791f1a",
"E4 c #7c1f1f",
"F4 c #9a2322",
"G4 c #a92422",
"H4 c #b42322",
"I4 c #ce2c2b",
"J4 c #d53435",
"K4 c #d8393b",
"L4 c #e15658",
"M4 c #573f3b",
"N4 c #4f1416",
"O4 c #681412",
"P4 c #6c1816",
"Q4 c #761c19",
"R4 c #771b17",
"S4 c #672323",
"T4 c #782525",
"U4 c #862121",
"V4 c #a72323",
"W4 c #b32421",
"X4 c #c12528",
"Y4 c #cb2929",
"Z4 c #d53335",
"a4 c #d7373a",
"b4 c #e25859",
"c4 c #5b3f3b",
"d4 c #712022",
"e4 c #601614",
"f4 c #6f1815",
"g4 c #751a18",
"h4 c #771b19",
"i4 c #772122",
"j4 c #75272b",
"k4 c #862020",
"l4 c #7f2122",
"m4 c #bb2726",
"n4 c #c32829",
"o4 c #ce2c2e",
"p4 c #d93436",
"q4 c #d73638",
"r4 c #e45959",
"s4 c #533533",
"t4 c #711a18",
"u4 c #641918",
"v4 c #6c1712",
"w4 c #721918",
"x4 c #651d1c",
"y4 c #742523",
"z4 c #7e2426",
"05 c #812427",
"15 c #b9393b",
"25 c #bc2526",
"35 c #c22829",
"45 c #ce2b31",
"55 c #da3738",
"65 c #d53637",
"75 c #e95a5a",
"85 c #4c322f",
"95 c #701814",
":5 c #631817",
";5 c #6d1412",
"A5 c #731615",
"B5 c #84292a",
"C5 c #801c1d",
"D5 c #952e31",
"E5 c #aa383c",
"F5 c #ac1a1b",
"G5 c #b82123",
"H5 c #c4272a",
"I5 c #ce2b2e",
"J5 c #dc3738",
"K5 c #d23437",
"L5 c #e85a5b",
"M5 c #53322f",
"N5 c #5f1210",
"O5 c #511513",
"P5 c #691511",
"Q5 c #721917",
"R5 c #781815",
"S5 c #871b1d",
"T5 c #8e1616",
"U5 c #951b1a",
"V5 c #a71d1e",
"W5 c #b22122",
"X5 c #c12729",
"Y5 c #ce2d2e",
"Z5 c #dc3736",
"a5 c #e95a5c",
"b5 c #583434",
"c5 c #560d0d",
"d5 c #611917",
"e5 c #671611",
"f5 c #6d1612",
"g5 c #76150f",
"h5 c #851614",
"i5 c #891313",
"j5 c #971315",
"k5 c #a51919",
"l5 c #b5201f",
"m5 c #bf292a",
"n5 c #cb2e2e",
"o5 c #dc3636",
"p5 c #d53333",
"q5 c #ea595b",
"r5 c #513033",
"s5 c #700f0b",
"t5 c #5f1212",
"u5 c #6a0d0b",
"v5 c #650701",
"w5 c #6d0000",
"x5 c #780000",
"y5 c #7e0000",
"z5 c #860000",
"06 c #960000",
"16 c #b6181b",
"26 c #c22529",
"36 c #ca2d2f",
"46 c #dc3436",
"56 c #d63335",
"66 c #e9575b",
"76 c #4e2d2e",
"86 c #720f09",
"96 c #5a0f0c",
":6 c #690100",
";6 c #530000",
"A6 c #400000",
"B6 c #460000",
"C6 c #5c0000",
"D6 c #650000",
"E6 c #5d0000",
"F6 c #ac0000",
"G6 c #c02120",
"H6 c #d02f2e",
"I6 c #d93435",
"J6 c #d53234",
"K6 c #e65a5b",
"L6 c #4d2d2d",
"M6 c #6f0c03",
"N6 c #5b0708",
"O6 c #670000",
"P6 c #580000",
"Q6 c #ba8788",
"R6 c #c4b7b9",
"S6 c #c8c5c4",
"T6 c #bcbbbe",
"U6 c #99999d",
"V6 c #be1213",
"W6 c #cc2828",
"X6 c #db3335",
"Y6 c #d73432",
"Z6 c #e65b59",
"a6 c #512f32",
"b6 c #6e0703",
"c6 c #580200",
"d6 c #630000",
"e6 c #4b0000",
"f6 c #be9e9c",
"g6 c #cbc6c3",
"h6 c #cfd8dd",
"i6 c #b8c6c9",
"j6 c #89a1a3",
"k6 c #ba0000",
"l6 c #bb0003",
"m6 c #c52425",
"n6 c #d32e33",
"o6 c #d63031",
"p6 c #e55b5b",
"q6 c #533436",
"r6 c #6d0100",
"s6 c #bea9ac",
"t6 c #bfc9ce",
"u6 c #b8bfc5",
"v6 c #adb9bb",
"w6 c #839a9c",
"x6 c #bb0000",
"y6 c #be0000",
"z6 c #ca2528",
"07 c #d5393d",
"17 c #d83133",
"27 c #e45c5c",
"37 c #4f3131",
"47 c #680100",
"57 c #600000",
"67 c #480000",
"77 c #c1abad",
"87 c #c9d0d5",
"97 c #b3bbbe",
":7 c #919d9d",
";7 c #7d9494",
"A7 c #b70000",
"B7 c #c42524",
"C7 c #d33637",
"D7 c #d32f31",
"E7 c #e65e5e",
"F7 c #543435",
"G7 c #650300",
"H7 c #570000",
"I7 c #610000",
"J7 c #470000",
"K7 c #aea8a9",
"L7 c #c4ccce",
"M7 c #bdc4c6",
"N7 c #b9bec0",
"O7 c #8a9c9e",
"P7 c #ae0000",
"Q7 c #b20004",
"R7 c #cd2d2e",
"S7 c #d33838",
"T7 c #d4312d",
"U7 c #e75f5e",
"V7 c #543535",
"W7 c #5f0101",
"X7 c #560000",
"Y7 c #510000",
"Z7 c #a89fa0",
"a7 c #b4bcbb",
"b7 c #a0a6a3",
"c7 c #a3acaf",
"d7 c #92a2a5",
"e7 c #b00000",
"f7 c #b30000",
"g7 c #c62426",
"h7 c #cf3231",
"i7 c #d3302c",
"j7 c #e85c5a",
"k7 c #533535",
"l7 c #590207",
"m7 c #540003",
"n7 c #032d25",
"o7 c #9c8b8a",
"p7 c #868787",
"q7 c #83827c",
"r7 c #767773",
"s7 c #797d7c",
"t7 c #950000",
"u7 c #910000",
"v7 c #ad1b1d",
"w7 c #b02325",
"x7 c #d22e2d",
"y7 c #e95a57",
"z7 c #523334",
"08 c #4b0102",
"18 c #400805",
"28 c #00160f",
"38 c #310000",
"48 c #2c0000",
"58 c #410000",
"68 c #4d0000",
"78 c #2f0000",
"88 c #270000",
"98 c #260000",
":8 c #0a0000",
";8 c #8e0000",
"A8 c #df4743",
"B8 c #523532",
"C8 c #3f1111",
"D8 c #461312",
"E8 c #511211",
"F8 c #691616",
"G8 c #6f0000",
"H8 c #8f0000",
"I8 c #a5141c",
"J8 c #b62e35",
"K8 c #c1454b",
"L8 c #ca4d55",
"M8 c #cc6368",
"N8 c #d08287",
"O8 c #d68e92",
"P8 c #d89097",
"Q8 c #ad332f",
"R8 c #564040",
"S8 c #401b1f",
"T8 c #3d110e",
"U8 c #471214",
"V8 c #5c1110",
"W8 c #5d0d0d",
"X8 c #6c0b0b",
"Y8 c #6d130b",
"Z8 c #811410",
"a8 c #8a1516",
"b8 c #8d0000",
"c8 c #da6b78",
"d8 c #ea99a8",
"e8 c #e98e9d",
"f8 c #f48f9c",
"g8 c #f29ba2",
"h8 c #4e2e2d",
"i8 c #481210",
"j8 c #491312",
"k8 c #531514",
"l8 c #220907",
"m8 c #680000",
"n8 c #bb1d1c",
"o8 c #a80000",
"p8 c #b80000",
"q8 c #c90000",
"r8 c #da0c00",
"s8 c #503331",
"t8 c #421213",
"u8 c #42120d",
"v8 c #471415",
"w8 c #441414",
"x8 c #491215",
"y8 c #4d1616",
"z8 c #601d1d",
"09 c #661e21",
"19 c #6f1b1a",
"29 c #a72828",
"39 c #b03437",
"49 c #c3383c",
"59 c #d44d50",
"69 c #d92e26",
"79 c #613836",
"89 c #551d1b",
"99 c #541916",
":9 c #451513",
";9 c #3c1010",
"A9 c #451312",
"B9 c #4a1214",
"C9 c #551919",
"D9 c #5d1e1f",
"E9 c #591819",
"F9 c #541415",
"G9 c #6b1511",
"H9 c #74120b",
"I9 c #841b12",
"J9 c #962621",
"K9 c #a63d3c",
"L9 c #362422",
"M9 c #25110f",
"N9 c #240b0b",
"O9 c #290e0d",
"P9 c #2a1110",
"Q9 c #2c1411",
"R9 c #351315",
"S9 c #3f1a1a",
"T9 c #4a2021",
"U9 c #491b1c",
"V9 c #461814",
"W9 c #54191b",
"X9 c #7c3e41",
"Y9 c #99515a",
"Z9 c #aa676f",
"a9 c #a04b52",
"b9 c #7d6968",
"c9 c #4c2e2a",
"d9 c #461617",
"e9 c #451112",
"f9 c #4e0f10",
"g9 c #4a1012",
"h9 c #4d0f11",
"i9 c #501210",
"j9 c #521010",
"k9 c #54100e",
"l9 c #54110c",
"m9 c #540e0b",
"n9 c #520807",
"o9 c #500600",
"p9 c #4f0000",
"q9 c #5e1f21",
"r9 c #6f2325",
"s9 c #483836",
"t9 c #673d3e",
"u9 c #5c2828",
"v9 c #59201f",
"w9 c #591b1a",
"x9 c #581917",
"y9 c #581516",
"z9 c #5a1614",
"0: c #591313",
"1: c #661313",
"2: c #601212",
"3: c #671214",
"4: c #681110",
"5: c #6f0d0b",
"6: c #701209",
"7: c #690a00",
"8: c #6c120e",
"9: c #741c1b",
":: c #742e32",
";: c #5f4143",
"A: c #2a211f",
"B: c #240c0d",
"C: c #120000",
"D: c #0c0000",
"E: c #180000",
"F: c #300000",
"G: c #2d0000",
"H: c #2b0000",
"I: c #3d0000",
"J: c #500000",
"K: c #640100",
"L: c #690000",
"M: c #7c060b",
"N: c #7d0809",
"O: c #8f1f22",
"P: c #9f3539",
"Q: c #b25052",
"R: c #a54f51",
"S: c #bc585e",
"T: c #c25a60",
"U: c #834746",
"V: c #23251f",
"W: c #291110",
"X: c #000000",
"Y: c #130000",
"Z: c #3e0000",
"a: c #3a0000",
"b: c #430000",
"c: c #4a0000",
"d: c #492a25",
"e: c #533833",
"f: c #6e4d46",
"g: c #69574f",
"h: c #88544f",
"i: c #d77d7c",
"j: c #d6807a",
"k: c #d8837e",
"l: c #e07f7c",
"m: c #ed8f8e",
"n: c #ee9897",
"o: c #f1a6a7",
"p: c #eeb1b2",
"q: c #f3afb2",
"r: c #f1b5ba",
"s: c #ffcbd0",
"t: c #fed1d5",
"u: c #edbfc1",
"v: c #f3ccce",
"w: c #ffd8dc",
"x: c #fcdce4",
"y: c #c8a9ae",
"z: c #806c6f",
"0; c #785b58",
"1; c #a67d78",
"2; c #c28b88",
"3; c #c68487",
"4; c #d38b90",
"5; c #f4acb3",
"6; c #f4adb4",
"7; c #f0bcc3",
"8; c #dfb0b6",
"9; c #d4a7ad",
":; c #ac8d90",
";; c #786365",
"                                                                                                ",
"                                    ;;:;9;8;7;6;5;4;3;2;1;0;                                    ",
"                            z:y:x:w:v:u:t:s:r:q:p:o:n:m:l:k:j:i:h:                              ",
"                          g:f:e:d:c:b:a:Z:a:Y:X:X:X:X:X:X:X:X:X:X:W:V:                          ",
"                          U:T:S:R:Q:P:O:N:M:L:K:J:I:H:G:F:E:X:D:C:B:A:                          ",
"                            ;:::9:8:7:6:5:4:3:2:1:0:z9y9x9w9v9u9t9s9                            ",
"                                r9q9p9o9n9m9l9k9j9i9h9g9f9e9d9c9                                ",
"                              b9a9Z9Y9X9W9V9U9T9S9R9Q9P9O9N9M9L9                                ",
"                                K9J9I9H9G9F9E9D9C9B9A9;9:9998979                                ",
"                                69594939291909z8x9y8x8w8v8u8t8s8                                ",
"                                r8q8p8o8n8m8X:X:X:X:X:l8k8j8i8h8                                ",
"                                g8f8e8d8c8b8a8Z8Y8X8W8V8U8T8S8R8                                ",
"                                Q8P8O8N8M8L8K8J8I8H8G8F8E8D8C8B8                                ",
"                                A8;8:89888786858I:4838X:281808z7                                ",
"                                y7x7w7v7u7t7s7r7q7p7o7H:n7m7l7k7                                ",
"                                j7i7h7g7f7e7d7c7b7a7Z7a:Y7X7W7V7                                ",
"                                U7T7S7R7Q7P7O7N7M7L7K7J7I7H7G7F7                                ",
"                                E7D7C7B7f7A7;7:79787776757H74737                                ",
"                                271707z6y6x6w6v6u6t6s6c:57H7r6q6                                ",
"                                p6o6n6m6l6k6j6i6h6g6f6e6d6c6b6a6                                ",
"                                Z6Y6X6W6V6y6U6T6S6R6Q6P6O6N6M6L6                                ",
"                                K6J6I6H6G6F6E6D6C6B6A6;6:6968676                                ",
"                                66564636261606z5y5x5w5v5u5t5s5r5                                ",
"                                q5p5o5n5m5l5k5j5i5h5g5f5e5d5c5b5                                ",
"                                a556Z5Y5X5W5V5U5T5S5R5Q5P5O5N5M5                                ",
"                                L5K5J5I5H5G5F5E5D5C5B5A5;5:59585                                ",
"                                7565554535251505z4y4x4w4v4u4t4s4                                ",
"                                r4q4p4o4n4m4l4k4j4i4h4g4f4e4d4c4                                ",
"                                b4a4Z4Y4X4W4V4U4T4S4R4Q4P4O4N4M4                                ",
"                                L4K4J4I4X5H4G4F4E4D4C4B4A4;4:494                                ",
"                                847464544434241404z3y3x3w3v3u3t3                                ",
"                                s3r3q3I5p3o3n3m3l3k3j3i3h3g3f3e3                                ",
"                                d3c3b3I5a3Z3Y3X3W3V3U3T3S3R3Q3P3                                ",
"                                O3N3M3L3p3K3J3I3H3G3F3E3S3D3C3B3                                ",
"                                A3;3:39383K37363534333231303z2y2                                ",
"                                x2w2v2u2t2s2r2q2p2o2n2m2l2k2j2i2                                ",
"                                h2g2f2e2d2c2b2a2Z2Y2X2W2V2U2T2S2                                ",
"                                R2Q2P2O2N2M2L2K2J2I2H2G2F2E2D2C2                                ",
"                                B2A2;2:28392827262524232221202z1                                ",
"                                y1x1w1v1u1t1s1r1q1p1o1n1m1l1k1j1                                ",
"                                i1h1g1f1e1d1c1b1a1Z1Y1X1W1V1U1T1                                ",
"                                S1R1Q1P1O1N1M1L1K1J1I1H1G1F1E1D1                                ",
"                                C1B1A1;1:191817161514131211101z0                                ",
"                                y0x0w0v0u0t0s0r0q0p0o0n0n0m0l0k0                                ",
"                                j0i0h0g0f0e0d0c0b0a0a0Z0Y0X0W0V0                                ",
"                                U0T0S0R0Q0P0O0N0M0L0K0J0I0H0V0                                  ",
"                                  G0F0E0D0C0B0A0;0:090807060                                    ",
"                                        504030201000                                            "};
