/* XPM */
static char *image[] = {
"48 48 100 2",
"   c None",
"00 c #7d7d7d",
"10 c #7b7b7b",
"20 c #646464",
"30 c #eeeeee",
"40 c #b1b1b1",
"50 c #ececec",
"60 c #eaeaea",
"70 c #e8e8e8",
"80 c #e7e7e7",
"90 c #e5e5e5",
":0 c #797979",
";0 c #e3e3e3",
"A0 c #c4c4c4",
"B0 c #9b9b9b",
"C0 c #7c7c7c",
"D0 c #787878",
"E0 c #919191",
"F0 c #e2e2e2",
"G0 c #dbdbdb",
"H0 c #2f2f2f",
"I0 c #dfdfdf",
"J0 c #777777",
"K0 c #525252",
"L0 c #1c1c1c",
"M0 c #707070",
"N0 c #dedede",
"O0 c #696969",
"P0 c #dddddd",
"Q0 c #939393",
"R0 c #c1c1c1",
"S0 c #606060",
"T0 c #191919",
"U0 c #161616",
"V0 c #bababa",
"W0 c #cbcbcb",
"X0 c #959595",
"Y0 c #969696",
"Z0 c #b4b4b4",
"a0 c #838383",
"b0 c #434343",
"c0 c #3f3f3f",
"d0 c #626262",
"e0 c #aaaaaa",
"f0 c #d2d2d2",
"g0 c #454545",
"h0 c #878787",
"i0 c #0a0a0a",
"j0 c #c0c0c0",
"k0 c #353535",
"l0 c #dadada",
"m0 c #5b5b5b",
"n0 c #737373",
"o0 c #3e3e3e",
"p0 c #7a7a7a",
"q0 c #9f9f9f",
"r0 c #181818",
"s0 c #6c6c6c",
"t0 c #c8c8c8",
"u0 c #050505",
"v0 c #616161",
"w0 c #5d5d5d",
"x0 c #d6d6d6",
"y0 c #a6a6a6",
"z0 c #adadad",
"01 c #d3d3d3",
"11 c #1b1b1b",
"21 c #6e6e6e",
"31 c #b2b2b2",
"41 c #2e2e2e",
"51 c #cdcdcd",
"61 c #5f5f5f",
"71 c #000000",
"81 c #272727",
"91 c #a7a7a7",
":1 c #c2c2c2",
";1 c #373737",
"A1 c #101010",
"B1 c #010101",
"C1 c #030303",
"D1 c #202020",
"E1 c #424242",
"F1 c #8e8e8e",
"G1 c #d9d9d9",
"H1 c #d8d8d8",
"I1 c #d7d7d7",
"J1 c #767676",
"K1 c #dcdcdc",
"L1 c #984444",
"M1 c #d00000",
"N1 c #995252",
"O1 c #d51e1e",
"P1 c #845353",
"Q1 c #db3b3b",
"R1 c #e67676",
"S1 c #d08383",
"T1 c #eb9494",
"U1 c #e69797",
"V1 c #f1b1b1",
"W1 c #d8acac",
"                                                                                                ",
"                                                                                                ",
"                                                                                                ",
"                                                                                                ",
"            W1V1V1V1V1V1V1V1V1V1V1V1V1V1V1V1V1V1V1V1V1V1V1V1V1V1V1V1V1V1V1V1V1V1V1V1V1          ",
"          U1T1T1T1T1T1T1T1T1T1T1T1T1T1T1T1T1T1T1T1T1T1T1T1T1T1T1T1T1T1T1T1T1T1T1T1T1T1U1        ",
"        S1R1R1R1R1R1R1R1R1R1R1R1R1R1R1R1R1R1R1R1R1R1R1R1R1R1R1R1R1R1R1R1R1R1R1R1R1R1R1R1S1      ",
"        Q1Q1Q1Q1Q1Q1Q1Q1Q1Q1Q1Q1Q1Q1Q1Q1Q1Q1Q1Q1Q1Q1Q1Q1Q1Q1Q1Q1Q1Q1Q1Q1Q1Q1Q1Q1Q1Q1Q1Q1Q1P1    ",
"        O1O1O1O1O1O1O1O1O1O1O1O1O1O1O1O1O1O1O1O1O1O1O1O1O1O1O1O1O1O1O1O1O1O1O1O1O1O1O1O1O1N1    ",
"        M1M1M1M1M1M1M1M1M1M1M1M1M1M1M1M1M1M1M1M1M1M1M1M1M1M1M1M1M1M1M1M1M1M1M1M1M1M1M1M1M1L1    ",
"        K1K1K1K1K1K1K1K1K1K1K1K1K1K1K1K1K1K1K1K1K1K1K1K1K1K1K1K1K1K1K1K1K1K1K1K1K1K1K1K1K1J1    ",
"        K1K1K1K1K1K1K1K1K1K1K1K1K1K1K1K1K1K1K1K1K1K1K1K1K1K1K1K1K1K1K1K1K1K1K1K1K1K1K1K1K1J1    ",
"        K1K1K1K1K1K1K1K1K1K1K1K1K1K1K1K1K1K1K1K1K1K1K1K1K1K1K1K1K1K1K1K1K1K1K1K1K1K1K1K1K1J1    ",
"        K1K1K1K1K1K1K1K1K1K1K1K1K1K1K1K1K1K1K1K1I1H1K1K1K1K1K1K1K1K1K1K1K1K1K1K1K1K1K1K1K1J1    ",
"        K1K1K1K1K1K1K1K1K1K1K1K1K1K1K1K1G1F1E1D1C1B1A1;1:1K1K1K1K1K1K1K1K1K1K1K1K1K1K1K1K1J1    ",
"        K1K1K1K1K1K1K1K1K1K1K1K1K1K1K1918171717171717171C16151K1K1K1K1K1K1K1K1K1K1K1K1K1K1J1    ",
"        K1K1K1K1K1K1K1K1K1K1K1K1K1G14171717171717171717171717131K1K1K1K1K1K1K1K1K1K1K1K1K1J1    ",
"        K1K1K1K1K1K1K1K1K1K1K1K1K121717171717171C17171717171711101K1K1K1K1K1K1K1K1K1K1K1K1J1    ",
"        K1K1K1K1K1K1K1K1K1K1K1K1z0C171717171D1y0x0:1w07171717171v0K1K1K1K1K1K1K1K1K1K1K1K1J1    ",
"        K1K1K1K1K1K1K1K1K1K1K1K1u07171717171K1K1K1K1K1t07171717171s0K1K1K1K1K1K1K1K1K1K1K1J1    ",
"        K1K1K1K1K1K1K1K1K1K1K1K1717171717171K1K1K1K1K1K17171717171r0K1K1K1K1K1K1K1K1K1K1K1J1    ",
"        K1K1K1K1K1K1K1K1K1K1K1K1717171717171K1K1K1K1K1K1717171717171K1K1K1K1K1K1K1K1K1K1K1J1    ",
"        K1K1K1K1K1K1K1K1K1K1K1K1717171717171K1K1K1K1K1K1717171717171K1K1K1K1K1K1K1K1K1K1K1J1    ",
"        K1K1K1K1K1K1K1K1K1K1K1K1717171717171K1K1K1K1K1K1717171717171K1K1K1K1K1K1K1K1K1K1K1J1    ",
"        K1K1K1K1K1K1K1K1K1K1K1K1717171717171K1K1K1K1K1q0717171717171K1K1K1K1K1K1K1K1K1K1K1J1    ",
"        K1K1K1K1K1K1K1K1K1K1K1K1p0717171717171o0n0m0A171717171717171K1K1K1K1K1K1K1K1K1K1K1J1    ",
"        K1K1K1K1K1K1K1K1K1K1K1K1l0k071717171717171717171717171717171K1K1K1K1K1K1K1K1K1K1K1J1    ",
"        K1K1K1K1K1K1K1K1K1K1K1K1K1j0i0717171717171717171717171717171K1K1K1K1K1K1K1K1K1K1K1J1    ",
"        K1K1K1K1K1K1K1K1K1K1K1K1K1K1K1h0A1717171717171g0D17171717171K1K1K1K1K1K1K1K1K1K1K1J1    ",
"        K1K1K1K1K1K1K1K1K1K1K1K1K1K1K1K1f0e0d0c0b0a0Z0K1717171717171K1K1K1K1K1K1K1K1K1K1K1J1    ",
"        K1K1K1K1K1K1K1K1K1K1K1K1K1K1K1K1K1K1K1K1K1K1K1K17171717171C1K1K1K1K1K1K1K1K1K1K1K1J1    ",
"        K1K1K1K1K1K1K1K1K1K1K1K1K1K1K1K1K1K1K1K1K1K1K1Y07171717171X0K1K1K1K1K1K1K1K1K1K1K1J1    ",
"        K1K1K1K1K1K1K1K1K1K1K1K1K1W0K1K1K1K1K1K1K1K1V0U071717171T0G1K1K1K1K1K1K1K1K1K1K1K1J1    ",
"        K1K1K1K1K1K1K1K1K1K1K1K1K1S0D1R0K1K1K1K1K1s0u07171717171Q0K1K1K1K1K1K1K1K1K1K1K1K1J1    ",
"        P0P0P0P0P0P0P0P0P0P0P0P0P0O0A1A1A1A1A1A1A1A1A1A1A1A1A101P0P0P0P0P0P0P0P0P0P0P0P0P0J1    ",
"        N0N0N0N0N0N0N0N0N0N0N0N0N0M0L0L0L0L0L0L0L0L0L0L0L0L0K0N0N0N0N0N0N0N0N0N0N0N0N0N0N0J0    ",
"        I0I0I0I0I0I0I0I0I0I0I0I0I0J081L0L0L0L0L0L0L0L0L0H0a0G0I0I0I0I0I0I0I0I0I0I0I0I0I0I0J0    ",
"        F0F0F0F0F0F0F0F0F0F0F0F0F0F0F0R0q0E0D0M0C0B0A0F0F0F0F0F0F0F0F0F0F0F0F0F0F0F0F0F0F0D0    ",
"        ;0;0;0;0;0;0;0;0;0;0;0;0;0;0;0;0;0;0;0;0;0;0;0;0;0;0;0;0;0;0;0;0;0;0;0;0;0;0;0;0;0:0    ",
"        9090909090909090909090909090909090909090909090909090909090909090909090909090909090D0    ",
"        8080808080808080808080808080808080808080808080808080808080808080808080808080808080J0    ",
"        7070707070707070707070707070707070707070707070707070707070707070707070707070707070d0    ",
"        6060606060606060606060606060606060606060606060606060606060606060606060606060606060      ",
"          l050505050505050505050505050505050505050505050505050505050505050505050505050l0        ",
"            40303030303030303030303030303030303030303030303030303030303030303030303030          ",
"              201010C0000000000000000000000000000000000000000000000000000000C0C01020            ",
"                                                                                                ",
"                                                                                                "};
