/* XPM */
static char *image[] = {
"48 48 554 2",
"   c None",
"00 c #4d5053",
"10 c #424646",
"20 c #454949",
"30 c #46474d",
"40 c #4f5257",
"50 c #4f5154",
"60 c #424548",
"70 c #454448",
"80 c #47464a",
"90 c #4d5355",
":0 c #43494b",
";0 c #444649",
"A0 c #48474b",
"B0 c #4e5154",
"C0 c #434548",
"D0 c #4e5251",
"E0 c #454948",
"F0 c #343639",
"G0 c #33343c",
"H0 c #44474a",
"I0 c #bdc1c1",
"J0 c #bdbdbd",
"K0 c #9a9c9c",
"L0 c #bec0c1",
"M0 c #bcbebf",
"N0 c #c0bfc1",
"O0 c #bec0c0",
"P0 c #bbbdbd",
"Q0 c #bdbfc0",
"R0 c #bfbec0",
"S0 c #bdc0bd",
"T0 c #91929a",
"U0 c #45484b",
"V0 c #17191c",
"W0 c #16181b",
"X0 c #1f1e20",
"Y0 c #2a2a2a",
"Z0 c #31312f",
"a0 c #353835",
"b0 c #3c3f3c",
"c0 c #4e4c4d",
"d0 c #545452",
"e0 c #5e5e5e",
"f0 c #646464",
"g0 c #747375",
"h0 c #7c7c7c",
"i0 c #8b8b8b",
"j0 c #929292",
"k0 c #9d9b9a",
"l0 c #a1a19f",
"m0 c #a2a4a4",
"n0 c #a9abab",
"o0 c #aaaaaa",
"p0 c #afadae",
"q0 c #b0afb1",
"r0 c #b0afb3",
"s0 c #b1b0b4",
"t0 c #b2b1b5",
"u0 c #afb1b2",
"v0 c #919298",
"w0 c #000200",
"x0 c #020103",
"y0 c #010002",
"z0 c #232525",
"01 c #242327",
"11 c #2c2b2f",
"21 c #242626",
"31 c #474a47",
"41 c #434643",
"51 c #4f4f4f",
"61 c #929696",
"71 c #252426",
"81 c #272727",
"91 c #333333",
":1 c #28272b",
";1 c #242424",
"A1 c #333331",
"B1 c #464443",
"C1 c #474745",
"D1 c #4e514e",
"E1 c #464946",
"F1 c #4e5252",
"G1 c #45434a",
"H1 c #000003",
"I1 c #000001",
"J1 c #252521",
"K1 c #242420",
"L1 c #2d2d29",
"M1 c #272725",
"N1 c #2c2a29",
"O1 c #252324",
"P1 c #262326",
"Q1 c #2e2c2d",
"R1 c #4a4849",
"S1 c #464445",
"T1 c #444444",
"U1 c #454545",
"V1 c #464849",
"W1 c #0e0f15",
"X1 c #18191f",
"Y1 c #1b1920",
"Z1 c #1a191b",
"a1 c #1b191a",
"b1 c #1b1b19",
"c1 c #201e1b",
"d1 c #23211e",
"e1 c #242422",
"f1 c #252523",
"g1 c #2a2827",
"h1 c #2d2b2a",
"i1 c #312f2e",
"j1 c #3c3a3b",
"k1 c #403e3f",
"l1 c #444243",
"m1 c #464644",
"n1 c #464646",
"o1 c #464547",
"p1 c #494949",
"q1 c #4b4a4c",
"r1 c #4b4a4e",
"s1 c #4a494d",
"t1 c #46484b",
"u1 c #100e17",
"v1 c #0e0c13",
"w1 c #181719",
"x1 c #1a1a1a",
"y1 c #161819",
"z1 c #1c1b1d",
"02 c #1e1e1e",
"12 c #222222",
"22 c #222425",
"32 c #323031",
"42 c #383637",
"52 c #3e3e3c",
"62 c #494947",
"72 c #525051",
"82 c #5a5859",
"92 c #626260",
":2 c #6d6d6b",
";2 c #767674",
"A2 c #7f7f7f",
"B2 c #878787",
"C2 c #909090",
"D2 c #969696",
"E2 c #9f9f9f",
"F2 c #adadad",
"G2 c #aeb0b1",
"H2 c #b1b3b4",
"I2 c #b0b4b3",
"J2 c #bbbfbf",
"K2 c #e0e1e7",
"L2 c #0f0d14",
"M2 c #111014",
"N2 c #19181a",
"O2 c #191919",
"P2 c #181818",
"Q2 c #171919",
"R2 c #181a1a",
"S2 c #1d1d1b",
"T2 c #232323",
"U2 c #232526",
"V2 c #2b2a2c",
"W2 c #313032",
"X2 c #363636",
"Y2 c #404040",
"Z2 c #474747",
"a2 c #5c595c",
"b2 c #626262",
"c2 c #6c6c6a",
"d2 c #757573",
"e2 c #80807e",
"f2 c #868686",
"g2 c #8e8e8e",
"h2 c #979797",
"i2 c #a0a0a0",
"j2 c #a5a5a5",
"k2 c #a9a9a9",
"l2 c #acacac",
"m2 c #acaeaf",
"n2 c #adafb0",
"o2 c #afb1b1",
"p2 c #b0b2b2",
"q2 c #afb2af",
"r2 c #dcdee1",
"s2 c #2f2d34",
"t2 c #302f33",
"u2 c #2d2d2d",
"v2 c #313131",
"w2 c #323232",
"x2 c #343434",
"y2 c #353535",
"z2 c #363634",
"03 c #373735",
"13 c #393939",
"23 c #3b3b3b",
"33 c #3d3d3d",
"43 c #3f3f3f",
"53 c #414141",
"63 c #444345",
"73 c #474648",
"83 c #49484a",
"93 c #4c4c4c",
":3 c #505050",
";3 c #525250",
"A3 c #545454",
"B3 c #575658",
"C3 c #5b5a5c",
"D3 c #5d5d5d",
"E3 c #5f5f5f",
"F3 c #61615f",
"G3 c #636361",
"H3 c #656565",
"I3 c #666666",
"J3 c #6a6a6a",
"K3 c #6b6b6b",
"L3 c #6c6c6c",
"M3 c #6d6d6d",
"N3 c #707070",
"O3 c #6e6c73",
"P3 c #6d6f72",
"Q3 c #6e7073",
"R3 c #302f31",
"S3 c #c3c0c3",
"T3 c #c5c5c3",
"U3 c #c6c6c4",
"V3 c #e7e7e5",
"W3 c #e8e8e6",
"X3 c #eeedef",
"Y3 c #f2f1f5",
"Z3 c #484a4b",
"a3 c #c4c2c3",
"b3 c #c1c1c1",
"c3 c #c8c8c6",
"d3 c #cdcdcb",
"e3 c #d0d0ce",
"f3 c #d6d6d4",
"g3 c #d9d9d7",
"h3 c #d9d9d5",
"i3 c #dcdcda",
"j3 c #f1f1ef",
"k3 c #f0f2f2",
"l3 c #2e2d2f",
"m3 c #c5c2c5",
"n3 c #c4c1c4",
"o3 c #c9c9c7",
"p3 c #cacac8",
"q3 c #ccccca",
"r3 c #cececc",
"s3 c #cfcfcf",
"t3 c #d1d1cf",
"u3 c #d3d3d1",
"v3 c #d5d5d3",
"w3 c #d7d7d5",
"x3 c #dadad8",
"y3 c #e8e8e8",
"z3 c #f1f3f3",
"04 c #717374",
"14 c #c1c3c4",
"24 c #c1c3c3",
"34 c #cbcbcb",
"44 c #e4e3e5",
"54 c #e9e9e7",
"64 c #eaeae8",
"74 c #ededeb",
"84 c #efefed",
"94 c #fdfcfe",
":4 c #fdfdfd",
";4 c #fafcfd",
"A4 c #f6f8f9",
"B4 c #ecebef",
"C4 c #e6e5e9",
"D4 c #dfdde4",
"E4 c #d9d7de",
"F4 c #c3c2c6",
"G4 c #b7b5bc",
"H4 c #b3b2b6",
"I4 c #b6b5b9",
"J4 c #b7b6ba",
"K4 c #bab8bf",
"L4 c #bdbcc0",
"M4 c #c1c0c4",
"N4 c #cccbcd",
"O4 c #d4d4d4",
"P4 c #e6e5e7",
"Q4 c #f5f4f6",
"R4 c #faf9fd",
"S4 c #fefefe",
"T4 c #2f2e32",
"U4 c #000008",
"V4 c #010006",
"W4 c #010004",
"X4 c #727173",
"Y4 c #757476",
"Z4 c #323135",
"a4 c #000005",
"b4 c #9e9d9f",
"c4 c #767577",
"d4 c #333236",
"e4 c #79787a",
"f4 c #353438",
"g4 c #000007",
"h4 c #7c7b7d",
"i4 c #9b9a9e",
"j4 c #807f83",
"k4 c #39383c",
"l4 c #989a9a",
"m4 c #dfdfdd",
"n4 c #999b9e",
"o4 c #89888c",
"p4 c #3f3e42",
"q4 c #dddddb",
"r4 c #e2e2e0",
"s4 c #9b9da0",
"t4 c #979999",
"u4 c #908f93",
"v4 c #414044",
"w4 c #e1e1df",
"x4 c #dededc",
"y4 c #989a9d",
"z4 c #9c9e9e",
"05 c #464549",
"15 c #101020",
"25 c #9d9ca0",
"35 c #9e9da1",
"45 c #484749",
"55 c #a6a5a9",
"65 c #4c4b4d",
"75 c #adacb0",
"85 c #504f51",
"95 c #e0e0e0",
":5 c #b5b4b8",
";5 c #e0dfe1",
"A5 c #bebdc1",
"B5 c #58575b",
"C5 c #c5c4c8",
"D5 c #5b5a5e",
"E5 c #cdccd0",
"F5 c #5e5d61",
"G5 c #f4f4f4",
"H5 c #d5d4d6",
"I5 c #626165",
"J5 c #646365",
"K5 c #656466",
"L5 c #69686a",
"M5 c #e2e1e5",
"N5 c #9b9a9c",
"O5 c #ecebed",
"P5 c #dedde1",
"Q5 c #9c9b9d",
"R5 c #f2f2f0",
"S5 c #f3f3f1",
"T5 c #6c6b6d",
"U5 c #bebebe",
"V5 c #dddcde",
"W5 c #f4f4f2",
"X5 c #f6f5f7",
"Y5 c #6d6c6e",
"Z5 c #dedede",
"a5 c #dddddd",
"b5 c #418a61",
"c5 c #8edbae",
"d5 c #517171",
"e5 c #202051",
"f5 c #8eebbe",
"g5 c #aeaaae",
"h5 c #9a999b",
"i5 c #9e9e9e",
"j5 c #999999",
"k5 c #f9f8fa",
"l5 c #6c6e6f",
"m5 c #dfdee0",
"n5 c #dcdedf",
"o5 c #102020",
"p5 c #303041",
"q5 c #303051",
"r5 c #fffbff",
"s5 c #9d9c9e",
"t5 c #6d6f70",
"u5 c #bdbfbf",
"v5 c #e2e1e3",
"w5 c #dbdddd",
"x5 c #dfe1e1",
"y5 c #000000",
"z5 c #001000",
"06 c #100010",
"16 c #101000",
"26 c #101010",
"36 c #202020",
"46 c #9b9b9b",
"56 c #9d9d9d",
"66 c #9a9a9a",
"76 c #9c9c9c",
"86 c #fbfafe",
"96 c #6e6d6f",
":6 c #8f8f8f",
";6 c #8c8b8d",
"A6 c #858585",
"B6 c #797979",
"C6 c #59585a",
"D6 c #454446",
"E6 c #37363a",
"F6 c #282729",
"G6 c #17161a",
"H6 c #1c1b1f",
"I6 c #1d1c20",
"J6 c #1f1e22",
"K6 c #201f23",
"L6 c #1e1d21",
"M6 c #1b1a1e",
"N6 c #18171b",
"O6 c #19181c",
"P6 c #1a191d",
"Q6 c #1e1d1f",
"R6 c #252428",
"S6 c #2f2e30",
"T6 c #3c3b3f",
"U6 c #4a494b",
"V6 c #545355",
"W6 c #5e5d5f",
"X6 c #686769",
"Y6 c #6e6e6e",
"Z6 c #727272",
"a6 c #717171",
"b6 c #f4f3f5",
"c6 c #706f71",
"d6 c #bfbfbf",
"e6 c #c3c3c1",
"f6 c #c2c1c3",
"g6 c #c7c7c7",
"h6 c #c9c9c9",
"i6 c #cdcdcd",
"j6 c #d0d0d0",
"k6 c #d2d2d2",
"l6 c #d5d5d5",
"m6 c #d7d7d7",
"n6 c #d9d9d9",
"o6 c #dcdcdc",
"p6 c #e2e2e2",
"q6 c #e4e4e4",
"r6 c #e9e9e9",
"s6 c #6f6e70",
"t6 c #c0c0c0",
"u6 c #c4c4c2",
"v6 c #c2c2c0",
"w6 c #c4c4c4",
"x6 c #c6c6c6",
"y6 c #c8c8c8",
"z6 c #cacaca",
"07 c #cccccc",
"17 c #cecece",
"27 c #d1d1d1",
"37 c #d3d3d3",
"47 c #d6d6d6",
"57 c #d8d8d8",
"67 c #dfdfdf",
"77 c #e1e1e1",
"87 c #e3e3e3",
"97 c #e5e5e5",
":7 c #e6e6e6",
";7 c #e7e7e7",
"A7 c #eaeaea",
"B7 c #ebebeb",
"C7 c #ededed",
"D7 c #efefef",
"E7 c #f3f3f3",
"F7 c #f2f2f2",
"G7 c #f1f1f1",
"H7 c #fffeff",
"I7 c #706f73",
"J7 c #bebdbf",
"K7 c #c1c0c2",
"L7 c #c3c3c3",
"M7 c #c5c5c5",
"N7 c #c2c2c2",
"O7 c #c3c2c4",
"P7 c #c4c3c5",
"Q7 c #c5c4c6",
"R7 c #c7c6c8",
"S7 c #c9c8ca",
"T7 c #c8c7c9",
"U7 c #cac9cb",
"V7 c #cdccce",
"W7 c #cecdcf",
"X7 c #cfced0",
"Y7 c #d1d0d2",
"Z7 c #d2d1d3",
"a7 c #d6d5d7",
"b7 c #d8d7d9",
"c7 c #dad9db",
"d7 c #dcdbdd",
"e7 c #dedddf",
"f7 c #e1e0e2",
"g7 c #e3e2e4",
"h7 c #e5e4e6",
"i7 c #e7e6e8",
"j7 c #e8e7e9",
"k7 c #eae9eb",
"l7 c #ebeaec",
"m7 c #ececec",
"n7 c #edecee",
"o7 c #eeeeee",
"p7 c #efeef0",
"q7 c #f0f0f0",
"r7 c #f0eff1",
"s7 c #f2f1f3",
"t7 c #f1f0f2",
"u7 c #fdfcff",
"v7 c #707177",
"w7 c #707275",
"x7 c #737276",
"y7 c #747377",
"z7 c #707273",
"08 c #727477",
"18 c #737578",
"28 c #747679",
"38 c #7a797d",
"48 c #7b7a7e",
"58 c #7e7d81",
"68 c #838286",
"78 c #858488",
"88 c #88878b",
"98 c #8d8c90",
":8 c #929195",
";8 c #97969a",
"A8 c #9c9b9f",
"B8 c #a2a1a5",
"C8 c #a9a8ac",
"D8 c #afaeb2",
"E8 c #b4b3b7",
"F8 c #bbbabe",
"G8 c #c0bfc3",
"H8 c #c7c6ca",
"I8 c #cccbcf",
"J8 c #d3d2d6",
"K8 c #d9d8dc",
"L8 c #dcdbdf",
"M8 c #e0dfe3",
"N8 c #e5e4e8",
"O8 c #e9e8ec",
"P8 c #edecf0",
"Q8 c #efeef2",
"R8 c #f3f2f4",
"S8 c #f6f5f9",
"T8 c #f8f7f9",
"U8 c #f9f8fc",
"V8 c #fbfafc",
"W8 c #fcfbff",
"X8 c #fbfdff",
"Y8 c #fdffff",
"Z8 c #fefdff",
"a8 c #fffdff",
"b8 c #fbfcff",
"c8 c #fcfdff",
"c8b8a8Z8Y8Y8X8X8W8V8U8T8S8R8Q8P8O8N8M8L8K8J8I8H8G8F8E8D8C8B8A8;8:898887868584838281808z7y7x7w7v7",
"u7t7t7t7s7r7s7t7s7q7p7o7n7m7l7k7j7i7h7g7f7e7d7c7b7a7Z7Y7X7W7V7U7T7S7R7Q7P7P7P7O7P7N7M7L7K7P7J7I7",
"H7R8G7F7G7E7G7q7D7D7D7D7o7C7B7A7;7:797877767d7c757473727170707z6y6x6M7M7x6M7w6L7L7N7v6u6L7L7t6s6",
"u7R8q7F7q7q7s7R8G7q7D7o7C7m7B7A7r6;7q6p67767o6n6m6l6k627j617i6z6y6h6g6w6L7w6w6L7f6M7e6v6L7L7d6c6",
"Z8b6a6a6Z6Y6X6W6V6U6T6S6R6Q6P6O6N6M6L6K6K6J6I6H6P6O6O6M6I6J6K6L6I6N6G6P6J6F6E6D6C6X6B6A6;6:6d696",
"86R876665646363636362636262626261606z506y5y5y5y5z50616061606262626362636263636363636x5w5v567u5t5",
"V8E7665666s536r5r5r5r5y5q5q5q5p5q5q5q5p5q5q5q5p5q5q5q5p5q5q5q5p5q5q5q5p5q5p5q5q5q5o5n5x5m577u5l5",
"k5E756j5i5h536r5g5g5g5y5p5f5p5e5d5f5c5e5f5b5p5f5p5f5p5e5f5e5p5e5p5e5p5e5p5e5p5e5p536f7a577Z5d6Y5",
"X5W5665666s536r5g5g5g5y5q5q5f5p5f5q5q5q5f5c5d5f5q5c5q5q5c5q5q5q5q5q5q5q5q5q5q5q5q5o5V577Z5p6U5T5",
"b6S576j5i5h526r5g5g5g5y5p5q5f5p5f5q5c5q5f5d5c5f5q5c5p5e5c5e5p5e5p5e5p5e5p5e5p5e5p536f7a577Z5d6T5",
"t7R566i566Q526r5g5g5g5y5q5f5p5e5d5f5d5e5f5e5b5f5p5d5c5c5d5q5q5p5q5q5q5p5q5p5q5q5q526P577Z5p6d6X6",
"O5E776j5i5N526r5g5g5g5y5p5e5p5e5p5e5p5e5p5e5p5e5p5e5p5e5p5e5p5e5p5e5p5e5p5e5p5e5p526M5Z577Z5U5L5",
"i7E76656j5s5z5r5g5g5g5y5q5q5q5q5q5q5q5q5q5q5q5q5q5q5q5q5q5q5q5q5q5q5q5q5q5q5q5q5q526P577a5p6d6K5",
"f7F756j5i5h526r5g5g5g5y5p5e5p5e5p5e5p5e5p5e5p5e5p5e5p5e5p5e5p5e5p5e5p5e5p5e5p5e5p506M5Z577Z5d6J5",
"V5E7665666s526r5y5g5g5y5q5q5q5p5q5q5q5p5q5q5q5p5q5q5q5p5q5q5q5p5q5q5q5p5q5p5q5q5q5z5P577Z5p6U5I5",
"H5G5665646s526r5g5r5g5y5p5f5p5e5d5f5c5e5f5b5p5f5p5f5p5e5f5e5p5e5p5e5p5e5p5e5p5e5p506P577Z577d6F5",
"E5G7566656N516r5g5g5g5y5q5q5f5p5f5q5q5q5f5c5d5f5q5c5q5q5c5q5q5q5q5q5q5q5q5q5q5q5q5z5M8Z577Z5t6D5",
"C5E7465666s526r5g5g5g5y5p5q5f5p5f5q5c5q5f5d5c5f5q5c5p5e5c5e5p5e5p5e5p5e5p5e5p5e5p506P577Z577U5B5",
"A5E776j556Q5z5r5g5g5g5y5q5f5p5e5d5f5d5e5f5e5b5f5p5d5c5c5d5q5q5q5q5q5q5q5q5q5q5q5q526;5677767t6V6",
":5E7N5N576s5y5r5g5g5g5y5p5e5p5e5p5e5p5e5p5e5p5e5p5e5p5e5p5e5p5e5p5e5p5e5p5e5p5e5p526m5676795d685",
"75E7s5h556h526r5g5g5g5y5q5q5q5q5q5q5q5q5q5q5q5q5q5q5q5q5q5q5q5q5q5q5q5q5q5q5q5q5q526f7Z57767t665",
"55E7s5N576h526r5g5g5g5y5p5e5p5e5p5e5p5e5p5e5p5e5p5e5p5e5p5e5p5e5p5e5p5e5p5e5p5e5p536;5Z57767d645",
"35F7h5s5662515y5y5y5y5y5q5q5q5q5q5q5q5q5q5q5q5q5q5q5q5q5q5q5q5q5q5q5q5q5q5q5q5q5q526e7956777U505",
";8E77666z4y426r5r5r5r5y5p5f5p5e5d5f5c5e5f5b5p5f5p5f5p5e5f5e5p5e5p5e5p5e5p5e5p5e5p536f7x4w4x4t6v4",
"u4E7j5i5t4s436r5g5g5g5y5q5q5f5p5f5q5q5q5f5c5d5f5q5c5q5q5c5q5q5q5q5q5q5q5q5q5q5q5q5o5e7r4q4w4U5p4",
"o4F756j5z4n436r5g5g5g5y5p5q5f5p5f5q5c5q5f5d5c5f5q5c5p5e5c5e5p5e5p5e5p5e5p5e5p5e5p536;5q4r4m4U5T6",
"78E74656l4s436r5g5g5g5y5q5f5p5e5d5f5d5e5f5e5b5f5p5d5c5c5d5q5q5q5q5q5q5q5q5q5q5q5q5o5e7w4x4w4d6k4",
"j4E776j5i5i436y5y5y5y5y5p5e5p5e5p5e5p5e5p5e5p5e5p5e5p5e5p5e5p5e5p5e5p5e5p5e5p5e5p536;5a5p667U5E6",
"h4E766i5j5s5g4r5r5r5r5y5q5q5q5q5q5q5q5q5q5q5q5q5q5q5q5q5q5q5q5q5q5q5q5q5q5q5q5q5q5o5m577a577d6f4",
"e4F7s5h5i5h5g4r5g5g5g5y5p5e5p5e5p5e5p5e5p5e5p5e5p5e5p5e5p5e5p5e5p5e5p5e5p5e5p5e5p536f7a5p6Z5t6d4",
"c4E7h5b4j5b4a4r5g5g5g5y5q5q5q5p5q5q5q5p5q5q5q5p5q5q5q5p5q5q5q5p5q5q5q5p5q5p5q5q5q5o5e777Z577d6Z4",
"Y4E7s5h5i5N5a4r5g5g5g5y5p5e5p5e5p5e5p5e5p5e5p5e5p5e5p5e5p5e5p5e5p5e5p5e5p5e5p5e5p536;5Z5p6a5t6Z4",
"X4F7h5s56656W4V4a4g4U436262626261606z5y5y5y5y5y5y506z5062626262626362636263636363636m577Z5p6d6T4",
"X4G5Z8H7S4S4u7R4k5Q4t7O5P46757O4N4H8M4L4K4J4I4:5E8H4:5G4K4A5F4R7W7J8E4D4C4B4s7Q4A4;4:4:494;5U5T4",
"X4F7t7t7F7G7t7R8q784o7o7o7746454r6:744g7v5m5o6n6n64737k6X7i634z6g6g6R7Q7P7P7w6L72414N7L7P7f6t6T4",
"04z3R8p7G7G7r7r7q7D7D7D7o7C7B7A7y3;744v5f767q4x3w3v3u3t3s3r3q3p3o3h6g6Q7P7Q7w6L7w6L7w6N7n3m3d6l3",
"04k3Q8R8q7j3F7t7q7q7D7o7n7O5A7A7;7;7:7g7f767i3h3g3f3u3e317d3q3p3o3c3g6M7P7P7w6L7L7b3N7L7n3a3t6S6",
"Z3z3Y3r7F7R5q7F7q7q7D7o7X3O5B7A7W3V397g7f7m5o6x357l637k6X71707z6y6g6U3T3w6w6w6w6e6u6w6L7S3a3d6R3",
"Q3P3O3I7s6Y6N3M3M3L3K3J3L5X6I3H3G3F3E3D3C3B3A3;3:393837363534333231303z2y2x2w2v2v2u2S6S6t2T4R3s2",
"          r2z4q2p2p2p2o2n2m2l2k2j2i276h2g2f2e2d2c2b2a285Z2Y2X2W2V2U2T2S2R2Q2P2O2N2M2L2          ",
"          K2J2I2p2p2H2G2n2n2F2k2j2E256D2C2B2A2;2:292827262524232V2221202z1y1x1w1N6v1u1          ",
"            K2t1s183r1q1U6p1o1p1n1m1l1k1k1j1424232i1h1g1f1e1d1c1S2b1a1N2w1Z1N6Y1X1W1            ",
"                        0545o1V1U1m1T1p1S1R1Q1P1P1O1N1e1M1e1L1K1J1f1I1H1W4a4                    ",
"                          G1t1F173U1E1D1C1B1A1;1R6:1918171F6A1f1y5I1V4g4a4                      ",
"                              6166514131m1e1f1211101z0y5y0x0y5w0y5                              ",
"          v0u0H2t0s0r0q0p0o0n0m0l0k0h2j0i0f2h0g0Y5f0e0d0c0U1b0a0Z0Y02222Q6X0H6O6W0V0U0          ",
"        T0Y8u5S0d6R0Q0d6d6b3P0O0t6U5R0Q0N0N0M0L0M0O0U5d6U5t6u5O0U5t6O0K0Q0L0J0O0Q0M0I0H0        ",
"        G0F0E0D0V1C0U0B0A0;0:0908070U0B0t1C0U0B0H060t150t1C0U04030C020F1U060V1D020102000        "};
