/* XPM */
static char *image[] = {
"48 47 557 2",
"   c None",
"00 c #383d4d",
"10 c #2f333d",
"20 c #636672",
"30 c #80828c",
"40 c #9e9fa5",
"50 c #b0b1b4",
"60 c #bfc0c0",
"70 c #bbbbbd",
"80 c #afb0b3",
"90 c #80838c",
":0 c #636671",
";0 c #40434f",
"A0 c #31343f",
"B0 c #49516a",
"C0 c #5b6383",
"D0 c #2b2e3b",
"E0 c #777980",
"F0 c #a6a6a8",
"G0 c #d2d3d6",
"H0 c #bfc0c1",
"I0 c #a5a6a7",
"J0 c #2c303d",
"K0 c #383d51",
"L0 c #5d6586",
"M0 c #5e6788",
"N0 c #3b4156",
"O0 c #303442",
"P0 c #bebfc2",
"Q0 c #98999b",
"R0 c #5a5c64",
"S0 c #303544",
"T0 c #55575e",
"U0 c #929397",
"V0 c #cdced1",
"W0 c #8f9094",
"X0 c #484f68",
"Y0 c #41434a",
"Z0 c #eff0f1",
"a0 c #9d9d9d",
"b0 c #efeff1",
"c0 c #94969c",
"d0 c #404249",
"e0 c #616b8c",
"f0 c #343848",
"g0 c #4b4c4f",
"h0 c #b6b7bb",
"i0 c #dcdcdc",
"j0 c #646464",
"k0 c #b4b5ba",
"l0 c #323645",
"m0 c #60698a",
"n0 c #323745",
"o0 c #5a5b5e",
"p0 c #c5c6c8",
"q0 c #585858",
"r0 c #616161",
"s0 c #f7f8f8",
"t0 c #525357",
"u0 c #393d4e",
"v0 c #3f455a",
"w0 c #b6b8bd",
"x0 c #f0f0f0",
"y0 c #f6f7f8",
"z0 c #b0b1b6",
"01 c #41434b",
"11 c #41485e",
"21 c #474d66",
"31 c #41444f",
"41 c #f4f4f5",
"51 c #9a9ca2",
"61 c #3c3f49",
"71 c #5e6889",
"81 c #313645",
"91 c #7d7f84",
":1 c #242424",
";1 c #909090",
"A1 c #eeeef0",
"B1 c #73757a",
"C1 c #3c4257",
"D1 c #c7c8cc",
"E1 c #494949",
"F1 c #929292",
"G1 c #262626",
"H1 c #f3f3f3",
"I1 c #c2c3c7",
"J1 c #363b4f",
"K1 c #5d5f67",
"L1 c #d1d2d5",
"M1 c #595959",
"N1 c #8b8b8b",
"O1 c #d5d5d5",
"P1 c #575757",
"Q1 c #5c5e66",
"R1 c #3a3f54",
"S1 c #2c303c",
"T1 c #999a9c",
"U1 c #fbfbfc",
"V1 c #aaaaaa",
"W1 c #dadada",
"X1 c #9a9b9d",
"Y1 c #494c59",
"Z1 c #b1b1b1",
"a1 c #4d4d4d",
"b1 c #aeaeae",
"c1 c #c0c1c4",
"d1 c #454855",
"e1 c #4c536d",
"f1 c #77797f",
"g1 c #e2e3e6",
"h1 c #636363",
"i1 c #888888",
"j1 c #e7e7e7",
"k1 c #787878",
"l1 c #858585",
"m1 c #6f7178",
"n1 c #393e50",
"o1 c #4b526c",
"p1 c #c0c1c2",
"q1 c #989898",
"r1 c #bababa",
"s1 c #9e9e9e",
"t1 c #a3a3a3",
"u1 c #b9b9bb",
"v1 c #3f434f",
"w1 c #4d546e",
"x1 c #353a4b",
"y1 c #e4e4e4",
"z1 c #7e7e7e",
"02 c #707070",
"12 c #797979",
"22 c #868686",
"32 c #d0d1d4",
"42 c #60636f",
"52 c #363b4d",
"62 c #2a2d39",
"72 c #6c6c6c",
"82 c #f8f8f8",
"92 c #a9a9a9",
":2 c #c2c2c2",
";2 c #797c85",
"A2 c #282c38",
"B2 c #1b1c1f",
"C2 c #5e5e5e",
"D2 c #d2d2d2",
"E2 c #8c8c8c",
"F2 c #ebebeb",
"G2 c #848484",
"H2 c #cecece",
"I2 c #5b5b5b",
"J2 c #ababab",
"K2 c #a7a8ac",
"L2 c #18191d",
"M2 c #18191a",
"N2 c #dedede",
"O2 c #505050",
"P2 c #9f9f9f",
"Q2 c #151617",
"R2 c #171819",
"S2 c #535353",
"T2 c #555555",
"U2 c #969696",
"V2 c #afb1b9",
"W2 c #dddddc",
"X2 c #8a8a8a",
"Y2 c #4b4b4b",
"Z2 c #999999",
"a2 c #fdfefe",
"b2 c #b6b7b8",
"c2 c #141415",
"d2 c #19191b",
"e2 c #fdfdfe",
"f2 c #565656",
"g2 c #939393",
"h2 c #e5edf8",
"i2 c #4a506e",
"j2 c #b8b8b7",
"k2 c #a0a0a0",
"l2 c #fcfdfd",
"m2 c #b1b1b3",
"n2 c #151517",
"o2 c #21232a",
"p2 c #f3f3f5",
"q2 c #656565",
"r2 c #c5c5c5",
"s2 c #898989",
"t2 c #7f7f7f",
"u2 c #eef5fb",
"v2 c #aeccee",
"w2 c #6189ed",
"x2 c #3c4375",
"y2 c #bcbbb9",
"z2 c #d1d1d1",
"03 c #7c7c7c",
"13 c #f1f2f4",
"23 c #95979d",
"33 c #1f2127",
"43 c #2b2e3a",
"53 c #e3e4e6",
"63 c #adadad",
"73 c #bbbbbb",
"83 c #686868",
"93 c #ecf4fa",
":3 c #aacbec",
";3 c #6797e5",
"A3 c #2951f4",
"B3 c #a5a5a5",
"C3 c #a8a8a8",
"D3 c #6f6f6f",
"E3 c #c3c3c3",
"F3 c #dfe0e3",
"G3 c #797b85",
"H3 c #292c38",
"I3 c #353a4c",
"J3 c #d3d4d7",
"K3 c #e6e6e6",
"L3 c #676767",
"M3 c #accceb",
"N3 c #639cde",
"O3 c #3b67ef",
"P3 c #1b3efa",
"Q3 c #f4f4f4",
"R3 c #7d7d7d",
"S3 c #767676",
"T3 c #e3e3e3",
"U3 c #5e616d",
"V3 c #363b4e",
"W3 c #646e91",
"X3 c #a4a5a6",
"Y3 c #5f5f5f",
"Z3 c #b8b8b8",
"a3 c #fafafa",
"b3 c #dddddd",
"c3 c #696969",
"d3 c #e5e5e4",
"e3 c #eef4fc",
"f3 c #b4d0ee",
"g3 c #4c89de",
"h3 c #2e57f5",
"i3 c #1537ff",
"j3 c #1032fb",
"k3 c #e2e2e2",
"l3 c #6d6d6d",
"m3 c #747474",
"n3 c #fbfcfd",
"o3 c #9a9a9b",
"p3 c #303440",
"q3 c #687295",
"r3 c #74767d",
"s3 c #e0e1e4",
"t3 c #eaeaea",
"u3 c #5d5d5c",
"v3 c #6f7275",
"w3 c #9eb9d5",
"x3 c #63a0de",
"y3 c #4271ec",
"z3 c #1c3ffc",
"04 c #1032ff",
"14 c #7b7b7b",
"24 c #626262",
"34 c #c1c1c1",
"44 c #e1e1e1",
"54 c #dedfe2",
"64 c #6c6e76",
"74 c #3a3f51",
"84 c #464a56",
"94 c #b4b4b4",
":4 c #4f4f4f",
";4 c #b9b9b9",
"A4 c #a3a7ad",
"B4 c #3e4650",
"C4 c #3e5871",
"D4 c #4e88c3",
"E4 c #294efa",
"F4 c #1334ff",
"G4 c #b3b3b3",
"H4 c #b6b6b6",
"I4 c #434754",
"J4 c #4d546f",
"K4 c #2c2f3c",
"L4 c #98989b",
"M4 c #fafafb",
"N4 c #e0e0e0",
"O4 c #808080",
"P4 c #6b6b6a",
"Q4 c #a7c5e7",
"R4 c #3d6895",
"S4 c #193550",
"T4 c #2b435f",
"U4 c #2141f6",
"V4 c #1032fd",
"W4 c #f6f6f6",
"X4 c #b7b7b7",
"Y4 c #6a6a6a",
"Z4 c #afafaf",
"a4 c #d9d9d9",
"b4 c #666666",
"c4 c #2c303e",
"d4 c #626c8f",
"e4 c #5d6686",
"f4 c #313543",
"g4 c #8e8f93",
"h4 c #f2f2f4",
"i4 c #f9fafd",
"j4 c #d1e3f6",
"k4 c #92b8de",
"l4 c #38618c",
"m4 c #7b8084",
"n4 c #d0d9e2",
"o4 c #abccef",
"p4 c #3e89d4",
"q4 c #4991d7",
"r4 c #477edf",
"s4 c #2949d8",
"t4 c #081770",
"u4 c #111f6f",
"v4 c #1d2b7e",
"w4 c #1d2d84",
"x4 c #24273f",
"y4 c #656463",
"z4 c #858584",
"05 c #a1a1a1",
"15 c #9a9a9a",
"25 c #a6a6a6",
"35 c #f2f3f4",
"45 c #5f688a",
"55 c #56585f",
"65 c #c4c6c9",
"75 c #c1d8f0",
"85 c #7bade2",
"95 c #468ed8",
":5 c #3c82c9",
";5 c #0f181f",
"A5 c #657686",
"B5 c #639ad5",
"C5 c #428cd3",
"D5 c #4e8ddc",
"E5 c #3f6af1",
"F5 c #1436ff",
"G5 c #0f2fe6",
"H5 c #0d25b9",
"I5 c #081a87",
"J5 c #06146a",
"K5 c #111320",
"L5 c #424241",
"M5 c #6b6b6b",
"N5 c #bcbcbc",
"O5 c #e8e8e8",
"P5 c #4a4a4a",
"Q5 c #8e8e8e",
"R5 c #f1f1f1",
"S5 c #c1c2c6",
"T5 c #3d4358",
"U5 c #616a8c",
"V5 c #323646",
"W5 c #70777f",
"X5 c #5c9bdc",
"Y5 c #438bd6",
"Z5 c #428dd8",
"a5 c #1c3958",
"b5 c #1d2e3f",
"c5 c #325b87",
"d5 c #4f94df",
"e5 c #4274ea",
"f5 c #1e42fc",
"g5 c #1233ff",
"h5 c #1134fe",
"i5 c #1234fd",
"j5 c #1031f8",
"k5 c #3e4672",
"l5 c #babab7",
"m5 c #f9f9f9",
"n5 c #fefefe",
"o5 c #ececec",
"p5 c #727272",
"q5 c #e9e9e9",
"r5 c #ededef",
"s5 c #49506a",
"t5 c #333e4d",
"u5 c #458ad1",
"v5 c #418bd6",
"w5 c #428bd6",
"x5 c #3c7dc2",
"y5 c #244d77",
"z5 c #1c344c",
"06 c #497ac3",
"16 c #395def",
"26 c #1336ff",
"36 c #1033ff",
"46 c #1133fc",
"56 c #3f4775",
"66 c #bebebb",
"76 c #fefefd",
"86 c #d8d8d8",
"96 c #8d8d8d",
":6 c #5a5a5a",
";6 c #ededed",
"A6 c #95969c",
"B6 c #3b3e4a",
"C6 c #667194",
"D6 c #223447",
"E6 c #4277ac",
"F6 c #448bd5",
"G6 c #428cd6",
"H6 c #4d8bd2",
"I6 c #081882",
"J6 c #081250",
"K6 c #142171",
"L6 c #2338b7",
"M6 c #1232ef",
"N6 c #1435f8",
"O6 c #1535fc",
"P6 c #1234fb",
"Q6 c #3f4776",
"R6 c #bdbdba",
"S6 c #fcfcfc",
"T6 c #f7f7f7",
"U6 c #eeeeee",
"V6 c #dfdfdf",
"W6 c #b5b5b5",
"X6 c #525252",
"Y6 c #828282",
"Z6 c #cacaca",
"a6 c #f5f5f5",
"b6 c #bdbec1",
"c6 c #4a4b51",
"d6 c #3b4054",
"e6 c #6a7599",
"f6 c #32394b",
"g6 c #233950",
"h6 c #4075ad",
"i6 c #438ad2",
"j6 c #428bd5",
"k6 c #468ed6",
"l6 c #4378e9",
"m6 c #0e2ce4",
"n6 c #0c25bb",
"o6 c #0d1d85",
"p6 c #0d185c",
"q6 c #14227a",
"r6 c #2337a9",
"s6 c #2339c2",
"t6 c #1c35cd",
"u6 c #3c426c",
"v6 c #a3a2a1",
"w6 c #cececd",
"x6 c #a7a7a7",
"y6 c #777777",
"z6 c #515151",
"07 c #5d5d5d",
"17 c #bdbdbd",
"27 c #e5e5e5",
"37 c #fbfbfb",
"47 c #f5f5f6",
"57 c #4e4f53",
"67 c #373c4c",
"77 c #636c8e",
"87 c #5e688a",
"97 c #303849",
":7 c #23354b",
";7 c #4372a4",
"A7 c #438dd8",
"B7 c #538de1",
"C7 c #345cf5",
"D7 c #1233fd",
"E7 c #102ce0",
"F7 c #0c26bf",
"G7 c #0e1f85",
"H7 c #121f6e",
"I7 c #0f1b63",
"J7 c #0c1659",
"K7 c #12131f",
"L7 c #3b3b3a",
"M7 c #5b5b59",
"N7 c #6e6e6e",
"O7 c #878787",
"P7 c #a4a4a4",
"Q7 c #c0c0c0",
"R7 c #fdfdfd",
"S7 c #f1f1f3",
"T7 c #acadb2",
"U7 c #3a3f50",
"V7 c #42475e",
"W7 c #354d71",
"X7 c #2745c7",
"Y7 c #1536f9",
"Z7 c #1235ff",
"a7 c #404877",
"b7 c #c1c1be",
"c7 c #f3f4f5",
"d7 c #707176",
"e7 c #3b3e49",
"f7 c #424960",
"g7 c #31374d",
"h7 c #1f2861",
"i7 c #182a92",
"j7 c #1537fd",
"k7 c #1234ff",
"l7 c #1133fb",
"m7 c #fdfcfc",
"n7 c #f8f8f9",
"o7 c #c6c7ca",
"p7 c #86878b",
"q7 c #363b4c",
"r7 c #4c546e",
"s7 c #60698b",
"t7 c #3c4358",
"u7 c #2c3144",
"v7 c #152aa3",
"w7 c #1b33c8",
"x7 c #1938e9",
"y7 c #1335ff",
"z7 c #1134ff",
"08 c #1133ff",
"18 c #1032fc",
"28 c #3e4674",
"38 c #bcbcb9",
"48 c #fefdfd",
"58 c #ffffff",
"68 c #fcfcfd",
"78 c #bfc0c3",
"88 c #999a9d",
"98 c #595c64",
":8 c #2e3240",
";8 c #616b8d",
"A8 c #5d6787",
"B8 c #2a2f3f",
"C8 c #2f375b",
"D8 c #202d80",
"E8 c #0e23a3",
"F8 c #1d38d7",
"G8 c #1e3ce9",
"H8 c #1d3dfa",
"I8 c #193afe",
"J8 c #424979",
"K8 c #bebfbc",
"L8 c #fafbfc",
"M8 c #e1e2e5",
"N8 c #cfd0d3",
"O8 c #b8b9ba",
"P8 c #9a9b9c",
"Q8 c #434753",
"R8 c #2c313e",
"S8 c #3b4256",
"T8 c #5f698a",
"U8 c #677295",
"V8 c #353a4e",
"W8 c #252939",
"X8 c #161928",
"Y8 c #0c0f1e",
"Z8 c #040508",
"a8 c #0f1011",
"b8 c #191a1d",
"c8 c #292c39",
"d8 c #363c4e",
"e8 c #4e5570",
"f8 c #687296",
"                                                                                                ",
"                                                                                                ",
"                                                                                                ",
"                                      f8e8d8c8b8a8Z8Y8X8W8V8U8                                  ",
"                              T8S8R8Q8P8O8N8M8L8K8J8I8H8G8F8E8D8C8B8A8                          ",
"                            ;8:898887868585858483828180808z7y7x7w7v7u7t7s7                      ",
"                          r7q7p7o7n75858585858m73828l7k7k7k7k7k7k7j7i7h7g7                      ",
"                        f7e7d7c75858585858585858b7a7z7Z7Z7k7k7k7k7k7Y7X7W7V7f8                  ",
"                    ;8U7T7S758585858R7Q7P7O7N7M7L7K7J7I7H7G7F7E7D7Z7C7B7A7;7:79787              ",
"                  7767574758585837271707z6y6x6w6v6u6t6s6r6q6p6o6n6m6l6k6j6i6h6g6f6              ",
"                e6d6c6b6585858a6Z6Y6X6W6V6U6T6S6R6Q6P6O6N6M6L6K6J6I6H6G6j6G6F6E6D6C6            ",
"                B6A6S7585858;6:69686a65858585876665646k7k7k736261606z5y5x5w5j6v5u5t5s5          ",
"              ;8d7r5585858q5p5Y6o558585858n5R7m5l5k5j546i5h5g5f5e5d5c5b5a5Z5j6Y5X5W5V5U5        ",
"              T5S5585858R5Q5P52758585858R7O5N5M5L5K5J5I5H5G5F5E5D5C5B5A5;5:59585756555T5        ",
"            45:83558585825071558585858V605p5N7z4y4x4w4v4u4t4s4r4q4p4o4n4m4l4k4j4i4h4g4f4e4      ",
"          d4c48858585827b4a4585858m5Z4Y4X4W458n53828V408k7U4T4S4R4Q4585858P4O4N45858M4L4K4      ",
"          J4I478585837N5H4a65858T6G4:6V6n55858m73828l708F4E4D4C4B4A4585858;4:494S658587884      ",
"          746454585844O7O5585837342414n5585858m73828l704z3y3x3w3v3u3375858t3M5Y6N45858s3r3      ",
"        q3p3o3n35858Q707m55858N4m3l3k358585858m73828j3i3h3g3f3e3d3c3b35858a3Z3Y3X45858n3X3W3    ",
"        V3U3N85858T3O7S3585858p5R3Q35858585858m73828P3O3N3M3585858a6L3K35858R5R3O4585858J3I3    ",
"        H3G3F35858E3D3C35858R7N7B3585858585858m73828A3;3:393585858588373R758m563l35858585343    ",
"        3323135858G424Q75858S603z2585858585858m7y2x2w2v2u25858585858t2s2m558S6r2q2585858p2o2    ",
"        n2m2l25858k2z6b3585837s2m5585858585858S6j2i2h258585858585858g207T6585844f2585858e2d2    ",
"        c2b2a25858Z2Y2K35858a3X258585858585858R7W2V27658585858585858U2T2W45858q5S2585858a2R2    ",
"        Q2m2e25858P2O2N2585837s2m55858585858585858585858585858585858g207T65858k3f2585858e2M2    ",
"        L2K2L85858J2I2H2585837G2F25858585858585858585858585858585858E2l3T658n5D2C2585858L8B2    ",
"        A2;2s35858:2N7925858R7D3255858585858585858585858585858585858Y4;4R75882Z4725858585362    ",
"        52423258584422125858n502z1W4585858585858585858585858585858T6b4y15858R5O4z1585858J3x1    ",
"        w1v1u15858S6t1X6585858s1L3r1n5585858585858585858585858585873U237585827:6q1585858p1o1    ",
"          n1m1M85858N4l1q55858a317:6k1585858585858585858585858j1i1h1m55858t302O4N25858g1f1      ",
"          e1d1c15858377373T658588292f2j158585858585858585858j1z1X6b158585817a1Z1375858c1Y1      ",
"          77c4X158585827L3W15858588294Y4H4T658585858585858m5Y4I2V1T6585858M5t2N45858U1T1S1      ",
"            R1Q1585858m5P1g2;6585858a6N7M5s263t3T6n5F2O1Z4N172H4W4585858;6M1r2825858L1K1J1      ",
"              S8I1585858H1E2G1H158585858S6K373N7C2T2N7i1;4y158585858o5F1E1U6585858D155C1        ",
"              T8B1A1585858t3c3k2o55858585858R7T6W4W4T6m5S65858585858;1:12458585858918171        ",
"                6151c7n558n5K3I2g2V6W458585858585858585858585858T6N4P1G2K3585858413121          ",
"                1101z0y0585858t1M1M5;4a358585858585858585858a3F217M5s1x0585858n7w0v0            ",
"                  U5u0t0s0585858a3V6G4r0q0R363D244t3D2r2Z4O4C2O4Z1V6585858n7p0o0n0              ",
"                    m0l0k03558585858n5Z3q1O4N7C2P1S2C2j0l3t2H4i0n558585858h0g0f0e4              ",
"                      e0d0c0b05858585858R7k3r263t1a063W6E344585858585858Z0Y0V3e0                ",
"                          X0V5W0V0U1585858585858585858585858585858U1U0T0S0                      ",
"                            T8f4R0Q0P0685858585858585858585868g178T1O0N0M0                      ",
"                              L0K0J084I0H0G053U1e2a2n3p2g1J3F0E0Y1D0C0                          ",
"                                  m0B0A0;0:090807060504030201000X045                            ",
"                                                                                                ",
"                                                                                                ",
"                                                                                                "};
