<?xml version="1.0" encoding="UTF-8" standalone="no"?>
<svg
   width="48"
   height="48"
   version="1"
   id="svg22472"
   sodipodi:docname="folder-favorites.svg"
   inkscape:version="1.2.2 (b0a8486541, 2022-12-01)"
   xmlns:inkscape="http://www.inkscape.org/namespaces/inkscape"
   xmlns:sodipodi="http://sodipodi.sourceforge.net/DTD/sodipodi-0.dtd"
   xmlns="http://www.w3.org/2000/svg"
   xmlns:svg="http://www.w3.org/2000/svg">
  <defs
     id="defs22476" />
  <sodipodi:namedview
     id="namedview22474"
     pagecolor="#505050"
     bordercolor="#ffffff"
     borderopacity="1"
     inkscape:showpageshadow="0"
     inkscape:pageopacity="0"
     inkscape:pagecheckerboard="1"
     inkscape:deskcolor="#505050"
     showgrid="false"
     inkscape:zoom="15.791667"
     inkscape:cx="21.562005"
     inkscape:cy="23.999999"
     inkscape:window-width="1645"
     inkscape:window-height="1047"
     inkscape:window-x="273"
     inkscape:window-y="0"
     inkscape:window-maximized="0"
     inkscape:current-layer="svg22472" />
  <rect
     style="opacity:0.2;stroke-width:1.0378"
     width="40"
     height="28.002485"
     x="4"
     y="14.997515"
     rx="2"
     ry="2.1540372"
     id="rect22458"
     inkscape:export-filename="TIFF/dir_Favorites.tiff"
     inkscape:export-xdpi="307.20001"
     inkscape:export-ydpi="307.20001" />
  <path
     style="fill:#8686bf;fill-opacity:1;stroke-width:1.0378"
     d="m 4,33.306832 c 0,1.193337 0.892,2.154037 2,2.154037 h 36 c 1.108,0 2,-0.9607 2,-2.154037 V 9.6124217 C 44,8.419085 43.108,7.4583844 42,7.4583844 H 24 c -3,0 -4,-4.3080746 -7,-4.3080746 H 6 c -1.108,0 -2,0.9607006 -2,2.1540373"
     id="path22460" />
  <rect
     style="opacity:0.2;stroke-width:1.0378"
     width="40"
     height="28.002485"
     x="4"
     y="12.843477"
     rx="2"
     ry="2.1540372"
     id="rect22462" />
  <rect
     style="fill:#e4e4e4;stroke-width:1.0378"
     width="36"
     height="17.232298"
     x="6"
     y="10.689441"
     rx="2"
     ry="2.1540372"
     id="rect22464" />
  <rect
     style="fill:#8686bf;fill-opacity:1;stroke-width:1.0378"
     width="40"
     height="28.002485"
     x="4"
     y="13.920496"
     rx="2"
     ry="2.1540372"
     id="rect22466" />
  <path
     style="opacity:0.1;fill:#ffffff;stroke-width:1.0378"
     d="m 6,3.1503098 c -1.108,0 -2,0.9607006 -2,2.1540373 V 6.3813657 C 4,5.1880291 4.892,4.2273284 6,4.2273284 h 11 c 3,0 4,4.3080747 7,4.3080747 h 18 c 1.108,0 2,0.9607006 2,2.1540369 V 9.6124217 C 44,8.419085 43.108,7.4583844 42,7.4583844 H 24 c -3,0 -4,-4.3080746 -7,-4.3080746 z"
     id="path22468" />
  <path
     style="fill:#3a3a55;fill-opacity:1;stroke-width:1.04819"
     d="M 24.160978,19.30559 21.999339,25.1398 16,25.475829 l 4.663999,3.942966 -1.546505,6.042074 5.043484,-3.396916 5.043485,3.396916 -1.546506,-6.042074 4.663999,-3.942966 -5.999339,-0.336029 z"
     id="path22470" />
</svg>
