<?xml version="1.0" encoding="UTF-8" standalone="no"?>
<svg
   width="48"
   height="48"
   version="1"
   id="svg20452"
   sodipodi:docname="folder-documents.svg"
   inkscape:version="1.2.2 (b0a8486541, 2022-12-01)"
   xmlns:inkscape="http://www.inkscape.org/namespaces/inkscape"
   xmlns:sodipodi="http://sodipodi.sourceforge.net/DTD/sodipodi-0.dtd"
   xmlns="http://www.w3.org/2000/svg"
   xmlns:svg="http://www.w3.org/2000/svg">
  <defs
     id="defs20456" />
  <sodipodi:namedview
     id="namedview20454"
     pagecolor="#505050"
     bordercolor="#ffffff"
     borderopacity="1"
     inkscape:showpageshadow="0"
     inkscape:pageopacity="0"
     inkscape:pagecheckerboard="1"
     inkscape:deskcolor="#505050"
     showgrid="false"
     inkscape:zoom="15.791667"
     inkscape:cx="21.562005"
     inkscape:cy="23.999999"
     inkscape:window-width="1645"
     inkscape:window-height="1047"
     inkscape:window-x="273"
     inkscape:window-y="0"
     inkscape:window-maximized="0"
     inkscape:current-layer="svg20452" />
  <rect
     style="opacity:0.2;stroke-width:1.03861"
     width="40"
     height="28.046673"
     x="4"
     y="14.953327"
     rx="2"
     ry="2.1574364"
     id="rect20438"
     inkscape:export-filename="TIFF/common_DocsFolder.tiff"
     inkscape:export-xdpi="307.20001"
     inkscape:export-ydpi="307.20001" />
  <path
     style="fill:#8686bf;fill-opacity:1;stroke-width:1.03861"
     d="m 4,33.291536 c 0,1.19522 0.892,2.157437 2,2.157437 h 36 c 1.108,0 2,-0.962217 2,-2.157437 V 9.5597361 C 44,8.3645163 43.108,7.4022997 42,7.4022997 H 24 c -3,0 -4,-4.3148728 -7,-4.3148728 H 6 c -1.108,0 -2,0.9622166 -2,2.1574364"
     id="path20440" />
  <rect
     style="opacity:0.2;stroke-width:1.03861"
     width="40"
     height="28.046673"
     x="4"
     y="12.795891"
     rx="2"
     ry="2.1574364"
     id="rect20442" />
  <rect
     style="fill:#e4e4e4;stroke-width:1.03861"
     width="36"
     height="17.259491"
     x="6"
     y="10.638454"
     rx="2"
     ry="2.1574364"
     id="rect20444" />
  <rect
     style="fill:#8686bf;fill-opacity:1;stroke-width:1.03861"
     width="40"
     height="28.046673"
     x="4"
     y="13.874609"
     rx="2"
     ry="2.1574364"
     id="rect20446" />
  <path
     style="opacity:0.1;fill:#ffffff;stroke-width:1.03861"
     d="m 6,3.0874269 c -1.108,0 -2,0.9622166 -2,2.1574364 V 6.3235815 C 4,5.1283617 4.892,4.1661451 6,4.1661451 h 11 c 3,0 4,4.3148728 7,4.3148728 h 18 c 1.108,0 2,0.9622166 2,2.1574361 V 9.5597361 C 44,8.3645163 43.108,7.4022997 42,7.4022997 H 24 c -3,0 -4,-4.3148728 -7,-4.3148728 z"
     id="path20448" />
  <path
     style="fill:#3a3a55;fill-opacity:1;stroke-width:1.15643"
     d="m 17.801305,20.346918 c -0.686815,0 -1.239739,0.481108 -1.239739,1.078718 v 12.944619 c 0,0.59761 0.552924,1.078718 1.239739,1.078718 h 12.39739 c 0.686815,0 1.239739,-0.481108 1.239739,-1.078718 v -9.708464 l -4.958956,-4.314873 z"
     id="path20450" />
</svg>
