<?xml version="1.0" encoding="UTF-8" standalone="no"?>
<svg
   width="48"
   height="48"
   version="1"
   id="svg36576"
   sodipodi:docname="folder-templates.svg"
   inkscape:version="1.2.2 (b0a8486541, 2022-12-01)"
   xmlns:inkscape="http://www.inkscape.org/namespaces/inkscape"
   xmlns:sodipodi="http://sodipodi.sourceforge.net/DTD/sodipodi-0.dtd"
   xmlns="http://www.w3.org/2000/svg"
   xmlns:svg="http://www.w3.org/2000/svg">
  <defs
     id="defs36580" />
  <sodipodi:namedview
     id="namedview36578"
     pagecolor="#505050"
     bordercolor="#ffffff"
     borderopacity="1"
     inkscape:showpageshadow="0"
     inkscape:pageopacity="0"
     inkscape:pagecheckerboard="1"
     inkscape:deskcolor="#505050"
     showgrid="false"
     inkscape:zoom="15.791667"
     inkscape:cx="21.562005"
     inkscape:cy="23.999999"
     inkscape:window-width="1645"
     inkscape:window-height="1047"
     inkscape:window-x="273"
     inkscape:window-y="0"
     inkscape:window-maximized="0"
     inkscape:current-layer="svg36576" />
  <rect
     style="opacity:0.2;stroke-width:1.03997"
     width="40"
     height="28.119797"
     x="4"
     y="14.880204"
     rx="2"
     ry="2.1630611"
     id="rect36562"
     inkscape:export-filename="TIFF/common_Samples.tiff"
     inkscape:export-xdpi="307.20001"
     inkscape:export-ydpi="307.20001" />
  <path
     style="fill:#8686bf;fill-opacity:1;stroke-width:1.03997"
     d="m 4,33.266224 c 0,1.198336 0.892,2.163062 2,2.163062 h 36 c 1.108,0 2,-0.964726 2,-2.163062 V 9.4725506 C 44,8.2742147 43.108,7.3094894 42,7.3094894 H 24 c -3,0 -4,-4.3261225 -7,-4.3261225 H 6 c -1.108,0 -2,0.9647253 -2,2.1630612"
     id="path36564" />
  <rect
     style="opacity:0.2;stroke-width:1.03997"
     width="40"
     height="28.119797"
     x="4"
     y="12.717142"
     rx="2"
     ry="2.1630611"
     id="rect36566" />
  <rect
     style="fill:#e4e4e4;stroke-width:1.03997"
     width="36"
     height="17.304489"
     x="6"
     y="10.554081"
     rx="2"
     ry="2.1630611"
     id="rect36568" />
  <rect
     style="fill:#8686bf;fill-opacity:1;stroke-width:1.03997"
     width="40"
     height="28.119797"
     x="4"
     y="13.798673"
     rx="2"
     ry="2.1630611"
     id="rect36570" />
  <path
     style="opacity:0.1;fill:#ffffff;stroke-width:1.03997"
     d="m 6,2.9833669 c -1.108,0 -2,0.9647253 -2,2.1630612 V 6.2279587 C 4,5.0296228 4.892,4.0648975 6,4.0648975 h 11 c 3,0 4,4.3261225 7,4.3261225 h 18 c 1.108,0 2,0.9647253 2,2.163061 V 9.4725506 C 44,8.2742147 43.108,7.3094894 42,7.3094894 H 24 c -3,0 -4,-4.3261225 -7,-4.3261225 z"
     id="path36572" />
  <path
     style="fill:#3a3a55;fill-opacity:1;stroke-width:1.20614"
     d="m 17.274525,19.747092 c -0.745183,0 -1.345095,0.482363 -1.345095,1.08153 v 9.733776 h 1.345095 v -1.081531 h 1.345095 v -7.570714 h 6.725475 v 3.244592 h 4.035285 v 8.652245 1.081531 h 1.345095 V 33.80699 h 1.345095 v -9.733776 l -5.38038,-4.326122 z m 13.45095,15.141429 v 1.08153 h 1.345095 v -1.08153 z m -1.345095,0 h -1.345095 v 1.08153 h 1.345095 z m -1.345095,0 V 33.80699 H 26.69019 v 1.081531 z m -1.345095,0 h -1.345095 v 1.08153 h 1.345095 z m -1.345095,0 V 33.80699 H 24 v 1.081531 z m -1.345095,0 h -1.345095 v 1.08153 H 24 Z m -1.345095,0 V 33.80699 H 21.30981 v 1.081531 z m -1.345095,0 h -1.345095 v 1.08153 h 1.345095 z m -1.345095,0 V 33.80699 H 18.61962 v 1.081531 z m -1.345095,0 h -1.345095 v 1.08153 h 1.345095 z m -1.345095,0 V 33.80699 H 15.92943 v 1.081531 z m 0,-1.081531 h 1.345095 v -1.081531 h -1.345095 z m 0,-1.081531 v -1.08153 H 15.92943 v 1.08153 z m 0,-1.08153 h 1.345095 v -1.081531 h -1.345095 z"
     id="path36574" />
</svg>
