<?xml version="1.0" encoding="UTF-8" standalone="no"?>
<!-- Created with Inkscape (http://www.inkscape.org/) -->

<svg
   width="210mm"
   height="297mm"
   viewBox="0 0 210 297"
   version="1.1"
   id="svg5"
   sodipodi:docname="icon_pisi_TER.svg"
   inkscape:version="1.2.2 (b0a8486541, 2022-12-01)"
   xml:space="preserve"
   inkscape:export-filename="icon_pisi.tiff"
   inkscape:export-xdpi="7.740952"
   inkscape:export-ydpi="7.740952"
   xmlns:inkscape="http://www.inkscape.org/namespaces/inkscape"
   xmlns:sodipodi="http://sodipodi.sourceforge.net/DTD/sodipodi-0.dtd"
   xmlns:xlink="http://www.w3.org/1999/xlink"
   xmlns="http://www.w3.org/2000/svg"
   xmlns:svg="http://www.w3.org/2000/svg"
   xmlns:i="http://ns.adobe.com/AdobeIllustrator/10.0/"><sodipodi:namedview
     id="namedview7"
     pagecolor="#ffffff"
     bordercolor="#000000"
     borderopacity="0.25"
     inkscape:showpageshadow="2"
     inkscape:pageopacity="0.0"
     inkscape:pagecheckerboard="0"
     inkscape:deskcolor="#d1d1d1"
     inkscape:document-units="mm"
     showgrid="true"
     inkscape:zoom="0.73406285"
     inkscape:cx="-43.592998"
     inkscape:cy="506.08746"
     inkscape:window-width="1639"
     inkscape:window-height="1048"
     inkscape:window-x="0"
     inkscape:window-y="0"
     inkscape:window-maximized="0"
     inkscape:current-layer="svg5"><inkscape:grid
       type="xygrid"
       id="grid733" /></sodipodi:namedview><defs
     id="defs2"><rect
       x="547.13258"
       y="460.98185"
       width="130.74673"
       height="77.63797"
       id="rect1323" /><inkscape:perspective
       sodipodi:type="inkscape:persp3d"
       inkscape:vp_x="866.702 : -20.559663 : 1"
       inkscape:vp_y="0 : -6567.402 : 0"
       inkscape:vp_z="363.77788 : 433.99293 : 1"
       inkscape:persp3d-origin="-1033.0095 : 2133.3053 : 1"
       id="perspective165" /><filter
       inkscape:label="Inset"
       inkscape:menu="Shadows and Glows"
       inkscape:menu-tooltip="Shadowy outer bevel"
       style="color-interpolation-filters:sRGB;"
       id="filter1218"
       x="-0.38551229"
       y="-0.32447728"
       width="1.7710246"
       height="1.6489546"><feMorphology
         result="result1"
         in="SourceAlpha"
         operator="dilate"
         radius="3.6"
         id="feMorphology1206" /><feGaussianBlur
         stdDeviation="3.6"
         in="result1"
         result="result0"
         id="feGaussianBlur1208" /><feDiffuseLighting
         surfaceScale="-5"
         id="feDiffuseLighting1212"><feDistantLight
           elevation="45"
           azimuth="225"
           id="feDistantLight1210" /></feDiffuseLighting><feComposite
         in2="result0"
         operator="in"
         result="result91"
         id="feComposite1214" /><feComposite
         in="SourceGraphic"
         in2="result91"
         id="feComposite1216" /></filter><rect
       x="11.417744"
       y="270.91282"
       width="347.04813"
       height="90.018619"
       id="rect28450" /><rect
       x="-366.89584"
       y="140.67661"
       width="451.08523"
       height="185.61756"
       id="rect18881" /><radialGradient
       xlink:href="#linearGradient3704"
       id="radialGradient3706"
       cx="2007.3448"
       cy="1737.1503"
       fx="2007.3448"
       fy="1737.1503"
       r="960"
       gradientTransform="matrix(0.00191417,-0.35381647,0.63230921,0.00342084,-812.33583,1044.758)"
       gradientUnits="userSpaceOnUse" /><linearGradient
       id="linearGradient3704"><stop
         style="stop-color:#26475b;stop-opacity:0;"
         offset="0.69804424"
         id="stop3702" /><stop
         style="stop-color:#26475b;stop-opacity:1;"
         offset="1"
         id="stop3700" /></linearGradient><radialGradient
       xlink:href="#linearGradient3714"
       id="radialGradient3716"
       cx="-55.602444"
       cy="1782.1582"
       fx="-55.602444"
       fy="1782.1582"
       r="960.29187"
       gradientTransform="matrix(0.5448247,0.00718471,-0.00342953,0.2600655,-239.58877,-185.30849)"
       gradientUnits="userSpaceOnUse" /><linearGradient
       id="linearGradient3714"><stop
         style="stop-color:#264d64;stop-opacity:0;"
         offset="0.52651834"
         id="stop3712" /><stop
         style="stop-color:#264d64;stop-opacity:1;"
         offset="1"
         id="stop3710" /></linearGradient><radialGradient
       xlink:href="#linearGradient3724"
       id="radialGradient3726"
       cx="1903.3966"
       cy="1837.443"
       fx="1903.3966"
       fy="1837.443"
       r="905.96039"
       gradientTransform="matrix(1.1064066e-4,-0.26458331,0.51778643,2.1652248e-4,-668.2075,773.25416)"
       gradientUnits="userSpaceOnUse" /><linearGradient
       id="linearGradient3724"><stop
         style="stop-color:#26536e;stop-opacity:0;"
         offset="0.72692394"
         id="stop3722" /><stop
         style="stop-color:#26536e;stop-opacity:1;"
         offset="1"
         id="stop3720" /></linearGradient><filter
       inkscape:collect="always"
       style="color-interpolation-filters:sRGB"
       id="filter1456"
       x="-0.093179963"
       y="-0.4653098"
       width="1.1964859"
       height="1.9662762"><feGaussianBlur
         inkscape:collect="always"
         stdDeviation="2.0938661"
         id="feGaussianBlur1458" /></filter></defs><g
     inkscape:groupmode="layer"
     id="layer1"
     inkscape:label="Ombre" /><text
     xml:space="preserve"
     transform="scale(0.26458333)"
     id="text1321"
     style="font-style:normal;font-variant:normal;font-weight:normal;font-stretch:normal;font-size:85.3333px;font-family:'PT Sans Caption';-inkscape-font-specification:'PT Sans Caption';white-space:pre;shape-inside:url(#rect1323);display:inline;fill:#ffff00"><tspan
       x="547.13281"
       y="614.11911"
       id="tspan915"><tspan
         style="font-size:64px;fill:#ff00ff"
         id="tspan913">P</tspan></tspan></text><g
     id="g1607"
     inkscape:export-filename="./PISI_48.tiff"
     inkscape:export-xdpi="44.472614"
     inkscape:export-ydpi="44.472614"
     transform="matrix(1.0004521,0,0,0.99250664,-0.04768334,0.56658101)"><g
       id="g1164"
       transform="matrix(1.0038607,0,0,0.92899666,28.269966,-84.921484)"><path
         style="fill:#333333;stroke:none;stroke-width:0.360437"
         d="m 81.797572,219.54913 0.0932,-19.91006 12.254846,-7.71064 c 6.740172,-4.24086 12.538702,-7.87125 12.885622,-8.06755 0.59717,-0.33788 0.63004,0.60833 0.61727,17.76774 l -0.0135,18.12464 -12.652112,9.73179 c -6.95866,5.35249 -12.793036,9.78633 -12.965296,9.85297 -0.17566,0.068 -0.27227,-8.62175 -0.22001,-19.78889 z"
         id="path757" /><path
         style="fill:#666666;stroke:none;stroke-width:0.360437"
         d="m 79.206716,239.06645 c -1.060887,-0.3518 -8.684649,-2.66522 -11.533981,-3.49997 -1.090322,-0.31942 -2.631189,-0.7871 -3.42415,-1.03928 -0.792962,-0.25218 -3.388106,-1.04281 -5.766991,-1.75695 -2.378882,-0.71415 -5.055126,-1.52344 -5.947209,-1.79841 -0.89208,-0.27498 -3.122284,-0.95274 -4.956005,-1.50613 l -3.334041,-1.00617 v -20.98932 -20.98933 l 2.432947,0.8389 c 1.965452,0.67771 29.632578,10.47678 33.340412,11.80842 l 0.991201,0.35599 v 19.96898 c 0,15.75008 -0.09519,19.96298 -0.450546,19.94054 -0.247798,-0.0156 -0.856036,-0.16292 -1.351637,-0.32727 z"
         id="path759" /><path
         style="fill:#999999;stroke:none;stroke-width:0.360437"
         d="m 79.30323,198.14689 c -0.96334,-0.38075 -2.01762,-0.74111 -2.34284,-0.80078 -0.32521,-0.0597 -1.23458,-0.3867 -2.02081,-0.72673 -0.78623,-0.34004 -1.67831,-0.66861 -1.9824,-0.73017 -0.30409,-0.0616 -0.79619,-0.21133 -1.09355,-0.33283 -1.0083,-0.41198 -5.58677,-2.0858 -5.58677,-2.04244 0,0.0237 -0.40549,-0.10736 -0.90109,-0.29126 -3.91918,-1.45426 -4.8887,-1.80335 -5.04612,-1.81689 -0.22107,-0.019 -1.07799,-0.327 -3.42415,-1.23063 -0.9912,-0.38176 -1.80218,-0.67003 -1.80218,-0.64059 0,0.0652 -0.38651,-0.0698 -3.60437,-1.25884 -1.38769,-0.51278 -2.60416,-0.94375 -2.70328,-0.95773 -0.0991,-0.014 -0.55231,-0.16689 -1.0071,-0.3398 -0.45478,-0.17291 -1.23709,-0.41733 -1.738461,-0.54317 -0.501372,-0.12584 -0.778063,-0.35311 -0.614868,-0.50505 0.52415,-0.488 29.929299,-15.49157 30.361579,-15.49157 0.71205,0 31.38963,11.99693 31.38963,12.27539 0,0.2101 -9.223232,6.23486 -11.832002,7.72886 -0.34616,0.19824 -3.55636,2.18514 -7.13379,4.41535 -3.57741,2.2302 -6.653228,4.03832 -6.835138,4.01804 -0.18191,-0.0203 -1.11894,-0.3484 -2.08229,-0.72916 z"
         id="path899" /></g><g
       id="g1176"
       transform="matrix(0.02549446,-0.02241422,0.04116536,0.01330524,84.003477,89.242575)"
       style="stroke:none"><path
         fill="#000000"
         d="m 158.38,1.6562 c -3.6193,0.11232 -7.5172,1.4493 -11.938,4.9375 -10.83,-4.1763 -21.33,-5.6271 -30.72,2.8751 C 101.222,7.588 96.51,11.469 92.94,16 89.757,15.934 69.121,12.728 59.658,26.844 35.877,24.03 28.361,40.832 36.877,56.5 c -4.8569,7.519 -9.8895,14.947 1.4688,29.281 -4.018,7.9835 -1.5274,16.644 7.9375,27.125 -2.4979,11.223 2.4121,19.141 11.219,25.312 -1.6471,15.358 14.084,24.287 18.781,27.469 1.8037,8.9487 5.5629,17.393 23.531,22.062 2.9632,13.336 13.762,15.639 24.219,18.438 -34.562,20.09 -64.201,46.523 -64,111.38 l -5.0625,9.0312 c -39.63,24.1 -75.285,101.56 -19.53,164.52 3.6419,19.708 9.7496,33.864 15.188,49.531 8.1338,63.131 61.218,92.692 75.219,96.188 20.517,15.628 42.368,30.457 71.938,40.844 27.875,28.749 58.074,39.706 88.438,39.688 0.44515,-2.8e-4 0.89853,0.005 1.3438,0 30.364,0.0189 60.562,-10.938 88.438,-39.688 29.569,-10.387 51.421,-25.216 71.938,-40.844 14.001,-3.4959 67.085,-33.057 75.219,-96.188 5.4379,-15.667 11.546,-29.823 15.188,-49.531 55.754,-62.965 20.1,-140.43 -19.531,-164.53 l -5.07,-9.03 c 0.20067,-64.852 -29.438,-91.285 -64,-111.38 10.457,-2.7984 21.256,-5.1014 24.219,-18.438 17.968,-4.6698 21.728,-13.114 23.531,-22.062 4.6978,-3.1813 20.428,-12.111 18.781,-27.469 8.8067,-6.1716 13.717,-14.09 11.219,-25.312 9.4649,-10.481 11.956,-19.141 7.9375,-27.125 11.36,-14.328 6.32,-21.756 1.47,-29.275 8.51,-15.668 1,-32.47 -22.79,-29.656 -9.46,-14.116 -30.09,-10.91 -33.28,-10.844 -3.57,-4.531 -8.28,-8.412 -22.78,-6.5312 -9.39,-8.5022 -19.89,-7.0514 -30.72,-2.875 -12.86,-10.148 -21.37,-2.0133 -31.09,1.0624 -15.57,-5.0877 -19.13,1.881 -26.78,4.7188 -16.98,-3.5881 -22.14,4.224 -30.28,12.469 l -9.4688,-0.1875 c -25.611,15.093 -38.334,45.826 -42.844,61.625 -4.5121,-15.802 -17.206,-46.535 -42.812,-61.625 l -9.4688,0.1875 c -8.15,-8.245 -13.31,-16.057 -30.29,-12.469 -7.65,-2.8378 -11.2,-9.8065 -26.78,-4.7188 -6.3797,-2.0185 -12.247,-6.2144 -19.156,-6 z"
         id="path1128"
         style="stroke:none" /><path
         fill="#75a928"
         d="m 107.39,68.056 c 67.948,35.031 107.45,63.369 129.09,87.504 -11.082,44.418 -68.896,46.445 -90.036,45.199 4.3284,-2.0147 7.9399,-4.4278 9.2205,-8.1357 -5.3045,-3.7698 -24.113,-0.39719 -37.244,-7.7742 5.0441,-1.045 7.4035,-2.063 9.7629,-5.7854 -12.406,-3.9567 -25.769,-7.3664 -33.628,-13.921 4.2413,0.0524 8.2012,0.9488 13.74,-2.8927 -11.112,-5.9882 -22.969,-10.734 -32.181,-19.887 5.7452,-0.14063 11.939,-0.0568 13.74,-2.1695 -10.17,-6.3007 -18.751,-13.308 -25.854,-20.972 8.04,0.97052 11.435,0.13478 13.379,-1.2656 -7.6878,-7.8742 -17.418,-14.523 -22.057,-24.226 5.9696,2.0575 11.431,2.8451 15.368,-0.1808 -2.6124,-5.8935 -13.805,-9.3696 -20.249,-23.142 6.2844,0.60938 12.95,1.3711 14.283,0 -2.917,-11.884 -7.922,-18.565 -12.831,-25.487 13.45,-0.2 33.828,0.052 32.905,-1.085 l -8.3165,-8.4973 c 13.138,-3.5372 26.581,0.56816 36.34,3.6159 4.3819,-3.4577 -0.0776,-7.83 -5.4238,-12.294 11.165,1.4906 21.254,4.0574 30.373,7.5934 4.8724,-4.3993 -3.1639,-8.7987 -7.051,-13.198 17.249,3.2726 24.557,7.8707 31.82,12.475 5.2694,-5.0508 0.30166,-9.3433 -3.2543,-13.74 13.006,4.817 19.705,11.036 26.758,17.175 2.3912,-3.2271 6.0749,-5.5924 1.6272,-13.379 9.2342,5.3227 16.189,11.595 21.334,18.622 5.7134,-3.6379 3.4039,-8.613 3.4351,-13.198 9.5966,7.8065 15.687,16.114 23.142,24.226 1.5017,-1.0934 2.8166,-4.8017 3.9775,-10.667 22.895,22.212 55.246,78.158 8.3165,100.34 -39.94,-32.94 -87.64,-56.883 -140.5,-74.844 z"
         id="path1130"
         style="stroke:none" /><path
         fill="#75a928"
         d="m 467.92,68.056 c -67.94,35.034 -107.44,63.364 -129.08,87.504 11.082,44.418 68.896,46.445 90.036,45.199 -4.3284,-2.0147 -7.9399,-4.4278 -9.2205,-8.1357 5.3045,-3.7698 24.113,-0.39719 37.244,-7.7742 -5.0441,-1.045 -7.4035,-2.063 -9.7629,-5.7854 12.406,-3.9567 25.769,-7.3664 33.628,-13.921 -4.2413,0.0524 -8.2012,0.9488 -13.74,-2.8927 11.112,-5.9882 22.969,-10.734 32.181,-19.887 -5.7452,-0.14063 -11.939,-0.0568 -13.74,-2.1695 10.17,-6.3007 18.751,-13.308 25.854,-20.972 -8.04,0.97052 -11.435,0.13478 -13.379,-1.2656 7.6878,-7.8742 17.418,-14.523 22.057,-24.226 -5.9696,2.0575 -11.431,2.8451 -15.368,-0.1808 2.6124,-5.8935 13.805,-9.3696 20.249,-23.142 -6.2844,0.60938 -12.95,1.3711 -14.283,0 2.9223,-11.889 7.9275,-18.57 12.836,-25.492 -13.45,-0.19973 -33.828,0.05235 -32.905,-1.0848 l 8.3165,-8.4973 c -13.138,-3.5372 -26.581,0.56816 -36.34,3.6159 -4.3819,-3.4577 0.0776,-7.83 5.4238,-12.294 -11.165,1.4906 -21.254,4.0574 -30.373,7.5934 -4.8724,-4.3993 3.1639,-8.7987 7.051,-13.198 -17.249,3.2726 -24.557,7.8707 -31.82,12.475 -5.2694,-5.0508 -0.30166,-9.3433 3.2543,-13.74 -13.006,4.817 -19.705,11.036 -26.758,17.175 -2.3912,-3.2271 -6.0749,-5.5924 -1.6272,-13.379 -9.2342,5.3227 -16.189,11.595 -21.334,18.622 -5.7134,-3.6379 -3.4039,-8.613 -3.4351,-13.198 -9.5966,7.8065 -15.687,16.114 -23.142,24.226 -1.5017,-1.0934 -2.8166,-4.8017 -3.9775,-10.667 -22.895,22.212 -55.246,78.158 -8.3165,100.34 39.919,-32.947 87.616,-56.888 140.48,-74.849 z"
         id="path1132"
         style="stroke:none" /><path
         fill="#bc1142"
         d="m 365.2,521.85 a 71.956,66.532 0 1 1 -143.91,0 71.956,66.532 0 1 1 143.91,0 z"
         transform="matrix(1.131107,0,0,1.1280497,-43.139135,-68.310983)"
         id="path1134"
         style="stroke:none" /><path
         fill="#bc1142"
         d="m 262.84,276.65 a 61.875,28.125 0 1 1 -123.75,0 61.875,28.125 0 1 1 123.75,0 z"
         transform="matrix(0.76741684,-1.1613112,2.171115,1.4224368,-560.88858,217.68859)"
         id="path1136"
         style="stroke:none" /><path
         fill="#bc1142"
         d="m 262.84,276.65 a 61.875,28.125 0 1 1 -123.75,0 61.875,28.125 0 1 1 123.75,0 z"
         transform="matrix(-0.76741684,-1.1613112,-2.171115,1.4224368,1134.8288,213.68859)"
         id="path1138"
         style="stroke:none" /><path
         fill="#bc1142"
         d="M 72.91,342.09 C 109.32,332.33 85.202,492.72 55.577,479.56 22.99,453.35 12.494,376.59 72.91,342.09 Z"
         id="path1140"
         style="stroke:none" /><path
         fill="#bc1142"
         d="M 493.68,340.09 C 457.266,330.3331 481.388,490.73 511.013,477.57 543.6,451.357 554.096,374.59 493.68,340.09 Z"
         id="path1142"
         style="stroke:none" /><path
         fill="#bc1142"
         d="m 369.97,220.65 c 62.835,-10.61 115.12,26.722 113.01,94.858 -2.0669,26.121 -136.16,-90.969 -113.01,-94.858 z"
         id="path1144"
         style="stroke:none" /><path
         fill="#bc1142"
         d="M 196.36,218.65 C 133.52,208.04 81.24,245.38 83.35,313.51 85.417,339.63 219.51,222.54 196.36,218.65 Z"
         id="path1146"
         style="stroke:none" /><path
         fill="#bc1142"
         d="m 286.62,202.76 c -37.503,-0.97548 -73.495,27.834 -73.582,44.544 -0.10462,20.304 29.651,41.093 73.837,41.62 45.123,0.32321 73.916,-16.64 74.061,-37.594 0.16484,-23.74 -41.039,-48.937 -74.317,-48.571 z"
         id="path1148"
         style="stroke:none" /><path
         fill="#bc1142"
         d="m 288.91,619.12 c 32.697,-1.4271 76.571,10.532 76.657,26.396 0.5427,15.405 -39.79,50.211 -78.826,49.538 -40.427,1.7439 -80.069,-33.116 -79.55,-45.199 -0.60506,-17.716 49.226,-31.548 81.719,-30.735 z"
         id="path1150"
         style="stroke:none" /><path
         fill="#bc1142"
         d="m 168.14,525.1 c 23.279,28.046 33.891,77.319 14.464,91.844 -18.379,11.088 -63.012,6.5216 -94.736,-39.052 -21.395,-38.242 -18.638,-77.157 -3.6159,-88.589 22.464,-13.684 57.173,4.799 83.889,35.797 z"
         id="path1152"
         style="stroke:none" /><path
         fill="#bc1142"
         d="m 405.02,516.21 c -25.187,29.502 -39.212,83.31 -20.838,100.64 17.568,13.464 64.729,11.582 99.566,-36.756 25.296,-32.465 16.82,-86.682 2.3708,-101.08 -21.464,-16.602 -52.277,4.6449 -81.099,37.188 z"
         id="path1154"
         style="stroke:none" /></g><g
       id="g1163"
       transform="matrix(1.0038607,0,0,0.92899666,-0.64076875,-32.200648)"><path
         style="font-size:12px;fill-rule:evenodd;stroke-width:0.0661457pt"
         d="m 91.198008,141.5388 c -9.078394,-2.94976 -16.447574,2.0229 -16.447574,11.10138 0,4.18131 1.564923,8.50722 4.138248,12.24626 l 6.786149,2.16775 0.03101,-11.0342 11.013282,3.57843 0.05994,-10.87391 6.587717,2.15697 c -3.00915,-4.2871 -7.346884,-7.77596 -12.168771,-9.3427 z m 12.168762,9.3427 c 2.65637,3.7845 4.27675,8.1897 4.27675,12.44629 0,9.07819 -7.36704,14.05388 -16.445512,11.10411 -4.896994,-1.59113 -9.295608,-5.16654 -12.309326,-9.54546 l -4.047298,-1.29235 0.05994,5.72249 32.922016,10.66601 -0.11988,-27.67964 z"
         id="path148"
         inkscape:connector-curvature="0" /><path
         style="fill:#cccccc;stroke:#000000;stroke-width:0;stroke-dasharray:none"
         d="m 350.30372,659.99462 c -13.05619,-3.29776 -26.36935,-11.1643 -38.34133,-22.65528 -5.99404,-5.75322 -10.54197,-10.81725 -10.10652,-11.2534 0.43545,-0.43616 5.29378,0.73823 10.79629,2.60976 5.5025,1.87152 10.5102,3.40276 11.12822,3.40276 0.61803,0 1.12368,-9.20707 1.12368,-20.46017 v -20.46017 l 3.74627,0.92767 c 2.06045,0.51022 10.76737,3.28052 19.3487,6.15622 8.58134,2.8757 16.09091,5.22855 16.68795,5.22855 0.59703,0 1.08551,-9.16818 1.08551,-20.37373 V 562.7431 l 12.49059,4.36692 12.49059,4.36693 4.54829,8.17369 c 11.11921,19.98224 13.66643,41.84186 6.68773,57.39248 -6.70106,14.93195 -18.62699,23.19559 -35.15969,24.36262 -5.08025,0.3586 -11.78698,-0.21406 -16.52628,-1.41112 z"
         id="path1159"
         transform="scale(0.26458333)" /></g><path
       style="fill:#ffffff;stroke:#ffffff;stroke-width:0.920191;stroke-dasharray:none"
       d="m 110.01267,100.86715 -0.11571,36.95904 v 0"
       id="path1221" /><path
       style="fill:#ffffff;stroke:#ffffff;stroke-width:0.579423"
       d="M 110.06972,100.37026 134.99333,85.743757"
       id="path889" /><path
       style="fill:#ffffff;stroke:#ffffff;stroke-width:0.579423"
       d="M 109.99574,100.02039 73.607224,88.237731 v 0.191547"
       id="path891" /><g
       id="g1290"
       transform="matrix(0.25234658,-0.14919072,-0.00344704,0.37138713,111.46274,100.17325)"
       inkscape:transform-center-y="17.614276"
       inkscape:transform-center-x="7.2417523"><g
         id="layer1-5"><path
           id="rect2322"
           style="display:inline;fill:#254151;fill-opacity:1;fill-rule:evenodd;stroke-width:0.266166"
           d="M 0,0 V 100.54166 H 100.54166 V 0 Z" /><path
           id="path1670"
           style="display:inline;fill:url(#radialGradient3706);fill-opacity:1;stroke-width:1.92643"
           d="M 83.872523,0 C 68.833506,13.304798 58.084481,29.22326 39.179498,35.994989 27.064411,40.33459 12.601273,47.298311 0,50.27083 v 50.27083 H 100.54166 V 0 Z" /><path
           id="path1928"
           style="display:inline;fill:url(#radialGradient3716);fill-opacity:1;stroke-width:1.92643"
           d="M 0,5.8905964 V 100.54166 H 100.54166 V 65.947124 C 94.464352,64.603186 88.097063,60.05736 82.414282,57.508706 70.985972,52.383258 60.627083,44.822067 50.985117,36.827758 41.34315,28.833448 32.532102,17.688692 21.171317,12.415263 14.424698,9.2836289 7.3017236,7.2441823 0,5.8905964 Z" /><path
           id="path1877"
           style="display:inline;fill:url(#radialGradient3726);fill-opacity:1;stroke-width:1.94465"
           d="M 100.54166,40.84561 C 82.067905,58.820021 74.041988,62.520727 51.577031,70.61378 40.932046,74.44866 11.399348,81.779006 0,83.667929 v 16.873731 h 100.54166 z" /><rect
           style="fill:#265a78;fill-opacity:0.335307;fill-rule:evenodd;stroke-width:0.264583"
           id="rect20315"
           width="100.54166"
           height="100.54166"
           x="0"
           y="0" /></g><g
         id="g880001"
         style="display:inline;fill:#51a1d0;fill-opacity:1"
         transform="matrix(0.51356496,0,0,0.51356496,27.940799,10.251518)"><path
           i:knockout="Off"
           fill="#51a1d0"
           d="m 51.986,57.297 c -1.797,0.025 0.34,0.926 2.686,1.287 0.648,-0.506 1.236,-1.018 1.76,-1.516 -1.461,0.358 -2.948,0.366 -4.446,0.229"
           id="path879977"
           style="display:none;fill:#51a1d0;fill-opacity:1" /><path
           i:knockout="Off"
           fill="#51a1d0"
           d="m 61.631,54.893 c 1.07,-1.477 1.85,-3.094 2.125,-4.766 -0.24,1.192 -0.887,2.221 -1.496,3.307 -3.359,2.115 -0.316,-1.256 -0.002,-2.537 -3.612,4.546 -0.496,2.726 -0.627,3.996"
           id="path879979"
           style="fill:#51a1d0;fill-opacity:1" /><path
           i:knockout="Off"
           fill="#51a1d0"
           d="m 65.191,45.629 c 0.217,-3.236 -0.637,-2.213 -0.924,-0.978 0.335,0.174 0.6,2.281 0.924,0.978"
           id="path879981"
           style="fill:#51a1d0;fill-opacity:1" /><path
           i:knockout="Off"
           fill="#51a1d0"
           d="m 45.172,1.399 c 0.959,0.172 2.072,0.304 1.916,0.533 1.049,-0.23 1.287,-0.442 -1.916,-0.533"
           id="path879983"
           style="fill:#51a1d0;fill-opacity:1" /><path
           i:knockout="Off"
           fill="#51a1d0"
           d="M 47.088,1.932 46.41,2.072 47.041,2.016 47.088,1.932"
           id="path879985"
           style="fill:#51a1d0;fill-opacity:1" /><path
           i:knockout="Off"
           fill="#51a1d0"
           d="m 76.992,46.856 c 0.107,2.906 -0.85,4.316 -1.713,6.812 l -1.553,0.776 c -1.271,2.468 0.123,1.567 -0.787,3.53 -1.984,1.764 -6.021,5.52 -7.313,5.863 -0.943,-0.021 0.639,-1.113 0.846,-1.541 -2.656,1.824 -2.131,2.738 -6.193,3.846 L 60.16,65.878 C 50.142,70.591 36.226,61.251 36.409,48.507 c -0.107,0.809 -0.304,0.607 -0.526,0.934 -0.517,-6.557 3.028,-13.143 9.007,-15.832 5.848,-2.895 12.704,-1.707 16.893,2.197 -2.301,-3.014 -6.881,-6.209 -12.309,-5.91 -5.317,0.084 -10.291,3.463 -11.951,7.131 -2.724,1.715 -3.04,6.611 -4.227,7.507 -1.597,11.737 3.004,16.808 10.787,22.773 1.225,0.826 0.345,0.951 0.511,1.58 -2.586,-1.211 -4.954,-3.039 -6.901,-5.277 1.033,1.512 2.148,2.982 3.589,4.137 -2.438,-0.826 -5.695,-5.908 -6.646,-6.115 4.203,7.525 17.052,13.197 23.78,10.383 -3.113,0.115 -7.068,0.064 -10.566,-1.229 -1.469,-0.756 -3.467,-2.322 -3.11,-2.615 9.182,3.43 18.667,2.598 26.612,-3.771 2.021,-1.574 4.229,-4.252 4.867,-4.289 -0.961,1.445 0.164,0.695 -0.574,1.971 2.014,-3.248 -0.875,-1.322 2.082,-5.609 l 1.092,1.504 c -0.406,-2.696 3.348,-5.97 2.967,-10.234 0.861,-1.304 0.961,1.403 0.047,4.403 1.268,-3.328 0.334,-3.863 0.66,-6.609 0.352,0.923 0.814,1.904 1.051,2.878 -0.826,-3.216 0.848,-5.416 1.262,-7.285 -0.408,-0.181 -1.275,1.422 -1.473,-2.377 0.029,-1.65 0.459,-0.865 0.625,-1.271 -0.324,-0.186 -1.174,-1.451 -1.691,-3.877 0.375,-0.57 1.002,1.478 1.512,1.562 -0.328,-1.929 -0.893,-3.4 -0.916,-4.88 -1.49,-3.114 -0.527,0.415 -1.736,-1.337 -1.586,-4.947 1.316,-1.148 1.512,-3.396 2.404,3.483 3.775,8.881 4.404,11.117 -0.48,-2.726 -1.256,-5.367 -2.203,-7.922 0.73,0.307 -1.176,-5.609 0.949,-1.691 C 83.519,18.706 76.074,10.902 69.225,7.24 70.063,8.007 71.121,8.97 70.741,9.121 67.335,7.093 67.934,6.935 67.446,6.078 64.671,4.949 64.489,6.169 62.651,6.08 57.421,3.306 56.413,3.601 51.6,1.863 l 0.219,1.023 c -3.465,-1.154 -4.037,0.438 -7.782,0.004 -0.228,-0.178 1.2,-0.644 2.375,-0.815 -3.35,0.442 -3.193,-0.66 -6.471,0.122 0.808,-0.567 1.662,-0.942 2.524,-1.424 -2.732,0.166 -6.522,1.59 -5.352,0.295 -4.456,1.988 -12.37,4.779 -16.811,8.943 l -0.14,-0.933 c -2.035,2.443 -8.874,7.296 -9.419,10.46 l -0.544,0.127 c -1.059,1.793 -1.744,3.825 -2.584,5.67 -1.385,2.36 -2.03,0.908 -1.833,1.278 -2.724,5.523 -4.077,10.164 -5.246,13.97 0.833,1.245 0.02,7.495 0.335,12.497 -1.368,24.704 17.338,48.69 37.785,54.228 2.997,1.072 7.454,1.031 11.245,1.141 -4.473,-1.279 -5.051,-0.678 -9.408,-2.197 -3.143,-1.48 -3.832,-3.17 -6.058,-5.102 l 0.881,1.557 c -4.366,-1.545 -2.539,-1.912 -6.091,-3.037 l 0.941,-1.229 C 28.751,98.334 26.418,96.056 25.78,94.795 l -1.548,0.061 c -1.86,-2.295 -2.851,-3.949 -2.779,-5.23 l -0.5,0.891 c -0.567,-0.973 -6.843,-8.607 -3.587,-6.83 -0.605,-0.553 -1.409,-0.9 -2.281,-2.484 l 0.663,-0.758 c -1.567,-2.016 -2.884,-4.6 -2.784,-5.461 0.836,1.129 1.416,1.34 1.99,1.533 -3.957,-9.818 -4.179,-0.541 -7.176,-9.994 L 8.412,66.472 C 7.926,65.74 7.631,64.945 7.24,64.165 l 0.276,-2.75 C 4.667,58.121 6.719,47.409 7.13,41.534 7.415,39.145 9.508,36.602 11.1,32.614 l -0.97,-0.167 c 1.854,-3.234 10.586,-12.988 14.63,-12.486 1.959,-2.461 -0.389,-0.009 -0.772,-0.629 4.303,-4.453 5.656,-3.146 8.56,-3.947 3.132,-1.859 -2.688,0.725 -1.203,-0.709 5.414,-1.383 3.837,-3.144 10.9,-3.846 0.745,0.424 -1.729,0.655 -2.35,1.205 4.511,-2.207 14.275,-1.705 20.617,1.225 7.359,3.439 15.627,13.605 15.953,23.17 l 0.371,0.1 c -0.188,3.802 0.582,8.199 -0.752,12.238 l 0.908,-1.912"
           id="path879987"
           style="fill:#51a1d0;fill-opacity:1" /><path
           i:knockout="Off"
           fill="#51a1d0"
           d="m 32.372,59.764 -0.252,1.26 c 1.181,1.604 2.118,3.342 3.626,4.596 -1.085,-2.118 -1.891,-2.993 -3.374,-5.856"
           id="path879989"
           style="fill:#51a1d0;fill-opacity:1" /><path
           i:knockout="Off"
           fill="#51a1d0"
           d="m 35.164,59.654 c -0.625,-0.691 -0.995,-1.523 -1.409,-2.352 0.396,1.457 1.207,2.709 1.962,3.982 l -0.553,-1.63"
           id="path879991"
           style="fill:#51a1d0;fill-opacity:1" /><path
           i:knockout="Off"
           fill="#51a1d0"
           d="m 84.568,48.916 -0.264,0.662 c -0.484,3.438 -1.529,6.84 -3.131,9.994 1.77,-3.328 2.915,-6.968 3.395,-10.656"
           id="path879993"
           style="fill:#51a1d0;fill-opacity:1" /><path
           i:knockout="Off"
           fill="#51a1d0"
           d="M 45.527,0.537 C 46.742,0.092 48.514,0.293 49.803,0 48.123,0.141 46.451,0.225 44.8,0.438 l 0.727,0.099"
           id="path879995"
           style="fill:#51a1d0;fill-opacity:1" /><path
           i:knockout="Off"
           fill="#51a1d0"
           d="m 2.872,23.219 c 0.28,2.592 -1.95,3.598 0.494,1.889 1.31,-2.951 -0.512,-0.815 -0.494,-1.889"
           id="path879997"
           style="fill:#51a1d0;fill-opacity:1" /><path
           i:knockout="Off"
           fill="#51a1d0"
           d="M 0,35.215 C 0.563,33.487 0.665,32.449 0.88,31.449 -0.676,33.438 0.164,33.862 0,35.215"
           id="path879999"
           style="fill:#51a1d0;fill-opacity:1" /></g><g
         aria-label="debian 13"
         transform="matrix(0.26458333,0,0,0.26458333,6.9886036,-2.1166667)"
         id="text28448"
         style="font-size:80px;font-family:Poppl-Laudatio;-inkscape-font-specification:'Poppl-Laudatio, Normal';white-space:pre;shape-inside:url(#rect28450);opacity:1;fill:#51a1d0;stroke-width:7.281"><path
           d="m 12.978188,324.69655 q 0,-5.92 1.2,-10 1.2,-4.16 3.44,-6.72 2.24,-2.64 5.52,-3.76 3.28,-1.2 7.36,-1.2 2.32,0 3.6,0.24 1.28,0.24 2.4,0.48 0,-2.96 -0.08,-5.12 0,-2.16 -0.24,-3.76 -0.16,-1.6 -0.64,-2.64 -0.48,-1.12 -1.28,-2 2.56,-0.16 4.48,-0.4 1.92,-0.24 3.52,-0.56 1.68,-0.32 3.12,-0.72 1.52,-0.48 3.2,-1.12 -0.16,0.72 -0.24,1.44 -0.08,0.72 -0.16,1.84 -0.08,1.04 -0.16,2.8 -0.08,1.68 -0.16,4.32 0,1.84 -0.08,5.12 -0.08,3.28 -0.08,7.28 0,3.92 0,8.24 0,4.32 0,8.4 0,4 0.08,7.36 0.08,3.36 0.24,5.44 0.08,1.6 0.24,2.64 0.16,1.04 0.32,1.84 0.24,0.8 0.48,1.36 0.24,0.56 0.56,1.2 -1.36,-0.16 -2.56,-0.24 -1.12,-0.08 -2.96,-0.08 -2.96,0 -4.64,0.16 -1.68,0.08 -2.8,0.16 v -6.88 q -0.24,0.64 -0.8,1.84 -0.48,1.2 -1.6,2.4 -1.04,1.2 -2.88,2.08 -1.84,0.88 -4.64,0.88 -3.44,0 -5.84,-1.36 -2.32,-1.44 -3.84,-3.6 -1.52,-2.24 -2.4,-4.88 -0.8,-2.72 -1.2,-5.2 -0.32,-2.48 -0.4,-4.4 -0.08,-2 -0.08,-2.88 z m 23.36,-13.52 q -0.8,-0.4 -1.68,-0.64 -0.88,-0.24 -2.32,-0.24 -2.56,0 -4.08,1.12 -1.52,1.04 -2.4,2.88 -0.8,1.76 -1.12,4 -0.24,2.24 -0.24,4.48 0,0.88 0,2.56 0.08,1.68 0.48,4 0.24,1.6 0.64,3.2 0.48,1.52 1.2,2.8 0.72,1.2 1.84,2 1.12,0.72 2.72,0.72 1.36,0 2.16,-0.48 0.88,-0.48 1.36,-1.12 0.48,-0.64 0.72,-1.28 0.24,-0.64 0.32,-0.96 0.16,-0.8 0.24,-2.88 0.16,-2.16 0.16,-4.88 0.08,-2.8 0.08,-5.76 0,-3.04 0,-5.6 z"
           id="path28523" /><path
           d="m 65.657979,326.97655 q 0,0.96 0.08,2.24 0.08,1.2 0.4,2.56 0.4,1.36 1.04,2.72 0.72,1.28 1.92,2.4 1.04,0.96 2.24,1.52 1.28,0.48 2.4,0.72 1.2,0.24 2.16,0.32 1.04,0 1.52,0 4.16,0 6.24,-0.88 2.16,-0.96 3.28,-1.68 -0.64,2.64 -0.96,4.56 -0.24,1.92 -0.16,4.64 -2.48,0.64 -4.96,0.8 -2.4,0.24 -4.96,0.24 -3.84,0 -6.88,-0.56 -2.96,-0.56 -5.44,-1.84 -4.32,-2.24 -6.88,-7.12 -2.48,-4.88 -2.48,-13.28 0,-3.84 0.72,-7.68 0.8,-3.84 2.72,-6.88 2,-3.12 5.44,-5.04 3.52,-1.92 8.96,-1.92 4.88,0 7.92,1.6 3.12,1.52 4.8,4.24 1.68,2.64 2.24,6.24 0.64,3.52 0.64,7.44 l -0.16,4.64 z m 11.44,-6.64 q 0.08,-2 -0.08,-3.92 -0.08,-2 -0.64,-3.52 -0.56,-1.6 -1.76,-2.56 -1.12,-0.96 -3.12,-0.96 -2,0 -3.2,0.96 -1.2,0.96 -1.84,2.56 -0.64,1.52 -0.88,3.52 -0.24,1.92 -0.24,3.92 z"
           id="path28525" /><path
           d="m 95.417969,314.05655 q 0,-7.92 -0.24,-12.24 -0.16,-4.4 -0.56,-6.64 -0.32,-2.32 -0.96,-3.12 -0.64,-0.8 -1.44,-1.6 1.68,-0.08 3.28,-0.24 1.6,-0.16 3.36,-0.48 1.840001,-0.32 3.920001,-0.88 2.08,-0.64 4.8,-1.6 -0.32,2.72 -0.48,6.32 -0.16,3.6 -0.24,7.12 0,3.52 0,6.56 0,3.04 0,4.56 0.48,-1.2 1.2,-2.72 0.8,-1.52 2.08,-2.88 1.28,-1.44 3.2,-2.32 1.92,-0.96 4.72,-0.96 3.36,0 5.84,1.52 2.48,1.44 3.84,3.52 1.04,1.44 1.68,3.36 0.64,1.84 0.96,3.68 0.32,1.84 0.4,3.6 0.08,1.76 0.08,2.96 0,6.96 -1.44,11.84 -1.44,4.88 -4.24,8 -2.72,3.04 -6.72,4.4 -4,1.36 -9.04,1.36 -1.2,0 -2.88,-0.08 -1.6,-0.08 -3.6,-0.32 -1.92,-0.24 -4.080001,-0.64 -2.16,-0.4 -4.4,-1.12 0.72,-2.4 0.8,-5.44 0.16,-3.12 0.16,-6.08 z m 23.840001,12.16 q 0,-2.4 -0.24,-4.88 -0.24,-2.48 -0.96,-4.48 -0.64,-2.08 -1.92,-3.36 -1.28,-1.28 -3.28,-1.28 -0.4,0 -1.04,0.08 -0.56,0.08 -1.28,0.56 -0.72,0.4 -1.44,1.28 -0.64,0.88 -1.12,2.48 -0.64,2.24 -0.8,5.52 -0.08,3.28 -0.08,8.4 0,3.28 0,5.84 0,2.48 0.16,3.84 0.4,0 1.36,0.24 0.96,0.16 2.08,0.16 2.96,0 4.64,-1.44 1.76,-1.44 2.64,-3.6 0.88,-2.16 1.04,-4.64 0.24,-2.56 0.24,-4.72 z"
           id="path28527" /><path
           d="m 138.13796,314.69655 q -0.08,-2.64 -0.32,-4.16 -0.16,-1.6 -0.48,-2.56 -0.24,-1.04 -0.72,-1.6 -0.48,-0.64 -1.2,-1.28 3.04,-0.16 5.12,-0.32 2.08,-0.16 3.68,-0.4 1.6,-0.32 2.96,-0.8 1.44,-0.48 3.12,-1.2 -0.88,6.4 -0.88,14.48 0.08,8 0.24,18.16 0.08,2.96 0.32,6.16 0.24,3.2 1.2,5.52 -1.36,-0.16 -2.8,-0.32 -1.36,-0.16 -3.6,-0.16 -2.8,0 -4.8,0.16 -2,0.16 -3.36,0.32 0.32,-0.64 0.56,-1.12 0.24,-0.56 0.4,-1.36 0.24,-0.88 0.32,-2.16 0.08,-1.28 0.16,-3.44 0.08,-2.16 0.16,-4.96 0.08,-2.8 0.08,-5.92 0,-3.12 -0.08,-6.4 0,-3.36 -0.08,-6.64 z m 11.2,-21.2 q 0.08,3.52 -1.6,4.96 -1.6,1.44 -4.08,1.44 -2.56,0 -4.24,-1.44 -1.6,-1.44 -1.6,-4.4 0,-2.48 1.28,-4.32 1.28,-1.84 4.56,-1.84 2.8,0 4.16,1.52 1.44,1.52 1.52,4.08 z"
           id="path28529" /><path
           d="m 188.85795,341.09655 q 0.16,2.56 0.56,3.68 0.4,1.04 0.96,1.92 -1.36,-0.24 -2.88,-0.24 -1.52,-0.08 -3.28,-0.08 -1.6,0 -3.04,0.08 -1.44,0.08 -3.04,0.24 -0.24,-1.2 -0.32,-2.88 0,-1.68 0.08,-5.04 -0.4,1.12 -1.04,2.56 -0.64,1.36 -1.84,2.64 -1.12,1.28 -3.04,2.16 -1.84,0.88 -4.64,0.88 -3.6,0 -5.68,-1.52 -2.08,-1.52 -3.2,-3.6 -1.04,-2.16 -1.36,-4.32 -0.24,-2.24 -0.24,-3.68 0,-3.92 1.2,-6.64 1.28,-2.72 3.52,-4.4 2.24,-1.76 5.28,-2.56 3.12,-0.8 6.88,-0.8 1.36,0 2.16,0.08 0.88,0 1.68,0.16 0.08,-2 0,-3.6 0,-1.6 -0.48,-2.64 -0.48,-1.12 -1.6,-1.68 -1.04,-0.64 -2.96,-0.64 -2.96,0 -5.76,1.04 -2.72,1.04 -4.96,3.12 -0.88,-3.28 -1.6,-5.04 -0.72,-1.84 -1.68,-3.52 0.8,-0.4 2.08,-1.04 1.36,-0.72 3.28,-1.28 1.92,-0.64 4.4,-1.04 2.56,-0.48 5.84,-0.48 3.6,0 6.64,0.8 3.04,0.8 4.88,2.48 1.2,1.12 1.84,2.32 0.64,1.2 0.96,3.04 0.32,1.76 0.32,4.4 0.08,2.56 0.08,6.48 z m -13.84,-16.08 q -2.96,0 -4.96,1.52 -2,1.52 -2,5.36 0,2.56 0.96,4.48 1.04,1.84 3.36,1.84 0.24,0 0.8,-0.08 0.64,-0.08 1.28,-0.48 0.72,-0.4 1.36,-1.12 0.72,-0.72 1.12,-2.08 0.24,-0.64 0.32,-1.36 0.16,-0.8 0.24,-1.84 0.08,-1.12 0.16,-2.56 0.08,-1.44 0.08,-3.52 z"
           id="path28531" /><path
           d="m 208.77796,310.93655 q 0.4,-0.96 1.12,-2.32 0.8,-1.36 2.16,-2.56 1.36,-1.28 3.52,-2.16 2.24,-0.96 5.6,-0.96 4,0 6.16,1.36 2.24,1.28 3.28,3.2 1.04,1.92 1.2,4.08 0.24,2.16 0.24,3.84 v 23.92 q 0,1.84 0.08,3.04 0.16,1.2 0.32,2 0.16,0.72 0.32,1.28 0.24,0.48 0.48,1.04 -0.8,-0.08 -1.52,-0.16 -0.72,-0.08 -1.6,-0.08 -0.8,-0.08 -1.92,-0.08 -1.04,-0.08 -2.48,-0.08 -2.08,0 -3.44,0.08 -1.28,0.08 -2.8,0.32 0.16,-0.56 0.32,-1.2 0.24,-0.64 0.32,-2 0.16,-1.36 0.24,-3.68 0.08,-2.4 0.08,-6.48 v -12.72 q 0,-1.92 -0.08,-3.6 -0.08,-1.68 -0.64,-2.88 -0.48,-1.2 -1.6,-1.92 -1.04,-0.72 -2.96,-0.72 -1.84,0 -3.04,0.64 -1.12,0.64 -1.76,1.52 -0.56,0.8 -0.8,1.68 -0.24,0.8 -0.32,1.2 -0.16,0.96 -0.24,2.88 -0.08,1.84 -0.16,4.32 0,2.4 0,5.12 0,2.72 0,5.36 0,3.76 0,6 0.08,2.16 0.16,3.44 0.16,1.28 0.32,1.92 0.24,0.56 0.48,1.12 -1.44,-0.16 -2.96,-0.24 -1.52,-0.16 -3.92,-0.16 -1.6,0 -3.12,0.08 -1.52,0.08 -3.6,0.32 0.4,-0.8 0.64,-1.84 0.24,-1.12 0.4,-2.16 0.08,-0.56 0.16,-2.08 0.08,-1.52 0.08,-3.52 0.08,-2.08 0.08,-4.56 0,-2.56 0,-5.2 0,-2.64 0,-4.8 0,-2.24 -0.08,-4.16 0,-1.92 -0.08,-3.76 -0.08,-1.84 -0.24,-3.84 -0.16,-2.8 -0.96,-4.08 -0.72,-1.28 -1.44,-1.68 2.96,-0.16 5.04,-0.32 2.08,-0.24 3.6,-0.56 1.6,-0.32 2.8,-0.72 1.28,-0.48 2.56,-1.04 z"
           id="path28533" /><path
           d="m 273.89554,323.41655 q 0,2.16 0,4 0,1.76 0,3.52 0.08,1.76 0.08,3.68 0.08,1.84 0.16,4.08 0.08,1.92 0.16,3.2 0.16,1.28 0.32,2.16 0.24,0.88 0.48,1.52 0.24,0.56 0.48,1.12 -1.6,-0.16 -3.68,-0.24 -2,-0.16 -4.08,-0.16 -1.6,0 -3.04,0.08 -1.44,0.08 -3.28,0.32 0.24,-0.8 0.4,-1.52 0.24,-0.72 0.4,-1.76 0.16,-1.12 0.24,-2.8 0.08,-1.68 0.16,-4.48 l 0.16,-11.2 v -12 q 0,-5.28 -0.08,-8.48 -0.08,-3.2 -0.24,-3.84 -2.56,0.88 -4.88,1.84 -2.32,0.96 -4.48,2.32 l 0.16,-2.64 q 0,-1.68 -0.16,-2.8 -0.08,-1.2 -0.24,-2.08 1.36,-0.32 3.92,-0.96 2.56,-0.64 5.6,-1.6 3.12,-1.04 6.24,-2.4 3.2,-1.36 5.76,-3.04 -0.16,1.92 -0.32,3.44 -0.08,1.44 -0.16,3.68 0,2.24 -0.08,6 0,3.76 0,10.24 z"
           id="path28535" /><path
           d="m 295.23457,289.45655 q 2.32,0 4.32,0.24 2.08,0.24 3.92,0.88 0.88,0.32 2.24,1.12 1.44,0.72 2.8,2.24 1.36,1.44 2.32,3.68 1.04,2.24 1.04,5.6 0,2 -0.56,4.08 -0.48,2.08 -1.68,3.92 -1.2,1.76 -3.12,3.12 -1.92,1.36 -4.64,1.92 l -1.76,0.32 1.84,0.24 q 6.24,1.04 9.2,4.32 3.04,3.28 3.04,8.8 0,4.24 -1.6,7.36 -1.52,3.04 -3.6,4.88 -2.32,2.08 -6.16,3.2 -3.76,1.12 -8.64,1.12 -0.48,0 -1.76,-0.08 -1.28,0 -3.04,-0.16 -1.76,-0.16 -3.76,-0.48 -1.92,-0.32 -3.84,-0.96 0.32,-1.04 0.56,-2 0.32,-0.96 0.48,-2 0.24,-1.12 0.32,-2.4 0.16,-1.28 0.32,-3.04 2,1.6 4.4,2.24 2.48,0.64 5.04,0.64 2.48,0 4.24,-0.72 1.76,-0.72 2.88,-1.84 1.12,-1.2 1.6,-2.64 0.48,-1.52 0.48,-3.04 0,-2.64 -1.04,-4.24 -1.04,-1.68 -2.72,-2.64 -1.6,-0.96 -3.68,-1.28 -2.08,-0.32 -4.24,-0.32 -2.08,0 -3.04,0.16 -0.96,0.08 -2.08,0.24 0.08,-1.04 0.08,-2 0.08,-0.96 0.08,-2 -0.08,-1.12 -0.08,-2.08 0,-1.04 -0.08,-2.16 0.64,0.08 1.28,0.16 0.64,0 1.68,0 1.04,0 3.04,-0.08 2,-0.16 4,-0.96 2,-0.8 3.44,-2.48 1.52,-1.68 1.52,-4.8 0,-3.2 -2.16,-5.36 -2.08,-2.24 -6.56,-2.24 -3.44,0 -5.2,0.8 -1.76,0.8 -2.72,1.44 0.48,-3.68 0.56,-5.68 0.08,-2 0,-3.76 2.16,-0.48 4.64,-0.88 2.56,-0.4 6.4,-0.4 z"
           id="path28537" /></g></g><path
       style="mix-blend-mode:color-dodge;fill:none;stroke:#000000;stroke-width:5;stroke-dasharray:none;filter:url(#filter1456)"
       d="m 74.614441,129.46192 35.325699,9.7553 25.74701,-15.40998"
       id="path1346" /></g></svg>
