<?xml version="1.0" encoding="UTF-8" standalone="no"?>
<!-- Created with Sodipodi ("http://www.sodipodi.com/") -->

<svg
   id="svg888"
   sodipodi:version="0.31"
   width="600"
   height="600"
   sodipodi:docname="FileManager.svg"
   version="1.1"
   inkscape:version="1.2.2 (b0a8486541, 2022-12-01)"
   xmlns:inkscape="http://www.inkscape.org/namespaces/inkscape"
   xmlns:sodipodi="http://sodipodi.sourceforge.net/DTD/sodipodi-0.dtd"
   xmlns="http://www.w3.org/2000/svg"
   xmlns:svg="http://www.w3.org/2000/svg"
   xmlns:rdf="http://www.w3.org/1999/02/22-rdf-syntax-ns#"
   xmlns:cc="http://creativecommons.org/ns#"
   xmlns:dc="http://purl.org/dc/elements/1.1/">
  <metadata
     id="metadata10">
    <rdf:RDF>
      <cc:Work
         rdf:about="">
        <dc:format>image/svg+xml</dc:format>
        <dc:type
           rdf:resource="http://purl.org/dc/dcmitype/StillImage" />
      </cc:Work>
    </rdf:RDF>
  </metadata>
  <defs
     id="defs890" />
  <sodipodi:namedview
     id="base"
     showgrid="false"
     inkscape:zoom="0.84287128"
     inkscape:cx="293.63914"
     inkscape:cy="300.16446"
     inkscape:window-width="1110"
     inkscape:window-height="999"
     inkscape:window-x="270"
     inkscape:window-y="14"
     inkscape:window-maximized="0"
     inkscape:current-layer="layer1"
     pagecolor="#505050"
     bordercolor="#ffffff"
     borderopacity="1"
     inkscape:showpageshadow="0"
     inkscape:pageopacity="0"
     inkscape:pagecheckerboard="1"
     inkscape:deskcolor="#505050" />
  <path
     style="font-size:12px;fill-rule:evenodd;stroke-width:1pt;fill:#5294e1;fill-opacity:1"
     d="M 298.65625,49.999996 C 161.40808,49.999996 50,161.37552 50,298.62499 c 0,63.21343 23.65869,120.92593 62.5625,164.8125 l 102.59375,-0.5625 0.46875,-166.96875 166.5,0 0.90625,-164.68749 99.59375,0.25 C 437.13239,81.437336 371.55407,49.999996 298.65625,49.999996 z M 482.625,131.46875 c 40.15917,44.16586 64.65625,102.80469 64.65625,167.15624 0,137.24504 -111.37572,248.65626 -248.625,248.65626 -74.0333,0 -140.53204,-32.44655 -186.09375,-83.84376 L 51.375,463.78124 52.28125,550 550,549.53125 l -1.8125,-417.875 -65.5625,-0.1875 z"
     id="path148"
     inkscape:connector-curvature="0"
     inkscape:export-filename="FileManager.tiff"
     inkscape:export-xdpi="24.576"
     inkscape:export-ydpi="24.576" />
  <path
     style="fill:#f9f9f9;fill-opacity:1;stroke-width:1.46341"
     d="m 277.31707,545.62483 c -29.49848,-3.50738 -47.43018,-7.78397 -69.90808,-16.6726 -29.07492,-11.49735 -61.08835,-32.46655 -82.01495,-53.72085 l -9.9718,-10.12796 27.53278,-0.96221 c 15.14303,-0.52923 37.50501,-0.96408 49.69328,-0.96635 18.85499,-0.003 22.29301,-0.34942 23.04878,-2.31895 0.48856,-1.27315 0.88828,-38.80973 0.88828,-83.41464 v -81.09981 h 83.41463 83.41463 v -81.95122 -81.95122 h 49.75246 49.75245 l 9.59666,12.07317 c 23.83224,29.98239 40.65316,65.87855 49.20294,105 2.97501,13.61282 3.35598,19.2893 3.3393,49.7561 -0.0179,32.54676 -0.23929,35.32542 -4.13172,51.83615 -5.53764,23.48929 -11.2468,39.23097 -21.63913,59.66489 -42.66866,83.89719 -129.82863,136.90354 -222.94612,135.58474 -8.04878,-0.114 -16.60976,-0.44215 -19.02439,-0.72924 z"
     id="path4785" />
  <g
     inkscape:groupmode="layer"
     id="layer1"
     inkscape:label="Layer 1" />
</svg>
