<?xml version="1.0" encoding="UTF-8" standalone="no"?>
<!-- Created with Inkscape (http://www.inkscape.org/) -->

<svg
   width="1920px"
   height="1080px"
   viewBox="0 0 1920 1080"
   version="1.1"
   id="SVGRoot"
   sodipodi:docname="fond_pi_step_initiative.svg"
   xml:space="preserve"
   inkscape:version="1.4 (e7c3feb100, 2024-10-09)"
   inkscape:export-filename="../pisin/RESOURCES/WALLPAPERS/fond_pi_step_initiative.png"
   inkscape:export-xdpi="96"
   inkscape:export-ydpi="96"
   xmlns:inkscape="http://www.inkscape.org/namespaces/inkscape"
   xmlns:sodipodi="http://sodipodi.sourceforge.net/DTD/sodipodi-0.dtd"
   xmlns:xlink="http://www.w3.org/1999/xlink"
   xmlns="http://www.w3.org/2000/svg"
   xmlns:svg="http://www.w3.org/2000/svg"
   xmlns:i="http://ns.adobe.com/AdobeIllustrator/10.0/"><sodipodi:namedview
     id="namedview589"
     pagecolor="#ffffff"
     bordercolor="#000000"
     borderopacity="0.25"
     inkscape:showpageshadow="2"
     inkscape:pageopacity="0.0"
     inkscape:pagecheckerboard="0"
     inkscape:deskcolor="#d1d1d1"
     inkscape:document-units="px"
     showgrid="false"
     inkscape:zoom="1"
     inkscape:cx="620"
     inkscape:cy="559.5"
     inkscape:window-width="1639"
     inkscape:window-height="1048"
     inkscape:window-x="133"
     inkscape:window-y="0"
     inkscape:window-maximized="0"
     inkscape:current-layer="layer2" /><defs
     id="defs584"><rect
       x="672.8197"
       y="836.16052"
       width="869.77771"
       height="91.773071"
       id="rect10288" /><inkscape:perspective
       sodipodi:type="inkscape:persp3d"
       inkscape:vp_x="-375.5791 : 293.16602 : 1"
       inkscape:vp_y="0 : 1000 : 0"
       inkscape:vp_z="1544.4209 : 293.16602 : 1"
       inkscape:persp3d-origin="584.4209 : 113.16602 : 1"
       id="perspective9592" /><inkscape:perspective
       sodipodi:type="inkscape:persp3d"
       inkscape:vp_x="-17.520019 : 342.68292 : 1"
       inkscape:vp_y="0 : 1000 : 0"
       inkscape:vp_z="1902.48 : 342.68292 : 1"
       inkscape:persp3d-origin="942.48002 : 162.68292 : 1"
       id="perspective9576" /><inkscape:perspective
       sodipodi:type="inkscape:persp3d"
       inkscape:vp_x="-183.57422 : 567.27051 : 1"
       inkscape:vp_y="0 : 1000 : 0"
       inkscape:vp_z="1736.4258 : 567.27051 : 1"
       inkscape:persp3d-origin="776.42578 : 387.27051 : 1"
       id="perspective9546" /><rect
       x="11.417744"
       y="270.91282"
       width="347.04813"
       height="90.018619"
       id="rect28450" /><rect
       x="-366.89584"
       y="140.67661"
       width="451.08523"
       height="185.61756"
       id="rect18881" /><radialGradient
       xlink:href="#linearGradient3704"
       id="radialGradient3706"
       cx="2007.3448"
       cy="1737.1503"
       fx="2007.3448"
       fy="1737.1503"
       r="960"
       gradientTransform="matrix(0.00191417,-0.35381647,0.63230921,0.00342084,-812.33583,1044.758)"
       gradientUnits="userSpaceOnUse" /><linearGradient
       id="linearGradient3704"><stop
         style="stop-color:#26475b;stop-opacity:0;"
         offset="0.69804424"
         id="stop3702" /><stop
         style="stop-color:#26475b;stop-opacity:1;"
         offset="1"
         id="stop3700" /></linearGradient><radialGradient
       xlink:href="#linearGradient3714"
       id="radialGradient3716"
       cx="-55.602444"
       cy="1782.1582"
       fx="-55.602444"
       fy="1782.1582"
       r="960.29187"
       gradientTransform="matrix(0.5448247,0.00718471,-0.00342953,0.2600655,-239.58877,-185.30849)"
       gradientUnits="userSpaceOnUse" /><linearGradient
       id="linearGradient3714"><stop
         style="stop-color:#264d64;stop-opacity:0;"
         offset="0.52651834"
         id="stop3712" /><stop
         style="stop-color:#264d64;stop-opacity:1;"
         offset="1"
         id="stop3710" /></linearGradient><radialGradient
       xlink:href="#linearGradient3724"
       id="radialGradient3726"
       cx="1903.3966"
       cy="1837.443"
       fx="1903.3966"
       fy="1837.443"
       r="905.96039"
       gradientTransform="matrix(1.1064066e-4,-0.26458331,0.51778643,2.1652248e-4,-668.2075,773.25416)"
       gradientUnits="userSpaceOnUse" /><linearGradient
       id="linearGradient3724"><stop
         style="stop-color:#26536e;stop-opacity:0;"
         offset="0.72692394"
         id="stop3722" /><stop
         style="stop-color:#26536e;stop-opacity:1;"
         offset="1"
         id="stop3720" /></linearGradient><radialGradient
       xlink:href="#linearGradient3704"
       id="radialGradient3706-9"
       cx="2007.3448"
       cy="1737.1503"
       fx="2007.3448"
       fy="1737.1503"
       r="960"
       gradientTransform="matrix(0.00191417,-0.35381647,0.63230921,0.00342084,-812.33583,1044.758)"
       gradientUnits="userSpaceOnUse" /><radialGradient
       xlink:href="#linearGradient3714"
       id="radialGradient3716-0"
       cx="-55.602444"
       cy="1782.1582"
       fx="-55.602444"
       fy="1782.1582"
       r="960.29187"
       gradientTransform="matrix(0.5448247,0.00718471,-0.00342953,0.2600655,-239.58877,-185.30849)"
       gradientUnits="userSpaceOnUse" /><radialGradient
       xlink:href="#linearGradient3724"
       id="radialGradient3726-6"
       cx="1903.3966"
       cy="1837.443"
       fx="1903.3966"
       fy="1837.443"
       r="905.96039"
       gradientTransform="matrix(1.1064066e-4,-0.26458331,0.51778643,2.1652248e-4,-668.2075,773.25416)"
       gradientUnits="userSpaceOnUse" /><rect
       x="11.417744"
       y="270.91282"
       width="347.04813"
       height="90.018619"
       id="rect28450-7" /><rect
       x="-366.89584"
       y="140.67661"
       width="451.08523"
       height="185.61756"
       id="rect18881-9" /><radialGradient
       xlink:href="#linearGradient3704"
       id="radialGradient3706-2"
       cx="2007.3448"
       cy="1737.1503"
       fx="2007.3448"
       fy="1737.1503"
       r="960"
       gradientTransform="matrix(0.00191417,-0.35381647,0.63230921,0.00342084,-812.33583,1044.758)"
       gradientUnits="userSpaceOnUse" /><radialGradient
       xlink:href="#linearGradient3714"
       id="radialGradient3716-3"
       cx="-55.602444"
       cy="1782.1582"
       fx="-55.602444"
       fy="1782.1582"
       r="960.29187"
       gradientTransform="matrix(0.5448247,0.00718471,-0.00342953,0.2600655,-239.58877,-185.30849)"
       gradientUnits="userSpaceOnUse" /><radialGradient
       xlink:href="#linearGradient3724"
       id="radialGradient3726-9"
       cx="1903.3966"
       cy="1837.443"
       fx="1903.3966"
       fy="1837.443"
       r="905.96039"
       gradientTransform="matrix(1.1064066e-4,-0.26458331,0.51778643,2.1652248e-4,-668.2075,773.25416)"
       gradientUnits="userSpaceOnUse" /><filter
       inkscape:collect="always"
       style="color-interpolation-filters:sRGB"
       id="filter11498"
       x="-0.034729832"
       y="-6.4943599"
       width="1.0712872"
       height="13.98941"><feGaussianBlur
         inkscape:collect="always"
         stdDeviation="10.041096"
         id="feGaussianBlur11500" /></filter><filter
       inkscape:label="Cubes"
       inkscape:menu="Scatter"
       inkscape:menu-tooltip="Scattered cubes; adjust the Morphology primitive to vary size"
       style="color-interpolation-filters:sRGB;"
       id="filter302"
       x="-0.025894257"
       y="-0.016910057"
       width="1.0517885"
       height="1.0338201"><feTurbulence
         baseFrequency="0.14"
         numOctaves="1"
         type="fractalNoise"
         id="feTurbulence286" /><feColorMatrix
         values="1 0 0 0 0 0 1 0 0 0 0 0 1 0 0 0 0 0 6 -3.5 "
         result="result5"
         id="feColorMatrix288" /><feComposite
         in2="result5"
         operator="in"
         in="SourceGraphic"
         result="result6"
         id="feComposite290" /><feMorphology
         result="result3"
         radius="5"
         operator="dilate"
         in="result6"
         id="feMorphology292" /><feDisplacementMap
         result="result4"
         scale="0"
         yChannelSelector="A"
         xChannelSelector="R"
         in="result3"
         in2="result3"
         id="feDisplacementMap294" /><feComposite
         in2="result4"
         operator="arithmetic"
         result="result2"
         k1="1"
         k3="1"
         id="feComposite296" /><feBlend
         mode="darken"
         in="result2"
         in2="result2"
         id="feBlend298" /><feConvolveMatrix
         order="3 3"
         kernelMatrix="2 0 0 0 1 0 0 0 -1 "
         targetX="1"
         targetY="1"
         divisor="2"
         edgeMode="duplicate"
         id="feConvolveMatrix300" /></filter></defs><g
     inkscape:label="Calque 1"
     inkscape:groupmode="layer"
     id="layer1"
     sodipodi:insensitive="true"><rect
       style="opacity:1;fill:#4f4f74;fill-opacity:1;stroke:none;stroke-width:18.8976"
       id="rect5364"
       width="1957.9348"
       height="1118.7898"
       x="-19.954407"
       y="-14.032837" /></g><g
     inkscape:groupmode="layer"
     id="layer5"
     inkscape:label="Calque 5"
     style="opacity:1;fill:#4f4f74;fill-opacity:1;stroke:#0d0000;stroke-width:6;stroke-dasharray:none;stroke-opacity:1"><path
       style="opacity:1;fill:#1a1a1a;fill-opacity:1;stroke:#1a1a1a;stroke-width:10;stroke-dasharray:none;stroke-dashoffset:0;stroke-opacity:1;filter:url(#filter11498)"
       d="m 1150.0685,759.53644 c 693.6214,-4.17493 694.755,-4.48011 694.755,-4.48011"
       id="path11496"
       transform="matrix(0.22828173,0.10772132,-0.23136737,1.0871826,178.67232,-226.37074)" /><path
       style="opacity:1;fill:#1a1a1a;fill-opacity:1;stroke:#1a1a1a;stroke-width:10;stroke-dasharray:none;stroke-dashoffset:0;stroke-opacity:1;filter:url(#filter11498)"
       d="m 1150.0685,759.53644 c 693.6214,-4.17493 694.755,-4.48011 694.755,-4.48011"
       id="path419"
       transform="matrix(0.24020905,0.04664859,0.00398082,1.1234263,335.85862,-167.6706)" /><path
       style="opacity:1;fill:#1a1a1a;fill-opacity:1;stroke:#1a1a1a;stroke-width:10;stroke-dasharray:none;stroke-dashoffset:0;stroke-opacity:1;filter:url(#filter11498)"
       d="m 1150.0685,759.53644 c 693.6214,-4.17493 694.755,-4.48011 694.755,-4.48011"
       id="path421"
       transform="matrix(0.26561436,-0.05091879,0.0519014,1.1191538,436.12808,-27.27373)" /></g><g
     inkscape:groupmode="layer"
     id="layer2"
     inkscape:label="Calque 2"><g
       sodipodi:type="inkscape:box3d"
       id="g9548"
       style="opacity:1;fill:#4f4f74;fill-opacity:1;stroke:#0d0000;stroke-width:6;stroke-dasharray:none;stroke-opacity:1"
       inkscape:perspectiveID="#perspective9546"
       inkscape:corner0="0.50896419 : 0.54547732 : 0 : 1"
       inkscape:corner7="0.20057101 : 0.19049005 : 0.25 : 1"><path
         sodipodi:type="inkscape:box3dside"
         id="path9560"
         style="fill:#e9e9ff;fill-rule:evenodd;stroke:none;stroke-linejoin:round"
         inkscape:box3dsidetype="11"
         d="M 635.08941,304.94964 809.1383,260.77539 v 244.72243 l -174.04889,1.2679 z"
         points="809.1383,260.77539 809.1383,505.49782 635.08941,506.76572 635.08941,304.94964 " /><path
         sodipodi:type="inkscape:box3dside"
         id="path9550"
         style="fill:#353564;fill-rule:evenodd;stroke:none;stroke-linejoin:round"
         inkscape:box3dsidetype="6"
         d="m 452.62378,270.52539 v 235.25228 l 182.46563,0.98805 V 304.94964 Z"
         points="452.62378,505.77767 635.08941,506.76572 635.08941,304.94964 452.62378,270.52539 " /><path
         sodipodi:type="inkscape:box3dside"
         id="path9552"
         style="fill:#4d4d9f;fill-rule:evenodd;stroke:none;stroke-linejoin:round"
         inkscape:box3dsidetype="5"
         d="M 452.62378,270.52539 616.04529,208.30991 809.1383,260.77539 635.08941,304.94964 Z"
         points="616.04529,208.30991 809.1383,260.77539 635.08941,304.94964 452.62378,270.52539 " /><path
         sodipodi:type="inkscape:box3dside"
         id="path9558"
         style="fill:#afafde;fill-rule:evenodd;stroke:none;stroke-linejoin:round"
         inkscape:box3dsidetype="13"
         d="m 452.62378,505.77767 163.42151,-1.78573 193.09301,1.50588 -174.04889,1.2679 z"
         points="616.04529,503.99194 809.1383,505.49782 635.08941,506.76572 452.62378,505.77767 " /><path
         sodipodi:type="inkscape:box3dside"
         id="path9556"
         style="fill:#d7d7ff;fill-rule:evenodd;stroke:none;stroke-linejoin:round"
         inkscape:box3dsidetype="14"
         d="m 616.04529,208.30991 v 295.68203 l 193.09301,1.50588 V 260.77539 Z"
         points="616.04529,503.99194 809.1383,505.49782 809.1383,260.77539 616.04529,208.30991 " /><path
         sodipodi:type="inkscape:box3dside"
         id="path9554"
         style="fill:#8686bf;fill-rule:evenodd;stroke:none;stroke-linejoin:round"
         inkscape:box3dsidetype="3"
         d="m 452.62378,270.52539 163.42151,-62.21548 v 295.68203 l -163.42151,1.78573 z"
         points="616.04529,208.30991 616.04529,503.99194 452.62378,505.77767 452.62378,270.52539 " /></g><path
       d="m 780.12499,465.95046 v 295.68203 l 193.093,-39.5373 V 477.37276 Z"
       style="fill:#d7d7ff;fill-opacity:1;fill-rule:evenodd;stroke:none;stroke-width:6;stroke-linejoin:round;stroke-dasharray:none;stroke-opacity:1"
       id="path405" /><path
       d="M 618.67801,493.74482 782.09952,466.26566 V 761.94769 L 618.67801,728.9971 Z"
       style="fill:#8686bf;fill-opacity:1;fill-rule:evenodd;stroke:none;stroke-width:6;stroke-linejoin:round;stroke-dasharray:none;stroke-opacity:1"
       id="path407" /><path
       d="M 258.41548,485.70962 421.837,497.13702 V 792.81905 L 258.41548,720.9619 Z"
       style="fill:#8686bf;fill-opacity:1;fill-rule:evenodd;stroke:none;stroke-width:6;stroke-linejoin:round;stroke-dasharray:none;stroke-opacity:1"
       id="path387" /><path
       style="opacity:0.500151;fill:none;fill-opacity:1;stroke:#8686bf;stroke-width:6.87989;stroke-dasharray:55.0391, 13.7598, 6.87989, 13.7598;stroke-dashoffset:0;stroke-opacity:1"
       d="M 617.5824,398.81093 140.25622,359.13767"
       id="path9920" /><path
       style="opacity:0.5;fill:#ff0000;fill-opacity:1;stroke:#8686bf;stroke-width:6.71464;stroke-dasharray:53.7171, 13.4293, 6.71464, 13.4293;stroke-dashoffset:0;stroke-opacity:1"
       d="M 620.92211,494.23408 1313.6105,372.04936"
       id="path9648" /><path
       style="opacity:0.5;fill:#ffff00;fill-opacity:1;stroke:#8686bf;stroke-width:8.85796;stroke-dasharray:70.8637, 17.7159, 8.85796, 17.7159;stroke-dashoffset:0;stroke-opacity:1"
       d="m 617.4291,95.837088 -1.03423,821.699482 v 7.33759"
       id="path9922" /><path
       d="M 426.04041,357.43815 V 653.12018 L 619.13342,620.57856 V 375.85613 Z"
       style="fill:#d7d7ff;fill-opacity:1;fill-rule:evenodd;stroke:none;stroke-width:6;stroke-linejoin:round;stroke-dasharray:none;stroke-opacity:1;filter:url(#filter302)"
       id="path385"
       transform="matrix(0.92614221,0,0,0.90513018,35.097114,62.435744)" /></g><g
     inkscape:groupmode="layer"
     id="layer3"
     inkscape:label="Calque 3"><path
       style="font-size:12px;opacity:0.333968;fill-rule:evenodd;stroke-width:0.378804pt"
       d="m 339.87713,509.64059 c -42.1179,-16.37894 -76.3061,22.40434 -76.3061,86.58133 0,29.5582 7.2602,59.36757 19.1988,84.53138 l 31.4833,11.98033 0.1439,-78.01759 51.0945,19.8698 0.2781,-76.89869 30.5627,12.00223 c -13.9605,-28.82338 -34.0847,-51.34927 -56.4552,-60.04879 z m 56.4552,60.04879 c 12.3238,25.44421 19.8413,55.78679 19.8413,85.87718 0,64.17492 -34.1783,102.97873 -76.2965,86.59964 -22.7189,-8.835 -43.1256,-31.94264 -57.1073,-61.4129 l -18.7769,-7.14128 0.2781,40.4235 152.7369,59.17768 -0.5562,-195.61204 z"
       id="path148"
       inkscape:connector-curvature="0" /><path
       i:knockout="Off"
       fill="#51a1d0"
       d="m 887.28966,625.72893 c -2.72348,-1.92313 0.004,2.19925 3.34394,5.48616 1.25486,-0.28656 2.42253,-0.65082 3.48601,-1.05771 -2.39958,-0.89766 -4.64626,-2.51405 -6.82995,-4.42845"
       id="path879977"
       style="display:none;opacity:0.567867;fill:#51a1d0;fill-opacity:1;stroke-width:1.89104" /><path
       i:knockout="Off"
       fill="#51a1d0"
       d="m 763.91713,382.3438 c -1.32686,5.01662 -3.3787,6.50073 -5.8511,9.91045 l -2.56163,-0.14956 c -3.02755,2.9782 -0.62438,2.7666 -2.89159,5.23042 -3.66506,1.11595 -11.20723,3.66858 -13.18466,3.03229 -1.30548,-0.92343 1.45718,-1.28112 1.96345,-1.81023 -4.63336,0.58471 -4.36496,2.62518 -10.59692,0.67483 l -0.0324,-0.55863 c -16.37584,-1.46005 -31.0533,-30.36276 -24.32423,-51.74854 -0.56032,1.26777 -0.73266,0.74057 -1.20857,1.0847 2.60929,-11.57879 10.90245,-19.38197 20.61298,-18.30108 9.63242,0.60906 18.59761,9.07413 22.46083,19.62249 -1.68032,-7.26512 -6.44947,-16.98227 -14.17702,-21.58733 -7.46332,-4.86425 -16.12178,-3.83163 -20.30191,0.81025 -4.67289,0.33629 -7.60103,8.32096 -9.71285,8.71901 -8.19097,18.35093 -4.34552,31.26135 3.48681,48.68016 1.29011,2.55072 0,1.93359 -0.0898,3.15392 -2.99395,-4.48347 -5.37029,-9.8054 -6.95084,-15.42451 0.6737,3.53039 1.48309,7.06692 2.9075,10.37756 -2.98302,-3.69283 -4.94712,-15.35639 -6.16921,-16.60199 2.04342,16.68693 17.09499,38.3801 27.91442,39.95477 -4.4031,-2.73658 -9.89703,-6.54678 -14.12224,-12.02767 -1.66616,-2.66204 -3.65923,-7.19239 -3.01209,-7.3519 11.07257,14.4478 24.73295,21.97119 39.05677,18.67802 3.62026,-0.7597 8.06223,-3.21088 8.97139,-2.67275 -2.07525,1.53955 -0.12411,1.3301 -1.80231,2.79374 4.46075,-3.59808 -0.54968,-3.06022 5.75503,-7.52799 l 0.76006,3.57241 c 0.80291,-4.9429 7.70525,-6.94663 9.33958,-14.51846 1.86404,-1.39519 0.62853,3.27821 -2.17105,7.49248 3.46024,-4.43582 2.42844,-6.22027 4.27833,-10.55851 0.0222,1.8928 0.16891,3.98729 0.009,5.85809 0.48091,-6.21801 3.93477,-8.3634 5.46201,-11.13524 -0.47749,-0.69034 -2.50184,1.20499 -0.84836,-5.40793 0.87862,-2.76388 1.08002,-1.03107 1.5179,-1.56158 -0.35773,-0.6197 -0.90139,-3.55995 -0.39058,-8.15063 0.8129,-0.61114 0.6476,3.44368 1.31677,4.06598 0.5221,-3.57198 0.48082,-6.59236 1.20052,-9.11762 -0.49776,-6.67067 -0.94637,0.20581 -1.74372,-3.89628 0.29941,-9.86181 2.41983,-0.70288 3.83536,-4.32111 1.58583,8.15548 0.75719,18.57778 0.49924,22.95251 0.7148,-5.06333 0.97339,-10.26158 0.94961,-15.47536 0.86288,1.20669 1.20793,-10.59561 2.18345,-1.96698 1.07446,-16.26584 -5.35196,-36.4773 -13.05055,-49.12088 0.77987,2.08652 1.76733,4.71174 1.16027,4.60938 -3.72347,-6.63762 -2.80718,-6.34089 -3.05291,-8.25011 -3.29947,-4.5227 -4.17319,-2.63028 -6.69317,-4.51145 -5.89016,-9.617 -7.44683,-10.06707 -13.28128,-17.53891 l -0.21408,1.93674 c -4.24973,-5.21469 -5.85675,-3.0602 -10.86302,-7.32056 -0.22778,-0.51578 2.00195,0.0405 3.72874,0.85756 -4.90002,-2.40657 -4.12108,-4.12292 -9.09329,-5.88654 1.41571,-0.19836 2.79811,-0.0287 4.24594,-0.0323 -3.89719,-2.29156 -9.91018,-3.45125 -7.61936,-4.54027 -7.22897,-0.83269 -19.69198,-3.56298 -28.00531,-0.70056 l 0.27859,-1.71011 c -4.08119,2.21654 -16.09133,3.98659 -18.45915,8.82573 l -0.82382,-0.29737 c -2.38874,2.03595 -4.377,4.82837 -6.48659,7.15849 -3.13186,2.68816 -3.29438,-0.37539 -3.20747,0.436 -6.60728,6.77801 -10.85312,13.3549 -14.41804,18.69253 0.53015,2.89041 -3.77937,12.69758 -5.88063,21.45569 -14.45839,40.50187 -0.53552,98.69029 25.18832,127.31086 3.63822,4.63532 9.87944,8.76255 15.11451,12.51814 -5.59307,-6.37525 -6.70502,-5.90281 -12.01431,-12.57482 -3.6347,-5.46298 -3.7379,-8.97057 -5.86314,-14.33473 l 0.43862,3.46339 c -5.30865,-6.72448 -2.57237,-5.62505 -6.95824,-10.8726 l 1.93762,-1.19299 c -1.9205,-1.51333 -4.01936,-7.56354 -4.26925,-10.29741 l -2.19151,-1.35436 c -1.43006,-5.63361 -1.97298,-9.36466 -1.22181,-11.46384 l -1.15045,1.03646 c -0.29701,-2.17983 -5.17824,-21.00302 -1.53668,-14.93124 -0.56347,-1.50512 -1.50929,-2.84914 -1.92171,-6.34973 l 1.31039,-0.65799 c -1.16295,-4.88576 -1.68838,-10.49698 -1.11149,-11.85931 0.59327,2.697 1.29558,3.60005 1.99871,4.46699 -0.53533,-20.33419 -5.55771,-4.85 -4.93852,-23.66284 l 0.91074,0.51068 c -0.30645,-1.69588 -0.31432,-3.31848 -0.46379,-5.0061 l 1.78213,-4.39211 c -2.30294,-8.25475 6.00234,-24.44335 9.56041,-33.99467 1.61128,-3.77295 5.82418,-6.10404 10.07187,-11.35126 l -1.26892,-1.19583 c 4.23038,-3.72504 21.37202,-12.00335 26.76109,-7.34644 3.9842,-2.31855 -0.53838,-0.38149 -0.75792,-1.79092 8.26751,-3.48123 9.49192,0.003 13.95184,1.38301 5.31549,-0.19572 -4.11988,-1.30452 -1.31881,-2.33208 8.25863,2.75816 6.95222,-1.70565 17.16635,3.75716 0.82438,1.41872 -2.74582,-0.51997 -3.89192,-0.17429 7.41694,0.51401 20.78912,10.55673 28.15201,21.48465 8.5237,12.74654 14.89895,37.72854 10.49511,54.21591 l 0.46694,0.51848 c -2.19372,6.25455 -3.3526,14.41765 -7.26617,19.99407 l 2.23852,-2.37945"
       id="path879987"
       style="opacity:0.567867;fill:#59597f;fill-opacity:1;stroke:none;stroke-width:1.685;stroke-opacity:1" /><g
       id="g1"
       transform="matrix(0.2496,-0.04367434,0,0.2496,544.9984,507.59694)"><path
         fill="#000000"
         d="m 492.48455,202.14778 c -3.6193,0.11232 -7.5172,1.4493 -11.938,4.9375 -10.83,-4.1763 -21.33,-5.6271 -30.72,2.8751 -14.5,-1.8808 -19.212,2.0002 -22.782,6.5312 -3.183,-0.066 -23.819,-3.272 -33.282,10.844 -23.781,-2.814 -31.297,13.988 -22.781,29.656 -4.8569,7.519 -9.8895,14.947 1.4688,29.281 -4.018,7.9835 -1.5274,16.644 7.9375,27.125 -2.4979,11.223 2.4121,19.141 11.219,25.312 -1.6471,15.358 14.084,24.287 18.781,27.469 1.8037,8.9487 5.5629,17.393 23.531,22.062 2.9632,13.336 13.762,15.639 24.219,18.438 -34.562,20.09 -64.201,46.523 -64,111.38 l -5.0625,9.0312 c -39.63,24.1 -75.285,101.56 -19.53,164.52 3.6419,19.708 9.7496,33.864 15.188,49.531 8.1338,63.131 61.218,92.692 75.219,96.188 20.517,15.628 42.368,30.457 71.938,40.844 27.875,28.749 58.074,39.706 88.438,39.688 0.44515,-2.8e-4 0.89853,0.005 1.3438,0 30.364,0.0189 60.562,-10.938 88.438,-39.688 29.569,-10.387 51.421,-25.216 71.938,-40.844 14.001,-3.4959 67.085,-33.057 75.219,-96.188 5.4379,-15.667 11.546,-29.823 15.188,-49.531 55.754,-62.965 20.1,-140.43 -19.531,-164.53 l -5.07,-9.03 c 0.20067,-64.852 -29.438,-91.285 -64,-111.38 10.457,-2.7984 21.256,-5.1014 24.219,-18.438 17.968,-4.6698 21.728,-13.114 23.531,-22.062 4.6978,-3.1813 20.428,-12.111 18.781,-27.469 8.8067,-6.1716 13.717,-14.09 11.219,-25.312 9.4649,-10.481 11.956,-19.141 7.9375,-27.125 11.36,-14.328 6.32,-21.756 1.47,-29.275 8.51,-15.668 1,-32.47 -22.79,-29.656 -9.46,-14.116 -30.09,-10.91 -33.28,-10.844 -3.57,-4.531 -8.28,-8.412 -22.78,-6.5312 -9.39,-8.5022 -19.89,-7.0514 -30.72,-2.875 -12.86,-10.148 -21.37,-2.0133 -31.09,1.0624 -15.57,-5.0877 -19.13,1.881 -26.78,4.7188 -16.98,-3.5881 -22.14,4.224 -30.28,12.469 l -9.4688,-0.1875 c -25.611,15.093 -38.334,45.826 -42.844,61.625 -4.5121,-15.802 -17.206,-46.535 -42.812,-61.625 l -9.4688,0.1875 c -8.15,-8.245 -13.31,-16.057 -30.29,-12.469 -7.65,-2.8378 -11.2,-9.8065 -26.78,-4.7188 -6.3797,-2.0185 -12.247,-6.2144 -19.156,-6 z"
         id="path1427"
         inkscape:highlight-color="#8686bf"
         style="fill:#59597f;fill-opacity:1" /><path
         fill="#75a928"
         d="m 441.49455,268.54758 c 67.948,35.031 107.45,63.369 129.09,87.504 -11.082,44.418 -68.896,46.445 -90.036,45.199 4.3284,-2.0147 7.9399,-4.4278 9.2205,-8.1357 -5.3045,-3.7698 -24.113,-0.39719 -37.244,-7.7742 5.0441,-1.045 7.4035,-2.063 9.7629,-5.7854 -12.406,-3.9567 -25.769,-7.3664 -33.628,-13.921 4.2413,0.0524 8.2012,0.9488 13.74,-2.8927 -11.112,-5.9882 -22.969,-10.734 -32.181,-19.887 5.7452,-0.14063 11.939,-0.0568 13.74,-2.1695 -10.17,-6.3007 -18.751,-13.308 -25.854,-20.972 8.04,0.97052 11.435,0.13478 13.379,-1.2656 -7.6878,-7.8742 -17.418,-14.523 -22.057,-24.226 5.9696,2.0575 11.431,2.8451 15.368,-0.1808 -2.6124,-5.8935 -13.805,-9.3696 -20.249,-23.142 6.2844,0.60938 12.95,1.3711 14.283,0 -2.917,-11.884 -7.922,-18.565 -12.831,-25.487 13.45,-0.2 33.828,0.052 32.905,-1.085 l -8.3165,-8.4973 c 13.138,-3.5372 26.581,0.56816 36.34,3.6159 4.3819,-3.4577 -0.0776,-7.83 -5.4238,-12.294 11.165,1.4906 21.254,4.0574 30.373,7.5934 4.8724,-4.3993 -3.1639,-8.7987 -7.051,-13.198 17.249,3.2726 24.557,7.8707 31.82,12.475 5.2694,-5.0508 0.30166,-9.3433 -3.2543,-13.74 13.006,4.817 19.705,11.036 26.758,17.175 2.3912,-3.2271 6.0749,-5.5924 1.6272,-13.379 9.2342,5.3227 16.189,11.595 21.334,18.622 5.7134,-3.6379 3.4039,-8.613 3.4351,-13.198 9.5966,7.8065 15.687,16.114 23.142,24.226 1.5017,-1.0934 2.8166,-4.8017 3.9775,-10.667 22.895,22.212 55.246,78.158 8.3165,100.34 -39.94,-32.94 -87.64,-56.883 -140.5,-74.844 z"
         id="path1429"
         style="fill:#8686bf;fill-opacity:1" /><path
         fill="#75a928"
         d="m 802.02455,268.54758 c -67.94,35.034 -107.44,63.364 -129.08,87.504 11.082,44.418 68.896,46.445 90.036,45.199 -4.3284,-2.0147 -7.9399,-4.4278 -9.2205,-8.1357 5.3045,-3.7698 24.113,-0.39719 37.244,-7.7742 -5.0441,-1.045 -7.4035,-2.063 -9.7629,-5.7854 12.406,-3.9567 25.769,-7.3664 33.628,-13.921 -4.2413,0.0524 -8.2012,0.9488 -13.74,-2.8927 11.112,-5.9882 22.969,-10.734 32.181,-19.887 -5.7452,-0.14063 -11.939,-0.0568 -13.74,-2.1695 10.17,-6.3007 18.751,-13.308 25.854,-20.972 -8.04,0.97052 -11.435,0.13478 -13.379,-1.2656 7.6878,-7.8742 17.418,-14.523 22.057,-24.226 -5.9696,2.0575 -11.431,2.8451 -15.368,-0.1808 2.6124,-5.8935 13.805,-9.3696 20.249,-23.142 -6.2844,0.60938 -12.95,1.3711 -14.283,0 2.9223,-11.889 7.9275,-18.57 12.836,-25.492 -13.45,-0.19973 -33.828,0.0524 -32.905,-1.0848 l 8.3165,-8.4973 c -13.138,-3.5372 -26.581,0.56816 -36.34,3.6159 -4.3819,-3.4577 0.0776,-7.83 5.4238,-12.294 -11.165,1.4906 -21.254,4.0574 -30.373,7.5934 -4.8724,-4.3993 3.1639,-8.7987 7.051,-13.198 -17.249,3.2726 -24.557,7.8707 -31.82,12.475 -5.2694,-5.0508 -0.30166,-9.3433 3.2543,-13.74 -13.006,4.817 -19.705,11.036 -26.758,17.175 -2.3912,-3.2271 -6.0749,-5.5924 -1.6272,-13.379 -9.2342,5.3227 -16.189,11.595 -21.334,18.622 -5.7134,-3.6379 -3.4039,-8.613 -3.4351,-13.198 -9.5966,7.8065 -15.687,16.114 -23.142,24.226 -1.5017,-1.0934 -2.8166,-4.8017 -3.9775,-10.667 -22.895,22.212 -55.246,78.158 -8.3165,100.34 39.919,-32.947 87.616,-56.888 140.48,-74.849 z"
         id="path1431"
         style="fill:#8686bf;fill-opacity:1" /><path
         fill="#bc1142"
         d="m 704.04569,720.85334 a 81.389935,75.051403 0 1 1 -162.77761,0 81.389935,75.051403 0 1 1 162.77761,0 z"
         id="path1433"
         style="fill:#8686bf;fill-opacity:1;stroke-width:1.12958" /><path
         fill="#bc1142"
         d="M 575.56278,506.45827 A 72.998843,86.129678 34.034226 1 1 480.59494,650.17054 72.998843,86.129678 34.034226 1 1 575.56278,506.45827 Z"
         id="path1435"
         style="fill:#8686bf;fill-opacity:1;stroke-width:1.90077" /><path
         fill="#bc1142"
         d="M 666.58659,502.45827 A 86.129678,72.998843 55.965774 1 0 761.55443,646.17054 86.129678,72.998843 55.965774 1 0 666.58659,502.45827 Z"
         id="path1437"
         style="fill:#8686bf;fill-opacity:1;stroke-width:1.90077" /><path
         fill="#bc1142"
         d="m 407.01455,542.58158 c 36.41,-9.76 12.292,150.63 -17.333,137.47 -32.587,-26.21 -43.083,-102.97 17.333,-137.47 z"
         id="path1439"
         inkscape:highlight-color="#8686bf"
         style="fill:#8686bf;fill-opacity:1" /><path
         fill="#bc1142"
         d="m 827.78455,540.58158 c -36.414,-9.7569 -12.292,150.64 17.333,137.48 32.587,-26.213 43.083,-102.98 -17.333,-137.48 z"
         id="path1441"
         style="fill:#8686bf;fill-opacity:1" /><path
         fill="#bc1142"
         d="m 704.07455,421.14158 c 62.835,-10.61 115.12,26.722 113.01,94.858 -2.0669,26.121 -136.16,-90.969 -113.01,-94.858 z"
         id="path1443"
         style="fill:#8686bf;fill-opacity:1" /><path
         fill="#bc1142"
         d="m 530.46455,419.14158 c -62.84,-10.61 -115.12,26.73 -113.01,94.86 2.067,26.12 136.16,-90.97 113.01,-94.86 z"
         id="path1445"
         style="fill:#8686bf;fill-opacity:1" /><path
         fill="#bc1142"
         d="m 620.72455,403.25158 c -37.503,-0.97548 -73.495,27.834 -73.582,44.544 -0.10462,20.304 29.651,41.093 73.837,41.62 45.123,0.32321 73.916,-16.64 74.061,-37.594 0.16484,-23.74 -41.039,-48.937 -74.317,-48.571 z"
         id="path1447"
         style="fill:#8686bf;fill-opacity:1" /><path
         fill="#bc1142"
         d="m 623.01455,819.61158 c 32.697,-1.4271 76.571,10.532 76.657,26.396 0.5427,15.405 -39.79,50.211 -78.826,49.538 -40.427,1.7439 -80.069,-33.116 -79.55,-45.199 -0.60506,-17.716 49.226,-31.548 81.719,-30.735 z"
         id="path1449"
         style="fill:#8686bf;fill-opacity:1" /><path
         fill="#bc1142"
         d="m 502.24455,725.59158 c 23.279,28.046 33.891,77.319 14.464,91.844 -18.379,11.088 -63.012,6.5216 -94.736,-39.052 -21.395,-38.242 -18.638,-77.157 -3.6159,-88.589 22.464,-13.684 57.173,4.799 83.889,35.797 z"
         id="path1451"
         style="fill:#8686bf;fill-opacity:1" /><path
         fill="#bc1142"
         d="m 739.12455,716.70158 c -25.187,29.502 -39.212,83.31 -20.838,100.64 17.568,13.464 64.729,11.582 99.566,-36.756 25.296,-32.465 16.82,-86.682 2.3708,-101.08 -21.464,-16.602 -52.277,4.6449 -81.099,37.188 z"
         id="path1453"
         style="fill:#8686bf;fill-opacity:1" /></g></g><g
     inkscape:groupmode="layer"
     id="layer4"
     inkscape:label="Calque 4"><text
       xml:space="preserve"
       id="text10286"
       style="font-size:74.6667px;font-family:'PT Sans Caption';-inkscape-font-specification:'PT Sans Caption';white-space:pre;shape-inside:url(#rect10288);display:inline;opacity:0.567867;fill:#ececec;fill-opacity:1;stroke:none;stroke-width:6;stroke-dasharray:none;stroke-dashoffset:0;stroke-opacity:1"><tspan
         x="672.82031"
         y="902.22269"
         id="tspan4"><tspan
           style="font-family:'Noto Sans';-inkscape-font-specification:'Noto Sans'"
           id="tspan3">Pi Step initiative</tspan></tspan></text></g></svg>
