<?xml version="1.0" encoding="UTF-8" standalone="no"?>
<!-- Created with Inkscape (http://www.inkscape.org/) -->

<svg
   width="210mm"
   height="297mm"
   viewBox="0 0 210 297"
   version="1.1"
   id="svg1210"
   inkscape:version="1.2.2 (b0a8486541, 2022-12-01)"
   sodipodi:docname="login_banniere.svg"
   xml:space="preserve"
   inkscape:export-filename="login_banniere.png"
   inkscape:export-xdpi="96"
   inkscape:export-ydpi="96"
   xmlns:inkscape="http://www.inkscape.org/namespaces/inkscape"
   xmlns:sodipodi="http://sodipodi.sourceforge.net/DTD/sodipodi-0.dtd"
   xmlns="http://www.w3.org/2000/svg"
   xmlns:svg="http://www.w3.org/2000/svg"
   xmlns:i="http://ns.adobe.com/AdobeIllustrator/10.0/"><sodipodi:namedview
     id="namedview1212"
     pagecolor="#ffffff"
     bordercolor="#000000"
     borderopacity="0.25"
     inkscape:showpageshadow="2"
     inkscape:pageopacity="0.0"
     inkscape:pagecheckerboard="0"
     inkscape:deskcolor="#d1d1d1"
     inkscape:document-units="mm"
     showgrid="false"
     inkscape:zoom="0.78127806"
     inkscape:cx="316.78862"
     inkscape:cy="561.89982"
     inkscape:window-width="1447"
     inkscape:window-height="1047"
     inkscape:window-x="177"
     inkscape:window-y="0"
     inkscape:window-maximized="0"
     inkscape:current-layer="layer1" /><defs
     id="defs1207"><rect
       x="59.522159"
       y="393.88913"
       width="651.35153"
       height="86.069057"
       id="rect891" /><filter
       style="color-interpolation-filters:sRGB;"
       inkscape:label="Greyscale"
       id="filter2523"
       x="0"
       y="0"
       width="1"
       height="1"><feColorMatrix
         values="0.21 0.72 0.072 0 0 0.21 0.72 0.072 0 0 0.21 0.72 0.072 0 0 0 0 0 1 0 "
         id="feColorMatrix2521" /></filter><rect
       x="59.522159"
       y="393.88913"
       width="651.35153"
       height="86.069057"
       id="rect1105" /></defs><g
     inkscape:label="Layer 1"
     inkscape:groupmode="layer"
     id="layer1"><g
       id="g965"
       inkscape:export-filename="banniere_PISIN_UG.png"
       inkscape:export-xdpi="118.52277"
       inkscape:export-ydpi="118.52277"><g
         id="g347"
         transform="matrix(1,0,0,1.015793,0,-3.2379365)"
         style="stroke:#000000;stroke-opacity:1;fill:none;opacity:0.4848161"><path
           d="m 149.44092,130.56202 v 38.87552 l 51.08919,0.19799 v -32.17548 z"
           style="fill:none;fill-opacity:1;fill-rule:evenodd;stroke:#000000;stroke-width:1.11907;stroke-linejoin:round;stroke-dasharray:none;stroke-opacity:1"
           id="path390" /><path
           d="m 149.44092,166.14781 v 38.87553 l 51.08919,-5.19827 v -32.17548 z"
           style="fill:none;fill-opacity:1;fill-rule:evenodd;stroke:#000000;stroke-width:1.11907;stroke-linejoin:round;stroke-dasharray:none;stroke-opacity:1"
           id="path405" /></g><g
         id="g353"
         transform="matrix(1,0,0,1.0173314,0,-3.5512741)"
         style="fill:none;stroke:#000000;stroke-opacity:1"><path
           d="m 104.92956,169.64187 43.23859,-3.61289 v 38.87553 l -43.23859,-4.33226 z"
           style="fill:none;fill-opacity:1;fill-rule:evenodd;stroke:#000000;stroke-width:1.11907;stroke-linejoin:round;stroke-dasharray:none;stroke-opacity:1"
           id="path407" /><g
           id="g432"
           transform="matrix(0.26458333,0,0,0.13147747,-14.951729,103.26058)"
           style="fill:none;stroke:#000000;stroke-opacity:1"><path
             d="m 452.62378,270.52539 163.42151,-62.21548 v 295.68203 l -163.42151,1.78573 z"
             style="fill:none;fill-opacity:1;fill-rule:evenodd;stroke:#000000;stroke-width:6;stroke-linejoin:round;stroke-dasharray:none;stroke-opacity:1"
             id="path392" /><path
             d="m 453.09456,427.29418 163.42152,11.4274 V 734.40361 L 453.09456,662.54646 Z"
             style="fill:none;fill-opacity:1;fill-rule:evenodd;stroke:#000000;stroke-width:6;stroke-linejoin:round;stroke-dasharray:none;stroke-opacity:1"
             id="path387" /></g></g><g
         id="g357"
         style="stroke:#000000;stroke-opacity:1;fill:none;opacity:0.50522428"><path
           d="m 53.645018,131.23665 v 38.87552 l 51.089192,0.19799 v -32.17548 z"
           style="fill:none;fill-opacity:1;fill-rule:evenodd;stroke:#000000;stroke-width:1.11907;stroke-linejoin:round;stroke-dasharray:none;stroke-opacity:1"
           id="path1983" /><path
           d="m 53.645018,166.82244 v 38.87553 l 51.089192,-5.19827 v -32.17548 z"
           style="fill:none;fill-opacity:1;fill-rule:evenodd;stroke:#000000;stroke-width:1.11907;stroke-linejoin:round;stroke-dasharray:none;stroke-opacity:1"
           id="path1985" /></g><g
         id="g363"
         style="fill:none;stroke:#000000;stroke-opacity:1;opacity:0.47063054"><path
           d="m 9.133654,170.3165 43.238594,-3.61289 v 38.87553 L 9.133654,201.24688 Z"
           style="fill:none;fill-opacity:1;fill-rule:evenodd;stroke:#000000;stroke-width:1.11907;stroke-linejoin:round;stroke-dasharray:none;stroke-opacity:1"
           id="path1987" /><g
           id="g1993"
           transform="matrix(0.26458333,0,0,0.13147747,-110.74763,103.93521)"
           style="fill:none;stroke:#000000;stroke-opacity:1"><path
             d="m 452.62378,270.52539 163.42151,-62.21548 v 295.68203 l -163.42151,1.78573 z"
             style="fill:none;fill-opacity:1;fill-rule:evenodd;stroke:#000000;stroke-width:6;stroke-linejoin:round;stroke-dasharray:none;stroke-opacity:1"
             id="path1989" /><path
             d="m 453.09456,427.29418 163.42152,11.4274 V 734.40361 L 453.09456,662.54646 Z"
             style="fill:none;fill-opacity:1;fill-rule:evenodd;stroke:#000000;stroke-width:6;stroke-linejoin:round;stroke-dasharray:none;stroke-opacity:1"
             id="path1991" /></g></g><path
         i:knockout="Off"
         fill="#51a1d0"
         d="m 43.053279,175.09849 c -0.35106,1.32732 -0.89395,1.71999 -1.5481,2.62214 l -0.67777,-0.0396 c -0.80104,0.78798 -0.1652,0.732 -0.76506,1.38388 -0.96972,0.29527 -2.96525,0.97065 -3.48844,0.8023 -0.34541,-0.24433 0.38554,-0.33897 0.51949,-0.47896 -1.22591,0.15471 -1.15489,0.69458 -2.80377,0.17855 l -0.009,-0.1478 c -4.33277,-0.38631 -8.216191,-8.03349 -6.435791,-13.69181 -0.14825,0.33543 -0.19384,0.19594 -0.31976,0.28699 0.69037,-3.06355 2.884601,-5.12814 5.453851,-4.84216 2.54858,0.16115 4.92062,2.40087 5.94276,5.19179 -0.44459,-1.92223 -1.70642,-4.49323 -3.751,-5.71165 -1.97467,-1.287 -4.26556,-1.01379 -5.37155,0.21438 -1.236371,0.089 -2.011111,2.20159 -2.569861,2.3069 -2.16719,4.85535 -1.14975,8.27124 0.92255,12.87997 0.34134,0.67487 0,0.51159 -0.0238,0.83447 -0.79215,-1.18625 -1.42089,-2.59434 -1.83907,-4.08107 0.17825,0.93408 0.3924,1.86979 0.76927,2.74573 -0.78925,-0.97706 -1.30892,-4.06304 -1.63227,-4.39261 0.54066,4.41509 4.523051,10.15474 7.385691,10.57137 -1.16498,-0.72406 -2.61859,-1.73217 -3.736511,-3.18232 -0.44083,-0.70433 -0.96817,-1.90299 -0.79695,-1.94519 2.929621,3.82264 6.543931,5.81321 10.333781,4.94189 0.95786,-0.201 2.13313,-0.84955 2.37368,-0.70717 -0.54908,0.40734 -0.0328,0.35193 -0.47687,0.73918 1.18024,-0.95199 -0.14543,-0.80968 1.52269,-1.99178 l 0.2011,0.9452 c 0.21243,-1.30781 2.03868,-1.83796 2.4711,-3.84134 0.49319,-0.36915 0.16629,0.86736 -0.57443,1.98238 0.91552,-1.17364 0.64253,-1.64578 1.13198,-2.7936 0.006,0.5008 0.0447,1.05497 0.002,1.54995 0.12724,-1.64518 1.04107,-2.21282 1.44515,-2.9462 -0.12633,-0.18265 -0.66194,0.31882 -0.22446,-1.43085 0.23247,-0.73127 0.28576,-0.2728 0.40161,-0.41316 -0.0946,-0.16397 -0.23849,-0.94191 -0.10334,-2.15653 0.21508,-0.16169 0.17135,0.91114 0.3484,1.0758 0.13814,-0.94509 0.12722,-1.74424 0.31764,-2.41238 -0.1317,-1.76495 -0.2504,0.0545 -0.46136,-1.03089 0.0792,-2.60927 0.64024,-0.18597 1.01477,-1.14329 0.41958,2.1578 0.20034,4.91537 0.13209,6.07285 0.18912,-1.33967 0.25754,-2.71504 0.25125,-4.09452 0.2283,0.31927 0.3196,-2.80343 0.57771,-0.52043 0.28428,-4.30367 -1.41604,-9.65129 -3.45296,-12.99657 0.20634,0.55206 0.4676,1.24665 0.30699,1.21957 -0.98517,-1.75621 -0.74274,-1.6777 -0.80775,-2.18285 -0.87299,-1.19663 -1.10416,-0.69592 -1.77091,-1.19365 -1.55843,-2.5445 -1.9703,-2.66358 -3.514,-4.6405 l -0.0566,0.51243 c -1.12441,-1.37972 -1.5496,-0.80968 -2.87418,-1.9369 -0.0603,-0.13647 0.52969,0.0107 0.98657,0.22689 -1.29647,-0.63673 -1.09037,-1.09085 -2.40594,-1.55748 0.37458,-0.0525 0.74034,-0.008 1.12341,-0.008 -1.03113,-0.60631 -2.62207,-0.91314 -2.01596,-1.20128 -1.91266,-0.22031 -5.210171,-0.9427 -7.409741,-0.18535 l 0.0737,-0.45247 c -1.07981,0.58646 -4.25749,1.05479 -4.88397,2.33514 l -0.21797,-0.0787 c -0.63202,0.53868 -1.15808,1.27751 -1.71625,1.89402 -0.82864,0.71124 -0.87164,-0.0993 -0.84864,0.11536 -1.74818,1.79335 -2.87155,3.53348 -3.81477,4.94573 0.14027,0.76475 -0.99996,3.35957 -1.55592,5.67682 -3.825451,10.71612 -0.14169,26.1118 6.66441,33.68433 0.96261,1.22642 2.61393,2.31842 3.99904,3.31209 -1.47983,-1.68679 -1.77403,-1.56179 -3.17878,-3.32709 -0.96168,-1.44541 -0.98899,-2.37346 -1.55129,-3.79273 l 0.11605,0.91635 c -1.40458,-1.77918 -0.6806,-1.48829 -1.84103,-2.8767 l 0.51266,-0.31565 c -0.50813,-0.4004 -1.06345,-2.00119 -1.12957,-2.72452 l -0.57984,-0.35834 c -0.37837,-1.49056 -0.52202,-2.47774 -0.32327,-3.03314 l -0.30439,0.27423 c -0.0786,-0.57675 -1.37007,-5.55705 -0.40658,-3.95056 -0.14908,-0.39823 -0.39933,-0.75384 -0.50845,-1.68003 l 0.34671,-0.1741 c -0.3077,-1.29269 -0.44672,-2.77732 -0.29409,-3.13777 0.15697,0.71358 0.34279,0.95251 0.52883,1.18189 -0.14164,-5.38009 -1.47048,-1.28323 -1.30665,-6.26079 l 0.24097,0.13511 c -0.0811,-0.4487 -0.0832,-0.87801 -0.12271,-1.32453 l 0.47152,-1.16208 c -0.60932,-2.18407 1.58812,-6.4673 2.52952,-8.99442 0.42632,-0.99826 1.54098,-1.61503 2.66485,-3.00335 l -0.33573,-0.3164 c 1.11928,-0.98558 5.65467,-3.17589 7.08053,-1.94375 1.05415,-0.61345 -0.14245,-0.10093 -0.20053,-0.47384 2.18744,-0.92108 2.511401,7.9e-4 3.691421,0.36592 1.40639,-0.0518 -1.09005,-0.34516 -0.34893,-0.61703 2.18509,0.72976 1.83944,-0.45129 4.54193,0.99408 0.21811,0.37537 -0.7265,-0.13757 -1.02974,-0.0461 1.9624,0.136 5.50045,2.79314 7.44855,5.68448 2.25523,3.37252 3.94202,9.98234 2.77683,14.34463 l 0.12355,0.13718 c -0.58042,1.65485 -0.88704,3.81467 -1.92251,5.2901 l 0.59227,-0.62956"
         id="path1997"
         style="opacity:0.668477;fill:#030305;fill-opacity:1;stroke:none;stroke-width:0.445823;stroke-opacity:1" /><path
         style="font-size:12px;opacity:0.649771;fill-rule:evenodd;stroke-width:0.100225pt"
         d="m 79.504543,137.24289 c -11.143695,1.00425 -20.189323,15.59855 -20.189323,32.57871 0,7.82061 1.920928,14.78754 5.079683,19.9324 l 8.329956,-0.82027 0.03807,-20.66039 13.518754,-1.2183 0.0736,-20.38136 8.08638,-0.69782 c -3.69371,-5.85688 -9.01824,-9.26639 -14.9371,-8.73299 z m 14.9371,8.73298 c 3.260682,5.17025 5.249682,12.24566 5.249682,20.20707 0,16.97961 -9.043012,31.57809 -20.186782,32.58235 C 73.4935,199.307 68.094228,195.77935 64.394903,189.754 l -4.968055,0.49025 0.07358,10.66013 40.411637,-3.69984 -0.14716,-51.68518 z"
         id="path148"
         inkscape:connector-curvature="0" /><g
         id="g1449"
         transform="translate(68.550524,0.32191189)"
         style="opacity:0.67782048;fill:#000000;fill-opacity:1"><path
           fill="#000000"
           d="m 104.94513,142.439 c -0.18747,-0.1608 -0.41659,-0.26651 -0.72051,-0.27695 -0.46008,-0.73159 -0.96422,-1.2967 -1.63426,-1.25824 -0.69897,-0.77357 -1.02658,-0.77567 -1.31036,-0.68898 -0.1612,-0.15056 -1.1441,-1.28087 -1.943433,-0.93423 -1.152395,-1.25371 -1.912294,-0.66815 -1.827511,0.59437 -0.416396,0.19312 -0.839708,0.37307 -0.579848,1.69274 -0.383905,0.25761 -0.45032,0.85317 -0.201041,1.87164 -0.378687,0.50754 -0.304847,1.17356 0.0073,1.92247 -0.42768,0.77628 0.176554,1.99782 0.345419,2.39118 -0.107981,0.57985 -0.10473,1.22197 0.709113,2.31033 -0.146855,0.87684 0.353523,1.50304 0.82532,2.14098 -2.21564,-0.48021 -4.321548,-0.3812 -5.761903,3.22733 l -0.460706,0.26754 c -2.564331,-0.49156 -6.118965,2.16155 -4.677812,8.22872 -0.254666,1.26178 -0.259156,2.32925 -0.331636,3.44969 -0.996344,3.87886 1.055356,7.96929 1.69269,8.80947 0.698992,1.81418 1.484008,3.64558 2.762874,5.58672 0.781545,2.88191 2.0798,4.88371 3.631944,6.28407 0.02281,0.0205 0.04581,0.0418 0.0687,0.062 1.551321,1.4024 3.339666,2.18804 5.40731,1.87909 1.74343,0.78823 3.19186,0.97381 4.58992,1.05343 0.79371,0.45217 4.16776,1.26159 5.99546,-1.86647 0.62831,-0.61847 1.25708,-1.12217 1.884,-2.04778 4.25761,-0.9211 4.16814,-6.86553 2.6818,-10.03201 l -0.0571,-0.73511 c 1.46076,-3.58971 0.53729,-6.4245 -0.77955,-9.13478 0.59698,0.32732 1.20039,0.6979 1.6501,0.0945 1.0227,0.5701 1.40372,0.27502 1.69599,-0.13834 0.31123,0.0403 1.31486,0.27069 1.57421,-0.65762 0.5881,0.064 1.01614,-0.14886 1.13948,-0.88691 0.71812,-0.14483 1.03913,-0.51045 1.01234,-1.13898 0.901,-0.27085 0.80957,-0.91567 0.72988,-1.55678 0.78535,-0.47674 0.77735,-1.75577 -0.50137,-2.69756 -0.16773,-1.21997 -1.29375,-1.99417 -1.45824,-2.13773 -0.0811,-0.41621 -0.23501,-0.84896 -1.01811,-1.41379 -0.28971,-0.9052 -0.85876,-1.30928 -1.50563,-1.57733 -0.43025,-1.15668 -1.04708,-1.098 -1.61262,-1.37591 -0.68193,-1.00092 -1.0197,-0.7785 -1.47415,-0.97407 -0.78751,-0.98279 -1.22594,-0.7874 -1.82635,-0.70552 l -0.4797,-0.4474 c -1.64642,-0.34441 -2.98403,0.77393 -3.56789,1.44256 0.12286,-1.08518 0.16152,-3.37656 -0.80957,-5.39575 l -0.4881,-0.4266 c -0.2321,-0.83369 -0.32108,-1.50537 -1.26909,-2.08991 -0.32748,-0.51054 -0.35303,-1.06111 -1.26304,-1.49782 -0.2809,-0.40645 -0.48689,-0.91008 -0.84478,-1.21705 z"
           id="path10007"
           style="opacity:0.487807;fill:#000000;fill-opacity:1;stroke-width:0.0621959" /><path
           fill="#75a928"
           d="m 100.85416,143.77058 c 2.68896,5.07998 4.07392,8.4757 4.64001,10.8138 -1.55982,1.95353 -4.55974,-0.60221 -5.612235,-1.647 0.266265,0.088 0.504795,0.12072 0.653185,-0.026 -0.18678,-0.45402 -1.223423,-1.1349 -1.729481,-2.15031 0.281138,0.1748 0.4245,0.2272 0.62833,0.12951 -0.545513,-0.79213 -1.152176,-1.59808 -1.407205,-2.32454 0.215574,0.19865 0.397904,0.43115 0.766886,0.4736 -0.43394,-0.84516 -0.933762,-1.65575 -1.199808,-2.58885 0.296743,0.25735 0.611417,0.54785 0.750702,0.51373 -0.378809,-0.81902 -0.66063,-1.60392 -0.852204,-2.35706 0.38917,0.42493 0.581377,0.53523 0.712046,0.54723 -0.216765,-0.79178 -0.565314,-1.60982 -0.585382,-2.36239 0.259058,0.38969 0.520544,0.68545 0.789432,0.69923 -0.0024,-0.44763 -0.495941,-1.1571 -0.517221,-2.2188 0.307541,0.32385 0.631148,0.67375 0.729932,0.65919 0.116716,-0.79414 0.01043,-1.39589 -0.08568,-2.00659 0.691835,0.60965 1.727633,1.56412 1.705893,1.45842 l -0.23497,-0.85538 c 0.75054,0.41005 1.34572,1.25829 1.77629,1.87782 0.30126,0.0104 0.17114,-0.43811 -0.002,-0.93257 0.53724,0.598 0.99542,1.20607 1.38236,1.82317 0.34741,-0.0193 0.0351,-0.63431 -0.0652,-1.05785 0.80834,0.97769 1.07897,1.57014 1.34715,2.16086 0.38226,-0.0371 0.22439,-0.50459 0.14101,-0.9127 0.55694,0.86757 0.76019,1.52187 0.98334,2.18806 0.19437,-0.0687 0.43551,-0.03 0.38237,-0.66737 0.35287,0.72156 0.56801,1.39062 0.67379,2.01804 0.37334,0.0618 0.3666,-0.32088 0.47075,-0.57389 0.31581,0.87612 0.44126,1.61824 0.64083,2.41247 0.10118,0.009 0.25131,-0.13648 0.44185,-0.4084 0.67324,2.28931 1.07523,6.8871 -1.81924,5.95221 -1.30439,-3.67131 -3.20659,-7.20148 -5.50629,-10.63782 z"
           id="path10009"
           style="opacity:0.487807;fill:#000000;fill-opacity:1;stroke-width:0.0621959" /><path
           fill="#75a928"
           d="m 119.27908,160.40973 c -4.25567,-1.19135 -6.90796,-1.44217 -8.5538,-1.10124 -0.42712,2.97644 2.48212,5.75715 3.59036,6.66366 -0.17615,-0.31157 -0.30672,-0.61217 -0.28925,-0.87704 0.35542,0.0356 1.24118,1.09082 2.07725,1.28745 -0.2344,-0.29079 -0.33222,-0.45617 -0.36954,-0.77164 0.72251,0.35299 1.48168,0.78049 2.02993,0.77945 -0.21792,-0.19284 -0.44034,-0.32585 -0.6375,-0.79466 0.70183,0.18053 1.41393,0.46438 2.08943,0.38158 -0.29048,-0.27295 -0.60889,-0.55415 -0.65366,-0.75452 0.66065,0.11971 1.25591,0.12687 1.79034,0.0294 -0.43261,-0.3172 -0.5874,-0.52027 -0.65544,-0.6877 0.569,-0.0822 1.21497,-0.002 1.66908,-0.32646 -0.3511,-0.16132 -0.64782,-0.36967 -0.78135,-0.71929 0.26534,-0.2065 0.91508,0.11716 1.55243,-0.34974 -0.33479,-0.25622 -0.69246,-0.52158 -0.72993,-0.65919 0.41526,-0.52491 0.82049,-0.66468 1.22617,-0.82228 -0.68291,-0.63182 -1.72997,-1.55832 -1.65737,-1.57883 l 0.61506,-0.0877 c -0.59229,-0.80264 -1.37112,-1.19524 -1.93801,-1.4765 -0.14662,-0.39412 0.17908,-0.43094 0.55214,-0.43194 -0.60393,-0.43256 -1.17693,-0.75574 -1.72206,-0.98037 -0.15059,-0.46901 0.3585,-0.34227 0.65554,-0.40701 -0.95471,-0.61446 -1.43102,-0.69657 -1.90519,-0.77625 -0.15632,-0.52349 0.19357,-0.53243 0.47364,-0.61231 -0.77242,-0.33293 -1.25387,-0.29698 -1.75161,-0.28181 -0.05,-0.28944 -0.18539,-0.59072 0.21609,-0.81756 -0.59099,-0.1308 -1.08669,-0.10369 -1.50679,0.0488 -0.21063,-0.46557 0.0187,-0.63507 0.11962,-0.89096 -0.66502,-0.01 -1.16207,0.17027 -1.7245,0.27638 -0.0523,-0.12998 -0.0365,-0.39646 0.0353,-0.77554 -1.66685,0.17602 -4.57146,1.78769 -2.66926,5.18457 2.77697,0.0139 5.74999,0.88663 8.85333,2.32966 z"
           id="path10011"
           style="opacity:0.487807;fill:#000000;fill-opacity:1;stroke-width:0.0621959" /><path
           fill="#bc1142"
           d="m 104.15541,180.9886 a 6.0096188,3.9319403 61.646566 1 1 -8.318759,-7.51249 6.0096188,3.9319403 61.646566 1 1 8.318759,7.51249 z"
           id="path10013"
           style="opacity:0.487807;fill:#000000;fill-opacity:1;stroke-width:0.0702551" /><path
           fill="#bc1142"
           d="m 102.38451,163.16098 a 5.5081011,4.4156145 66.466699 1 1 -8.067657,3.59239 5.5081011,4.4156145 66.466699 1 1 8.067657,-3.59239 z"
           id="path10015"
           style="opacity:0.487807;fill:#000000;fill-opacity:1;stroke-width:0.11822" /><path
           fill="#bc1142"
           d="m 107.12578,167.13992 a 6.3918356,3.805112 72.762758 1 0 1.63902,12.35828 6.3918356,3.805112 72.762758 1 0 -1.63902,-12.35828 z"
           id="path10017"
           style="opacity:0.487807;fill:#000000;fill-opacity:1;stroke-width:0.11822" /><path
           fill="#bc1142"
           d="m 92.962909,157.38683 c 2.079021,1.13876 -2.740867,8.92654 -3.960525,6.82897 -1.079137,-2.95848 0.101309,-7.7027 3.960525,-6.82897 z"
           id="path10019"
           style="opacity:0.487807;fill:#000000;fill-opacity:1;stroke-width:0.0621959" /><path
           fill="#bc1142"
           d="m 114.51112,176.69517 c -1.64271,-2.22203 -3.99746,7.7925 -2.18912,8.42943 2.25165,0.0493 4.50505,-3.72653 2.18912,-8.42943 z"
           id="path10021"
           style="opacity:0.487807;fill:#000000;fill-opacity:1;stroke-width:0.0621959" /><path
           fill="#bc1142"
           d="m 110.86037,164.35738 c 3.44849,2.31115 5.28554,6.79594 3.65373,10.47978 -0.68984,1.3542 -4.92381,-11.33238 -3.65373,-10.47978 z"
           id="path10023"
           style="opacity:0.487807;fill:#000000;fill-opacity:1;stroke-width:0.0621959" /><path
           fill="#bc1142"
           d="m 102.03274,156.23396 c -2.974133,-3.48899 -6.481087,-3.82962 -7.897053,0.0486 -0.478589,1.54493 8.993123,1.23565 7.897053,-0.0486 z"
           id="path10025"
           style="opacity:0.487807;fill:#000000;fill-opacity:1;stroke-width:0.0621959" /><path
           fill="#bc1142"
           d="m 107.00089,159.51781 c -1.89478,-1.78497 -4.37853,-1.84728 -4.75671,-0.92397 -0.45946,1.12194 0.59621,3.64891 2.84257,5.71742 2.29877,2.10045 4.14965,2.48793 4.62571,1.33177 0.53943,-1.30984 -1.00274,-4.60979 -2.7116,-6.12532 z"
           id="path10027"
           style="opacity:0.487807;fill:#000000;fill-opacity:1;stroke-width:0.0621959" /><path
           fill="#bc1142"
           d="m 97.805437,182.72947 c 1.702906,1.42983 3.677613,4.11837 3.327193,5.00271 -0.31681,0.87995 -3.15651,0.95009 -5.136409,-0.88885 -2.105009,-1.769 -3.351238,-5.53311 -3.054471,-6.17971 0.365342,-1.01107 3.221323,0.52112 4.863687,2.06585 z"
           id="path10029"
           style="opacity:0.487807;fill:#000000;fill-opacity:1;stroke-width:0.0621959" /><path
           fill="#bc1142"
           d="m 93.736373,171.93805 c 0.562377,2.63078 0.0027,5.85496 -1.315048,5.76444 -1.187238,-0.2329 -3.36609,-2.54621 -3.96802,-6.53945 -0.238069,-3.10966 0.773221,-5.14202 1.796619,-5.08314 1.454089,0.27736 2.814487,2.90497 3.486497,5.8582 z"
           id="path10031"
           style="opacity:0.487807;fill:#000000;fill-opacity:1;stroke-width:0.0621959" /><path
           fill="#bc1142"
           d="m 106.04099,182.37716 c -1.94704,0.47479 -3.86727,2.81359 -3.31589,4.62332 0.59667,1.55798 3.04894,3.63011 5.91043,2.55537 2.01887,-0.63419 2.79835,-4.03415 2.38196,-5.50003 -0.72559,-1.91194 -2.77552,-2.15491 -4.97633,-1.67912 z"
           id="path10033"
           style="opacity:0.487807;fill:#000000;fill-opacity:1;stroke-width:0.0621959" /><path
           style="fill:#000000;fill-opacity:1;stroke:none;stroke-width:0.234399;stroke-miterlimit:0;stroke-opacity:1;paint-order:markers fill stroke"
           d="m 95.76968,157.13568 c -0.810178,-0.12592 -1.466829,-0.38007 -1.558623,-0.60325 -0.09786,-0.238 0.557911,-1.50936 1.046255,-2.02834 0.912336,-0.96959 2.312895,-1.20327 3.673268,-0.61288 1.37476,0.59662 3.3006,2.28552 3.04215,2.66785 -0.37794,0.55907 -4.093575,0.90447 -6.20305,0.57662 z"
           id="path1503" /><path
           style="fill:#000000;fill-opacity:1;stroke:none;stroke-width:0.234399;stroke-miterlimit:0;stroke-opacity:1;paint-order:markers fill stroke"
           d="m 89.141571,164.25234 c -0.515715,-0.74936 -0.559684,-3.26218 -0.07976,-4.55678 0.327271,-0.88275 1.022964,-1.72784 1.694148,-2.05789 0.719085,-0.3536 2.047309,-0.37662 2.372686,-0.0411 0.902361,0.9304 -0.604698,4.64808 -2.583384,6.37276 -0.695426,0.60617 -1.122088,0.6922 -1.403689,0.28303 z"
           id="path1505" /><path
           style="fill:#000000;fill-opacity:1;stroke:none;stroke-width:0.234399;stroke-miterlimit:0;stroke-opacity:1;paint-order:markers fill stroke"
           d="m 98.258716,170.1641 c -2.332403,-0.54437 -4.181316,-2.87373 -4.416885,-5.56464 -0.280049,-3.19906 2.032336,-5.53303 4.751144,-4.79552 3.358545,0.91104 5.316965,5.29448 3.749805,8.39295 -0.35637,0.70458 -1.15373,1.47422 -1.81827,1.75508 -0.607074,0.25657 -1.65503,0.35468 -2.265794,0.21213 z"
           id="path1507" /><path
           style="fill:#000000;fill-opacity:1;stroke:none;stroke-width:0.234399;stroke-miterlimit:0;stroke-opacity:1;paint-order:markers fill stroke"
           d="m 91.919831,177.4343 c -0.629449,-0.36319 -1.579906,-1.43691 -2.088486,-2.35936 -1.424921,-2.58448 -1.750711,-5.48726 -0.864486,-7.70244 0.288131,-0.72017 0.963877,-1.32617 1.355328,-1.21541 1.222378,0.34589 2.494084,2.43924 3.260923,5.36791 0.334574,1.27771 0.368475,3.71627 0.06467,4.65 -0.420547,1.29242 -0.972878,1.69496 -1.727949,1.2593 z"
           id="path1509" /><path
           style="fill:#000000;fill-opacity:1;stroke:none;stroke-width:0.234399;stroke-miterlimit:0;stroke-opacity:1;paint-order:markers fill stroke"
           d="m 100.8066,182.7287 c -1.737439,-0.39818 -3.618891,-2.17356 -4.527248,-4.27197 -0.941477,-2.17497 -0.923158,-4.34664 0.04827,-5.72011 0.748493,-1.05826 2.301465,-1.35753 3.705768,-0.71413 1.39299,0.63823 2.90009,2.24483 3.63578,3.87581 0.74298,1.64721 0.9554,3.66617 0.50977,4.84528 -0.58997,1.56106 -1.8882,2.32526 -3.37233,1.98512 z"
           id="path1511" /><path
           style="fill:#000000;fill-opacity:1;stroke:none;stroke-width:0.234399;stroke-miterlimit:0;stroke-opacity:1;paint-order:markers fill stroke"
           d="m 98.413799,188.106 c -1.815039,-0.47132 -3.434546,-1.99889 -4.558041,-4.29931 -0.465947,-0.95407 -0.904642,-2.30639 -0.904642,-2.78863 0,-0.76946 0.687951,-0.81663 2.06257,-0.14143 2.161453,1.06168 4.431665,3.22554 5.607594,5.34491 0.56012,1.00951 0.59977,1.51576 0.14065,1.79646 -0.42565,0.26025 -1.525992,0.30149 -2.348131,0.088 z"
           id="path1513" /><path
           style="fill:#000000;fill-opacity:1;stroke:none;stroke-width:0.234399;stroke-miterlimit:0;stroke-opacity:1;paint-order:markers fill stroke"
           d="m 105.62986,189.54764 c -0.88957,-0.3538 -1.2119,-0.56031 -1.83673,-1.17681 -0.85413,-0.84269 -1.06463,-1.25129 -1.06664,-2.07048 -0.002,-0.90526 0.43935,-1.78333 1.3398,-2.66421 0.83917,-0.82093 1.62615,-1.19243 2.85081,-1.34574 1.71283,-0.21443 3.06143,0.20571 3.71573,1.15761 0.60108,0.8745 0.50941,2.74747 -0.20664,4.22104 -0.71268,1.46666 -1.7437,2.09017 -3.43596,2.07794 -0.53988,-0.004 -1.06093,-0.0803 -1.36037,-0.19935 z"
           id="path1515" /><path
           style="fill:#000000;fill-opacity:1;stroke:none;stroke-width:0.234399;stroke-miterlimit:0;stroke-opacity:1;paint-order:markers fill stroke"
           d="m 107.90068,179.15901 c -0.37995,-0.17667 -0.93525,-0.60164 -1.40578,-1.07587 -2.60709,-2.62756 -3.41996,-7.67025 -1.60594,-9.96272 0.49681,-0.62785 1.10748,-0.9193 1.91399,-0.91347 1.72307,0.0125 3.62338,1.92339 4.5767,4.60228 1.65062,4.63835 -0.32664,8.81557 -3.47897,7.34978 z"
           id="path1517" /><path
           style="fill:#000000;fill-opacity:1;stroke:none;stroke-width:0.234399;stroke-miterlimit:0;stroke-opacity:1;paint-order:markers fill stroke"
           d="m 107.64436,165.97446 c -2.36543,-1.00143 -4.974,-4.03165 -5.38147,-6.25131 -0.22693,-1.23614 0.23315,-1.71834 1.5578,-1.63271 1.63919,0.10596 3.38682,1.33379 4.55384,3.19935 2.08405,3.33154 1.71201,5.71859 -0.73017,4.68467 z"
           id="path1519" /><path
           style="fill:#000000;fill-opacity:1;stroke:none;stroke-width:0.234399;stroke-miterlimit:0;stroke-opacity:1;paint-order:markers fill stroke"
           d="m 114.01802,174.51067 c -1.2052,-1.70983 -3.88821,-10.11682 -3.22868,-10.11682 0.0868,0 0.62986,0.44599 1.20683,0.99108 2.01979,1.90815 3.03658,4.12747 3.03658,6.62784 0,0.91963 -0.35611,2.6081 -0.59761,2.83344 -0.0644,0.0601 -0.23498,-0.0772 -0.41712,-0.33554 z"
           id="path1521" /><path
           style="fill:#000000;fill-opacity:1;stroke:none;stroke-width:0.234399;stroke-miterlimit:0;stroke-opacity:1;paint-order:markers fill stroke"
           d="m 112.04416,184.8216 c -0.6367,-0.90673 -0.13617,-5.02239 0.86883,-7.14381 0.31868,-0.67271 0.8385,-1.28348 1.09239,-1.28348 0.2758,0 0.53292,0.41445 0.91389,1.47306 0.66968,1.86084 0.61554,4.07077 -0.13327,5.44038 -0.50574,0.92501 -1.30204,1.57238 -2.14151,1.741 -0.33198,0.0667 -0.41644,0.0347 -0.60033,-0.22715 z"
           id="path1523" /><path
           style="fill:#000000;fill-opacity:1;stroke:none;stroke-width:0.234399;stroke-miterlimit:0;stroke-opacity:1;paint-order:markers fill stroke"
           d="m 102.58264,154.82839 c -0.45939,-0.21742 -1.20454,-0.68729 -1.65586,-1.04416 -0.72362,-0.57218 -0.79171,-0.65881 -0.5763,-0.73316 0.13436,-0.0464 0.24428,-0.10895 0.24428,-0.13905 0,-0.0301 -0.35488,-0.45145 -0.788629,-0.93632 -0.747477,-0.83559 -0.90547,-1.07128 -0.697634,-1.04065 0.366215,0.054 0.414623,-0.0241 0.201329,-0.32474 -0.464902,-0.65524 -1.020291,-1.54737 -1.020291,-1.6389 0,-0.0525 0.109193,-0.041 0.242654,0.0256 0.337243,0.16842 0.310647,0.0535 -0.242654,-1.04822 -0.498245,-0.99211 -0.616443,-1.38365 -0.339718,-1.12545 0.382011,0.35647 0.409213,0.0909 0.07966,-0.77804 -0.383638,-1.01158 -0.429308,-1.24638 -0.200991,-1.03335 0.08008,0.0747 0.211254,0.13586 0.291526,0.13586 0.105942,0 0.08599,-0.19395 -0.07275,-0.70758 -0.120282,-0.38916 -0.25401,-0.85323 -0.297156,-1.03126 l -0.07847,-0.32368 0.339281,0.24958 c 0.291187,0.2142 0.344884,0.22375 0.378833,0.0674 0.02183,-0.10017 -0.04266,-0.42344 -0.143119,-0.71837 -0.100483,-0.29493 -0.220403,-0.71455 -0.266507,-0.93248 l -0.08386,-0.39624 0.339741,0.33908 0.339717,0.33908 0.09709,-0.33878 c 0.05341,-0.18633 0.06406,-0.61911 0.02355,-0.96174 l -0.07345,-0.62297 0.530881,0.45672 c 0.292013,0.2512 0.662086,0.55687 0.822407,0.67928 l 0.29153,0.22254 -0.0762,-0.36794 c -0.0419,-0.20236 -0.0286,-0.36794 0.0296,-0.36794 0.13482,0 0.77397,0.67768 1.18263,1.2539 0.35923,0.50651 0.49218,0.54806 0.63124,0.19728 0.0889,-0.22428 0.1455,-0.18161 0.61523,0.46382 0.50441,0.6931 0.66466,0.75511 0.75624,0.29264 0.0345,-0.17431 0.13183,-0.0831 0.42285,0.39624 0.20793,0.34246 0.41608,0.74009 0.46255,0.88362 0.10444,0.32243 0.33688,0.26877 0.42998,-0.0993 0.0588,-0.23223 0.1198,-0.15688 0.39767,0.49074 0.18053,0.42081 0.32824,0.84098 0.32824,0.93373 0,0.23265 0.32576,0.21224 0.47075,-0.0295 0.10434,-0.17396 0.13574,-0.15671 0.25753,0.14152 0.0763,0.1868 0.19871,0.58163 0.27201,0.87739 0.14385,0.58018 0.39626,0.70667 0.56481,0.28303 0.0807,-0.20278 0.15775,-0.0239 0.37794,0.8774 0.15214,0.62266 0.29453,1.15211 0.31647,1.17655 0.0218,0.0245 0.12438,-0.021 0.22771,-0.10104 0.10332,-0.08 0.21181,-0.12313 0.24107,-0.0958 0.12237,0.11419 0.42528,2.25255 0.42574,3.00545 0,1.15622 -0.1991,1.90483 -0.63083,2.36365 -0.32033,0.34043 -0.4353,0.38731 -0.9498,0.38731 h -0.58536 l -0.25415,-0.65097 c -0.76306,-1.95438 -1.5068,-3.57195 -2.4335,-5.29265 -1.05376,-1.95656 -2.76877,-4.7554 -2.86112,-4.66922 -0.0279,0.0261 0.35231,0.83256 0.84497,1.79224 2.18402,4.25444 3.93279,8.7232 3.57227,9.12854 -0.53614,0.60281 -1.56529,0.63656 -2.72174,0.0892 z"
           id="path1525" /><path
           style="fill:#000000;fill-opacity:1;stroke:none;stroke-width:0.234399;stroke-miterlimit:0;stroke-opacity:1;paint-order:markers fill stroke"
           d="m 116.62945,165.97873 c -0.93541,-0.41293 -1.01609,-0.41818 -0.86873,-0.0565 0.0634,0.15567 0.0749,0.28303 0.0256,0.28303 -0.0494,0 -0.42713,-0.25472 -0.8395,-0.56606 -0.86263,-0.65131 -1.06613,-0.70548 -0.95676,-0.25472 0.0662,0.27276 -0.007,0.23034 -0.59099,-0.3424 -1.63686,-1.60546 -2.61277,-3.479 -2.61277,-5.01592 v -0.70384 l 0.81897,-0.0746 c 1.35098,-0.12303 4.05744,0.25482 6.50505,0.90816 0.59162,0.15791 1.09753,0.26669 1.1243,0.24172 0.0755,-0.0705 -1.99769,-0.93193 -3.1909,-1.32594 -1.55037,-0.51195 -3.34168,-0.89688 -4.55782,-0.9794 l -1.05962,-0.0719 -0.26246,-0.63415 c -0.35462,-0.8569 -0.36156,-1.94379 -0.0162,-2.55875 0.45566,-0.8116 1.51985,-1.58012 2.48904,-1.79748 0.31686,-0.0711 0.33365,-0.0544 0.33365,0.3312 0,0.33408 0.0376,0.39539 0.21233,0.346 0.26442,-0.0748 1.27627,-0.28836 1.38371,-0.2921 0.0437,-0.002 0.0508,0.19674 0.0158,0.44058 l -0.0637,0.44335 0.71683,-0.0607 0.71683,-0.0607 -0.0477,0.46639 c -0.0476,0.46557 -0.0469,0.4664 0.37456,0.4664 0.23222,0 0.59478,0.0322 0.80567,0.0716 0.35403,0.0661 0.36893,0.0865 0.19424,0.26666 -0.27922,0.2879 -0.11329,0.52466 0.47554,0.6785 0.28713,0.075 0.6696,0.22669 0.84992,0.33707 0.31157,0.19072 0.31538,0.20372 0.0768,0.26193 -0.43224,0.10548 -0.27636,0.39195 0.4137,0.76036 0.77961,0.41621 0.84949,0.49457 0.60788,0.68167 -0.28119,0.21776 -0.22623,0.3041 0.45631,0.71672 0.79208,0.47885 1.43977,1.09364 1.15216,1.09364 -0.44091,0 -0.32793,0.28189 0.38007,0.94845 0.40846,0.38457 0.74267,0.72987 0.74267,0.76734 0,0.0375 -0.16598,0.13228 -0.36881,0.21068 -0.20287,0.0784 -0.44795,0.24795 -0.54464,0.37678 -0.16008,0.21327 -0.14628,0.26301 0.15435,0.55581 0.27694,0.26972 0.30118,0.3387 0.15032,0.42771 -0.0989,0.0584 -0.40868,0.1069 -0.68834,0.10785 -0.66133,0.002 -0.74264,0.15365 -0.3029,0.56397 0.19645,0.18331 0.32933,0.35929 0.29528,0.39106 -0.034,0.0318 -0.38228,0.0916 -0.77385,0.13291 -0.39157,0.0413 -0.71195,0.11163 -0.71195,0.1562 0,0.0446 0.10791,0.17217 0.23979,0.28354 0.37493,0.3166 0.1693,0.43531 -0.62054,0.35828 -0.39116,-0.0382 -0.7112,-0.0398 -0.7112,-0.004 0,0.0361 0.11291,0.21365 0.25091,0.3945 0.29667,0.38877 0.28648,0.39017 -0.83542,0.11533 -0.47929,-0.11742 -0.87142,-0.17523 -0.87142,-0.12848 0,0.0468 0.11315,0.21923 0.25146,0.3833 0.32048,0.38017 0.22529,0.37467 -0.71734,-0.0414 z"
           id="path1527" /></g></g><text
       xml:space="preserve"
       transform="matrix(0.26458333,0,0,0.26458333,5.113344,9.6953597)"
       id="text889"
       style="white-space:pre;shape-inside:url(#rect891);fill:#82bb6a"><tspan
         x="59.521484"
         y="441.07614"
         id="tspan1330"><tspan
           style="font-size:53.3333px;-inkscape-font-specification:'sans-serif, Normal';fill:#4d4d4d"
           id="tspan1328">P i S i N    D e s k t o p</tspan></tspan></text><text
       xml:space="preserve"
       transform="matrix(0.26458333,0,0,0.26458333,22.609673,103.08002)"
       id="text1103"
       style="white-space:pre;shape-inside:url(#rect1105);fill:#82bb6a"><tspan
         x="59.521484"
         y="441.07614"
         id="tspan1334"><tspan
           style="font-size:53.3333px;-inkscape-font-specification:'sans-serif, Normal';fill:#0080c8"
           id="tspan1332">U s e r      G u i d e</tspan></tspan></text></g></svg>
