<?xml version="1.0" encoding="UTF-8" standalone="no"?>
<!-- Created with Inkscape (http://www.inkscape.org/) -->

<svg
   width="1920px"
   height="1080px"
   viewBox="0 0 1920 1080"
   version="1.1"
   id="SVGRoot"
   sodipodi:docname="simplified_banniere.svg"
   xml:space="preserve"
   inkscape:version="1.2.2 (b0a8486541, 2022-12-01)"
   inkscape:export-filename="../pisin/RESOURCES/WALLPAPERS/fond_pi_step_initiative.png"
   inkscape:export-xdpi="96"
   inkscape:export-ydpi="96"
   xmlns:inkscape="http://www.inkscape.org/namespaces/inkscape"
   xmlns:sodipodi="http://sodipodi.sourceforge.net/DTD/sodipodi-0.dtd"
   xmlns:xlink="http://www.w3.org/1999/xlink"
   xmlns="http://www.w3.org/2000/svg"
   xmlns:svg="http://www.w3.org/2000/svg"
   xmlns:i="http://ns.adobe.com/AdobeIllustrator/10.0/"><sodipodi:namedview
     id="namedview589"
     pagecolor="#ffffff"
     bordercolor="#000000"
     borderopacity="0.25"
     inkscape:showpageshadow="2"
     inkscape:pageopacity="0.0"
     inkscape:pagecheckerboard="0"
     inkscape:deskcolor="#d1d1d1"
     inkscape:document-units="px"
     showgrid="false"
     inkscape:zoom="1"
     inkscape:cx="621.5"
     inkscape:cy="560.5"
     inkscape:window-width="1639"
     inkscape:window-height="1048"
     inkscape:window-x="133"
     inkscape:window-y="0"
     inkscape:window-maximized="0"
     inkscape:current-layer="layer2" /><defs
     id="defs584"><rect
       x="672.8197"
       y="836.16052"
       width="869.77771"
       height="91.773071"
       id="rect10288" /><inkscape:perspective
       sodipodi:type="inkscape:persp3d"
       inkscape:vp_x="-375.5791 : 293.16602 : 1"
       inkscape:vp_y="0 : 1000 : 0"
       inkscape:vp_z="1544.4209 : 293.16602 : 1"
       inkscape:persp3d-origin="584.4209 : 113.16602 : 1"
       id="perspective9592" /><inkscape:perspective
       sodipodi:type="inkscape:persp3d"
       inkscape:vp_x="-17.520019 : 342.68292 : 1"
       inkscape:vp_y="0 : 1000 : 0"
       inkscape:vp_z="1902.48 : 342.68292 : 1"
       inkscape:persp3d-origin="942.48002 : 162.68292 : 1"
       id="perspective9576" /><inkscape:perspective
       sodipodi:type="inkscape:persp3d"
       inkscape:vp_x="-183.57422 : 567.27051 : 1"
       inkscape:vp_y="0 : 1000 : 0"
       inkscape:vp_z="1736.4258 : 567.27051 : 1"
       inkscape:persp3d-origin="776.42578 : 387.27051 : 1"
       id="perspective9546" /><rect
       x="11.417744"
       y="270.91282"
       width="347.04813"
       height="90.018619"
       id="rect28450" /><rect
       x="-366.89584"
       y="140.67661"
       width="451.08523"
       height="185.61756"
       id="rect18881" /><radialGradient
       xlink:href="#linearGradient3704"
       id="radialGradient3706"
       cx="2007.3448"
       cy="1737.1503"
       fx="2007.3448"
       fy="1737.1503"
       r="960"
       gradientTransform="matrix(0.00191417,-0.35381647,0.63230921,0.00342084,-812.33583,1044.758)"
       gradientUnits="userSpaceOnUse" /><linearGradient
       id="linearGradient3704"><stop
         style="stop-color:#26475b;stop-opacity:0;"
         offset="0.69804424"
         id="stop3702" /><stop
         style="stop-color:#26475b;stop-opacity:1;"
         offset="1"
         id="stop3700" /></linearGradient><radialGradient
       xlink:href="#linearGradient3714"
       id="radialGradient3716"
       cx="-55.602444"
       cy="1782.1582"
       fx="-55.602444"
       fy="1782.1582"
       r="960.29187"
       gradientTransform="matrix(0.5448247,0.00718471,-0.00342953,0.2600655,-239.58877,-185.30849)"
       gradientUnits="userSpaceOnUse" /><linearGradient
       id="linearGradient3714"><stop
         style="stop-color:#264d64;stop-opacity:0;"
         offset="0.52651834"
         id="stop3712" /><stop
         style="stop-color:#264d64;stop-opacity:1;"
         offset="1"
         id="stop3710" /></linearGradient><radialGradient
       xlink:href="#linearGradient3724"
       id="radialGradient3726"
       cx="1903.3966"
       cy="1837.443"
       fx="1903.3966"
       fy="1837.443"
       r="905.96039"
       gradientTransform="matrix(1.1064066e-4,-0.26458331,0.51778643,2.1652248e-4,-668.2075,773.25416)"
       gradientUnits="userSpaceOnUse" /><linearGradient
       id="linearGradient3724"><stop
         style="stop-color:#26536e;stop-opacity:0;"
         offset="0.72692394"
         id="stop3722" /><stop
         style="stop-color:#26536e;stop-opacity:1;"
         offset="1"
         id="stop3720" /></linearGradient><radialGradient
       xlink:href="#linearGradient3704"
       id="radialGradient3706-9"
       cx="2007.3448"
       cy="1737.1503"
       fx="2007.3448"
       fy="1737.1503"
       r="960"
       gradientTransform="matrix(0.00191417,-0.35381647,0.63230921,0.00342084,-812.33583,1044.758)"
       gradientUnits="userSpaceOnUse" /><radialGradient
       xlink:href="#linearGradient3714"
       id="radialGradient3716-0"
       cx="-55.602444"
       cy="1782.1582"
       fx="-55.602444"
       fy="1782.1582"
       r="960.29187"
       gradientTransform="matrix(0.5448247,0.00718471,-0.00342953,0.2600655,-239.58877,-185.30849)"
       gradientUnits="userSpaceOnUse" /><radialGradient
       xlink:href="#linearGradient3724"
       id="radialGradient3726-6"
       cx="1903.3966"
       cy="1837.443"
       fx="1903.3966"
       fy="1837.443"
       r="905.96039"
       gradientTransform="matrix(1.1064066e-4,-0.26458331,0.51778643,2.1652248e-4,-668.2075,773.25416)"
       gradientUnits="userSpaceOnUse" /><rect
       x="11.417744"
       y="270.91282"
       width="347.04813"
       height="90.018619"
       id="rect28450-7" /><rect
       x="-366.89584"
       y="140.67661"
       width="451.08523"
       height="185.61756"
       id="rect18881-9" /><radialGradient
       xlink:href="#linearGradient3704"
       id="radialGradient3706-2"
       cx="2007.3448"
       cy="1737.1503"
       fx="2007.3448"
       fy="1737.1503"
       r="960"
       gradientTransform="matrix(0.00191417,-0.35381647,0.63230921,0.00342084,-812.33583,1044.758)"
       gradientUnits="userSpaceOnUse" /><radialGradient
       xlink:href="#linearGradient3714"
       id="radialGradient3716-3"
       cx="-55.602444"
       cy="1782.1582"
       fx="-55.602444"
       fy="1782.1582"
       r="960.29187"
       gradientTransform="matrix(0.5448247,0.00718471,-0.00342953,0.2600655,-239.58877,-185.30849)"
       gradientUnits="userSpaceOnUse" /><radialGradient
       xlink:href="#linearGradient3724"
       id="radialGradient3726-9"
       cx="1903.3966"
       cy="1837.443"
       fx="1903.3966"
       fy="1837.443"
       r="905.96039"
       gradientTransform="matrix(1.1064066e-4,-0.26458331,0.51778643,2.1652248e-4,-668.2075,773.25416)"
       gradientUnits="userSpaceOnUse" /><filter
       inkscape:collect="always"
       style="color-interpolation-filters:sRGB"
       id="filter11498"
       x="-0.034729832"
       y="-6.4943599"
       width="1.0712872"
       height="13.98941"><feGaussianBlur
         inkscape:collect="always"
         stdDeviation="10.041096"
         id="feGaussianBlur11500" /></filter><filter
       inkscape:label="Cubes"
       inkscape:menu="Scatter"
       inkscape:menu-tooltip="Scattered cubes; adjust the Morphology primitive to vary size"
       style="color-interpolation-filters:sRGB;"
       id="filter302"
       x="-0.025894257"
       y="-0.016910057"
       width="1.0517885"
       height="1.0338201"><feTurbulence
         baseFrequency="0.14"
         numOctaves="1"
         type="fractalNoise"
         id="feTurbulence286" /><feColorMatrix
         values="1 0 0 0 0 0 1 0 0 0 0 0 1 0 0 0 0 0 6 -3.5 "
         result="result5"
         id="feColorMatrix288" /><feComposite
         in2="result5"
         operator="in"
         in="SourceGraphic"
         result="result6"
         id="feComposite290" /><feMorphology
         result="result3"
         radius="5"
         operator="dilate"
         in="result6"
         id="feMorphology292" /><feDisplacementMap
         result="result4"
         scale="0"
         yChannelSelector="A"
         xChannelSelector="R"
         in="result3"
         in2="result3"
         id="feDisplacementMap294" /><feComposite
         in2="result4"
         operator="arithmetic"
         result="result2"
         k1="1"
         k3="1"
         id="feComposite296" /><feBlend
         mode="darken"
         in="result2"
         in2="result2"
         id="feBlend298" /><feConvolveMatrix
         order="3 3"
         kernelMatrix="2 0 0 0 1 0 0 0 -1 "
         targetX="1"
         targetY="1"
         divisor="2"
         edgeMode="duplicate"
         id="feConvolveMatrix300" /></filter></defs><g
     inkscape:label="Calque 1"
     inkscape:groupmode="layer"
     id="layer1"
     sodipodi:insensitive="true"><rect
       style="opacity:1;fill:#4f4f74;fill-opacity:1;stroke:none;stroke-width:18.8976"
       id="rect5364"
       width="1957.9348"
       height="1118.7898"
       x="-19.954407"
       y="-14.032837" /></g><g
     inkscape:groupmode="layer"
     id="layer5"
     inkscape:label="Calque 5"
     style="opacity:1;fill:#4f4f74;fill-opacity:1;stroke:#0d0000;stroke-width:6;stroke-dasharray:none;stroke-opacity:1"><path
       style="opacity:1;fill:#1a1a1a;fill-opacity:1;stroke:#1a1a1a;stroke-width:10;stroke-dasharray:none;stroke-dashoffset:0;stroke-opacity:1;filter:url(#filter11498)"
       d="m 1150.0685,759.53644 c 693.6214,-4.17493 694.755,-4.48011 694.755,-4.48011"
       id="path11496"
       transform="matrix(0.22828173,0.10772132,-0.23136737,1.0871826,178.67232,-226.37074)" /><path
       style="opacity:1;fill:#1a1a1a;fill-opacity:1;stroke:#1a1a1a;stroke-width:10;stroke-dasharray:none;stroke-dashoffset:0;stroke-opacity:1;filter:url(#filter11498)"
       d="m 1150.0685,759.53644 c 693.6214,-4.17493 694.755,-4.48011 694.755,-4.48011"
       id="path419"
       transform="matrix(0.24020905,0.04664859,0.00398082,1.1234263,335.85862,-167.6706)" /><path
       style="opacity:1;fill:#1a1a1a;fill-opacity:1;stroke:#1a1a1a;stroke-width:10;stroke-dasharray:none;stroke-dashoffset:0;stroke-opacity:1;filter:url(#filter11498)"
       d="m 1150.0685,759.53644 c 693.6214,-4.17493 694.755,-4.48011 694.755,-4.48011"
       id="path421"
       transform="matrix(0.26561436,-0.05091879,0.0519014,1.1191538,436.12808,-27.27373)" /></g><g
     inkscape:groupmode="layer"
     id="layer2"
     inkscape:label="Calque 2"><g
       sodipodi:type="inkscape:box3d"
       id="g9548"
       style="opacity:1;fill:#4f4f74;fill-opacity:1;stroke:#0d0000;stroke-width:6;stroke-dasharray:none;stroke-opacity:1"
       inkscape:perspectiveID="#perspective9546"
       inkscape:corner0="0.50896419 : 0.54547732 : 0 : 1"
       inkscape:corner7="0.20057101 : 0.19049005 : 0.25 : 1"><path
         sodipodi:type="inkscape:box3dside"
         id="path9560"
         style="fill:#e9e9ff;fill-rule:evenodd;stroke:none;stroke-linejoin:round"
         inkscape:box3dsidetype="11"
         d="M 635.08941,304.94964 809.1383,260.77539 v 244.72243 l -174.04889,1.2679 z"
         points="809.1383,260.77539 809.1383,505.49782 635.08941,506.76572 635.08941,304.94964 " /><path
         sodipodi:type="inkscape:box3dside"
         id="path9550"
         style="fill:#353564;fill-rule:evenodd;stroke:none;stroke-linejoin:round"
         inkscape:box3dsidetype="6"
         d="m 452.62378,270.52539 v 235.25228 l 182.46563,0.98805 V 304.94964 Z"
         points="452.62378,505.77767 635.08941,506.76572 635.08941,304.94964 452.62378,270.52539 " /><path
         sodipodi:type="inkscape:box3dside"
         id="path9552"
         style="fill:#4d4d9f;fill-rule:evenodd;stroke:none;stroke-linejoin:round"
         inkscape:box3dsidetype="5"
         d="M 452.62378,270.52539 616.04529,208.30991 809.1383,260.77539 635.08941,304.94964 Z"
         points="616.04529,208.30991 809.1383,260.77539 635.08941,304.94964 452.62378,270.52539 " /><path
         sodipodi:type="inkscape:box3dside"
         id="path9558"
         style="fill:#afafde;fill-rule:evenodd;stroke:none;stroke-linejoin:round"
         inkscape:box3dsidetype="13"
         d="m 452.62378,505.77767 163.42151,-1.78573 193.09301,1.50588 -174.04889,1.2679 z"
         points="616.04529,503.99194 809.1383,505.49782 635.08941,506.76572 452.62378,505.77767 " /><path
         sodipodi:type="inkscape:box3dside"
         id="path9556"
         style="fill:#d7d7ff;fill-rule:evenodd;stroke:none;stroke-linejoin:round"
         inkscape:box3dsidetype="14"
         d="m 616.04529,208.30991 v 295.68203 l 193.09301,1.50588 V 260.77539 Z"
         points="616.04529,503.99194 809.1383,505.49782 809.1383,260.77539 616.04529,208.30991 " /><path
         sodipodi:type="inkscape:box3dside"
         id="path9554"
         style="fill:#8686bf;fill-rule:evenodd;stroke:none;stroke-linejoin:round"
         inkscape:box3dsidetype="3"
         d="m 452.62378,270.52539 163.42151,-62.21548 v 295.68203 l -163.42151,1.78573 z"
         points="616.04529,208.30991 616.04529,503.99194 452.62378,505.77767 452.62378,270.52539 " /></g><path
       d="m 780.12499,465.95046 v 295.68203 l 193.093,-39.5373 V 477.37276 Z"
       style="fill:#d7d7ff;fill-opacity:1;fill-rule:evenodd;stroke:none;stroke-width:6;stroke-linejoin:round;stroke-dasharray:none;stroke-opacity:1"
       id="path405" /><path
       d="M 618.67801,493.74482 782.09952,466.26566 V 761.94769 L 618.67801,728.9971 Z"
       style="fill:#8686bf;fill-opacity:1;fill-rule:evenodd;stroke:none;stroke-width:6;stroke-linejoin:round;stroke-dasharray:none;stroke-opacity:1"
       id="path407" /><path
       d="M 426.04041,357.43815 V 653.12018 L 619.13342,620.57856 V 375.85613 Z"
       style="fill:#d7d7ff;fill-opacity:1;fill-rule:evenodd;stroke:none;stroke-width:6;stroke-linejoin:round;stroke-dasharray:none;stroke-opacity:1;filter:url(#filter302)"
       id="path385" /><path
       d="M 258.41548,485.70962 421.837,497.13702 V 792.81905 L 258.41548,720.9619 Z"
       style="fill:#8686bf;fill-opacity:1;fill-rule:evenodd;stroke:none;stroke-width:6;stroke-linejoin:round;stroke-dasharray:none;stroke-opacity:1"
       id="path387" /><path
       style="opacity:0.5;fill:#ff0000;fill-opacity:1;stroke:#8686bf;stroke-width:6.71464;stroke-dasharray:53.7171, 13.4293, 6.71464, 13.4293;stroke-dashoffset:0;stroke-opacity:1"
       d="M 616.92211,492.23408 1309.6105,370.04936"
       id="path9648" /><path
       style="opacity:0.500151;fill:none;fill-opacity:1;stroke:#8686bf;stroke-width:6.87989;stroke-dasharray:55.0391, 13.7598, 6.87989, 13.7598;stroke-dashoffset:0;stroke-opacity:1"
       d="M 617.5824,368.81093 140.25622,329.13767"
       id="path9920" /><path
       style="opacity:0.5;fill:#ffff00;fill-opacity:1;stroke:#8686bf;stroke-width:8.85796;stroke-dasharray:70.8637, 17.7159, 8.85796, 17.7159;stroke-dashoffset:0;stroke-opacity:1"
       d="m 619.4291,95.837088 -1.03423,821.699482 v 7.33759"
       id="path9922" /></g><g
     inkscape:groupmode="layer"
     id="layer3"
     inkscape:label="Calque 3"><path
       style="font-size:12px;opacity:0.333968;fill-rule:evenodd;stroke-width:0.378804pt"
       d="m 339.87713,509.64059 c -42.1179,-16.37894 -76.3061,22.40434 -76.3061,86.58133 0,29.5582 7.2602,59.36757 19.1988,84.53138 l 31.4833,11.98033 0.1439,-78.01759 51.0945,19.8698 0.2781,-76.89869 30.5627,12.00223 c -13.9605,-28.82338 -34.0847,-51.34927 -56.4552,-60.04879 z m 56.4552,60.04879 c 12.3238,25.44421 19.8413,55.78679 19.8413,85.87718 0,64.17492 -34.1783,102.97873 -76.2965,86.59964 -22.7189,-8.835 -43.1256,-31.94264 -57.1073,-61.4129 l -18.7769,-7.14128 0.2781,40.4235 152.7369,59.17768 -0.5562,-195.61204 z"
       id="path148"
       inkscape:connector-curvature="0" /><path
       i:knockout="Off"
       fill="#51a1d0"
       d="m 887.28966,625.72893 c -2.72348,-1.92313 0.004,2.19925 3.34394,5.48616 1.25486,-0.28656 2.42253,-0.65082 3.48601,-1.05771 -2.39958,-0.89766 -4.64626,-2.51405 -6.82995,-4.42845"
       id="path879977"
       style="display:none;opacity:0.567867;fill:#51a1d0;fill-opacity:1;stroke-width:1.89104" /><path
       i:knockout="Off"
       fill="#51a1d0"
       d="m 763.91713,382.3438 c -1.32686,5.01662 -3.3787,6.50073 -5.8511,9.91045 l -2.56163,-0.14956 c -3.02755,2.9782 -0.62438,2.7666 -2.89159,5.23042 -3.66506,1.11595 -11.20723,3.66858 -13.18466,3.03229 -1.30548,-0.92343 1.45718,-1.28112 1.96345,-1.81023 -4.63336,0.58471 -4.36496,2.62518 -10.59692,0.67483 l -0.0324,-0.55863 c -16.37584,-1.46005 -31.0533,-30.36276 -24.32423,-51.74854 -0.56032,1.26777 -0.73266,0.74057 -1.20857,1.0847 2.60929,-11.57879 10.90245,-19.38197 20.61298,-18.30108 9.63242,0.60906 18.59761,9.07413 22.46083,19.62249 -1.68032,-7.26512 -6.44947,-16.98227 -14.17702,-21.58733 -7.46332,-4.86425 -16.12178,-3.83163 -20.30191,0.81025 -4.67289,0.33629 -7.60103,8.32096 -9.71285,8.71901 -8.19097,18.35093 -4.34552,31.26135 3.48681,48.68016 1.29011,2.55072 0,1.93359 -0.0898,3.15392 -2.99395,-4.48347 -5.37029,-9.8054 -6.95084,-15.42451 0.6737,3.53039 1.48309,7.06692 2.9075,10.37756 -2.98302,-3.69283 -4.94712,-15.35639 -6.16921,-16.60199 2.04342,16.68693 17.09499,38.3801 27.91442,39.95477 -4.4031,-2.73658 -9.89703,-6.54678 -14.12224,-12.02767 -1.66616,-2.66204 -3.65923,-7.19239 -3.01209,-7.3519 11.07257,14.4478 24.73295,21.97119 39.05677,18.67802 3.62026,-0.7597 8.06223,-3.21088 8.97139,-2.67275 -2.07525,1.53955 -0.12411,1.3301 -1.80231,2.79374 4.46075,-3.59808 -0.54968,-3.06022 5.75503,-7.52799 l 0.76006,3.57241 c 0.80291,-4.9429 7.70525,-6.94663 9.33958,-14.51846 1.86404,-1.39519 0.62853,3.27821 -2.17105,7.49248 3.46024,-4.43582 2.42844,-6.22027 4.27833,-10.55851 0.0222,1.8928 0.16891,3.98729 0.009,5.85809 0.48091,-6.21801 3.93477,-8.3634 5.46201,-11.13524 -0.47749,-0.69034 -2.50184,1.20499 -0.84836,-5.40793 0.87862,-2.76388 1.08002,-1.03107 1.5179,-1.56158 -0.35773,-0.6197 -0.90139,-3.55995 -0.39058,-8.15063 0.8129,-0.61114 0.6476,3.44368 1.31677,4.06598 0.5221,-3.57198 0.48082,-6.59236 1.20052,-9.11762 -0.49776,-6.67067 -0.94637,0.20581 -1.74372,-3.89628 0.29941,-9.86181 2.41983,-0.70288 3.83536,-4.32111 1.58583,8.15548 0.75719,18.57778 0.49924,22.95251 0.7148,-5.06333 0.97339,-10.26158 0.94961,-15.47536 0.86288,1.20669 1.20793,-10.59561 2.18345,-1.96698 1.07446,-16.26584 -5.35196,-36.4773 -13.05055,-49.12088 0.77987,2.08652 1.76733,4.71174 1.16027,4.60938 -3.72347,-6.63762 -2.80718,-6.34089 -3.05291,-8.25011 -3.29947,-4.5227 -4.17319,-2.63028 -6.69317,-4.51145 -5.89016,-9.617 -7.44683,-10.06707 -13.28128,-17.53891 l -0.21408,1.93674 c -4.24973,-5.21469 -5.85675,-3.0602 -10.86302,-7.32056 -0.22778,-0.51578 2.00195,0.0405 3.72874,0.85756 -4.90002,-2.40657 -4.12108,-4.12292 -9.09329,-5.88654 1.41571,-0.19836 2.79811,-0.0287 4.24594,-0.0323 -3.89719,-2.29156 -9.91018,-3.45125 -7.61936,-4.54027 -7.22897,-0.83269 -19.69198,-3.56298 -28.00531,-0.70056 l 0.27859,-1.71011 c -4.08119,2.21654 -16.09133,3.98659 -18.45915,8.82573 l -0.82382,-0.29737 c -2.38874,2.03595 -4.377,4.82837 -6.48659,7.15849 -3.13186,2.68816 -3.29438,-0.37539 -3.20747,0.436 -6.60728,6.77801 -10.85312,13.3549 -14.41804,18.69253 0.53015,2.89041 -3.77937,12.69758 -5.88063,21.45569 -14.45839,40.50187 -0.53552,98.69029 25.18832,127.31086 3.63822,4.63532 9.87944,8.76255 15.11451,12.51814 -5.59307,-6.37525 -6.70502,-5.90281 -12.01431,-12.57482 -3.6347,-5.46298 -3.7379,-8.97057 -5.86314,-14.33473 l 0.43862,3.46339 c -5.30865,-6.72448 -2.57237,-5.62505 -6.95824,-10.8726 l 1.93762,-1.19299 c -1.9205,-1.51333 -4.01936,-7.56354 -4.26925,-10.29741 l -2.19151,-1.35436 c -1.43006,-5.63361 -1.97298,-9.36466 -1.22181,-11.46384 l -1.15045,1.03646 c -0.29701,-2.17983 -5.17824,-21.00302 -1.53668,-14.93124 -0.56347,-1.50512 -1.50929,-2.84914 -1.92171,-6.34973 l 1.31039,-0.65799 c -1.16295,-4.88576 -1.68838,-10.49698 -1.11149,-11.85931 0.59327,2.697 1.29558,3.60005 1.99871,4.46699 -0.53533,-20.33419 -5.55771,-4.85 -4.93852,-23.66284 l 0.91074,0.51068 c -0.30645,-1.69588 -0.31432,-3.31848 -0.46379,-5.0061 l 1.78213,-4.39211 c -2.30294,-8.25475 6.00234,-24.44335 9.56041,-33.99467 1.61128,-3.77295 5.82418,-6.10404 10.07187,-11.35126 l -1.26892,-1.19583 c 4.23038,-3.72504 21.37202,-12.00335 26.76109,-7.34644 3.9842,-2.31855 -0.53838,-0.38149 -0.75792,-1.79092 8.26751,-3.48123 9.49192,0.003 13.95184,1.38301 5.31549,-0.19572 -4.11988,-1.30452 -1.31881,-2.33208 8.25863,2.75816 6.95222,-1.70565 17.16635,3.75716 0.82438,1.41872 -2.74582,-0.51997 -3.89192,-0.17429 7.41694,0.51401 20.78912,10.55673 28.15201,21.48465 8.5237,12.74654 14.89895,37.72854 10.49511,54.21591 l 0.46694,0.51848 c -2.19372,6.25455 -3.3526,14.41765 -7.26617,19.99407 l 2.23852,-2.37945"
       id="path879987"
       style="opacity:0.567867;fill:#59597f;fill-opacity:1;stroke:none;stroke-width:1.685;stroke-opacity:1" /><g
       id="g1556"
       transform="matrix(0.9171227,0,0,0.85577484,-704.17158,128.49015)"
       style="fill:#d7d7ff;fill-opacity:1"><path
         fill="#000000"
         d="m 1534.1782,461.78644 c -0.7726,-0.71019 -1.7168,-1.17702 -2.9693,-1.22317 -1.896,-3.23106 -3.9736,-5.72686 -6.7349,-5.55698 -2.8805,-3.4165 -4.2306,-3.42574 -5.4001,-3.04289 -0.6643,-0.66496 -4.7149,-5.65696 -8.009,-4.12605 -4.7491,-5.53697 -7.8807,-2.95088 -7.5313,2.62507 -1.716,0.85288 -3.4605,1.64765 -2.3896,7.47599 -1.5821,1.13772 -1.8558,3.76802 -0.8285,8.26608 -1.5606,2.24155 -1.2563,5.18301 0.03,8.49059 -1.7625,3.42843 0.7276,8.82335 1.4235,10.56063 -0.445,2.56092 -0.4316,5.39681 2.9223,10.20358 -0.6052,3.87257 1.4569,6.63814 3.4012,9.4556 -9.1308,-2.12081 -17.8094,-1.68355 -23.7452,14.25351 l -1.8986,1.1816 c -10.5678,-2.171 -25.2167,9.54646 -19.2776,36.34213 -1.0495,5.57264 -1.068,10.28713 -1.3667,15.23553 -4.106,17.13096 4.3492,35.19633 6.9757,38.907 2.8806,8.01231 6.1157,16.10069 11.386,24.67373 3.2208,12.72797 8.571,21.56892 14.9675,27.7536 0.094,0.0907 0.1888,0.18437 0.2831,0.27391 6.3931,6.19371 13.763,9.66349 22.2839,8.29899 7.1848,3.48124 13.1539,4.30083 18.9154,4.65247 3.2709,1.99699 17.1756,5.57183 24.7077,-8.24327 2.5893,-2.73148 5.1805,-4.95603 7.7641,-9.044 17.5459,-4.06804 17.1772,-30.32161 11.0519,-44.30636 l -0.2354,-3.24662 c 6.0199,-15.85395 2.2142,-28.37377 -3.2126,-40.34371 2.4602,1.44558 4.9469,3.08228 6.8002,0.41751 4.2146,2.51787 5.7848,1.21464 6.9893,-0.61096 1.2826,0.17784 5.4186,1.1955 6.4874,-2.90437 2.4236,0.28245 4.1876,-0.65744 4.6959,-3.91706 2.9594,-0.6396 4.2823,-2.25436 4.1719,-5.03028 3.7131,-1.19621 3.3363,-4.04407 3.0079,-6.87551 3.2365,-2.10555 3.2035,-7.75438 -2.0662,-11.91379 -0.6912,-5.38799 -5.3316,-8.80722 -6.0095,-9.44126 -0.3342,-1.8382 -0.9685,-3.74944 -4.1957,-6.244 -1.1939,-3.9978 -3.539,-5.78243 -6.2048,-6.9663 -1.7731,-5.10847 -4.3151,-4.84929 -6.6457,-6.07668 -2.8103,-4.42059 -4.2023,-3.43824 -6.0751,-4.302 -3.2454,-4.34046 -5.0522,-3.47752 -7.5265,-3.11589 l -1.9769,-1.97598 c -6.785,-1.52107 -12.2974,3.41809 -14.7035,6.37106 0.5063,-4.79268 0.6656,-14.91256 -3.3363,-23.8303 l -2.0115,-1.88406 c -0.9565,-3.68202 -1.3232,-6.64846 -5.23,-9.23009 -1.3496,-2.25482 -1.4549,-4.68641 -5.2051,-6.61511 -1.1576,-1.79509 -2.0065,-4.01941 -3.4814,-5.37513 z"
         id="path10007"
         style="opacity:0.487807;fill:#d7d7ff;fill-opacity:1;stroke-width:0.265342" /><path
         fill="#75a928"
         d="m 1517.319,467.66737 c 11.0814,22.43572 16.7889,37.43289 19.1218,47.75912 -6.4281,8.62775 -18.791,-2.65965 -23.1284,-7.274 1.0973,0.38846 2.0803,0.53316 2.6918,-0.1146 -0.7697,-2.00517 -5.0418,-5.0123 -7.1273,-9.49685 1.1586,0.77202 1.7494,1.00343 2.5894,0.572 -2.2481,-3.49847 -4.7482,-7.05795 -5.7992,-10.26634 0.8884,0.87734 1.6398,1.90419 3.1604,2.09163 -1.7883,-3.73263 -3.8481,-7.3126 -4.9445,-11.43363 1.2229,1.13657 2.5197,2.4196 3.0937,2.26889 -1.5611,-3.61722 -2.7225,-7.08373 -3.512,-10.40993 1.6038,1.87666 2.3959,2.36382 2.9344,2.41684 -0.8933,-3.49692 -2.3297,-7.10981 -2.4124,-10.43352 1.0676,1.72106 2.1452,3.02729 3.2533,3.08814 -0.01,-1.97695 -2.0438,-5.11031 -2.1315,-9.79932 1.2674,1.4303 2.601,2.97564 3.0081,2.9113 0.481,-3.50728 0.043,-6.16492 -0.3531,-8.86206 2.8511,2.69249 7.1197,6.9079 7.0301,6.44109 l -0.9683,-3.77779 c 3.093,1.81097 5.5458,5.55725 7.3202,8.29341 1.2415,0.0457 0.7053,-1.93491 -0.01,-4.11872 2.214,2.64109 4.1022,5.32664 5.6968,8.05202 1.4317,-0.0851 0.1447,-2.80141 -0.2685,-4.67196 3.3312,4.31795 4.4465,6.93451 5.5517,9.54341 1.5753,-0.16386 0.9247,-2.2285 0.5811,-4.03092 2.2952,3.83163 3.1328,6.72133 4.0524,9.66357 0.801,-0.30354 1.7948,-0.13242 1.5758,-2.94744 1.4542,3.18677 2.3408,6.14167 2.7767,8.91265 1.5386,0.27293 1.5108,-1.41718 1.94,-2.53458 1.3015,3.8694 1.8185,7.14693 2.6409,10.65468 0.417,0.0381 1.0357,-0.60276 1.8209,-1.80369 2.7745,10.11072 4.4311,30.41686 -7.4972,26.28792 -5.3755,-16.21437 -13.2146,-31.80534 -22.6918,-46.98192 z"
         id="path10009"
         style="opacity:0.487807;fill:#d7d7ff;fill-opacity:1;stroke-width:0.265342" /><path
         fill="#75a928"
         d="m 1593.2494,541.15411 c -17.5379,-5.26156 -28.4682,-6.36931 -35.2508,-4.86361 -1.7602,13.14544 10.229,25.42645 14.7961,29.43003 -0.7259,-1.37605 -1.264,-2.70362 -1.192,-3.87343 1.4647,0.15726 5.115,4.8176 8.5605,5.68602 -0.966,-1.28426 -1.3691,-2.01468 -1.5229,-3.40793 2.9775,1.55894 6.1061,3.44702 8.3655,3.44242 -0.8981,-0.85166 -1.8147,-1.4391 -2.6272,-3.5096 2.8923,0.79728 5.8269,2.05092 8.6107,1.68525 -1.1971,-1.20551 -2.5093,-2.44744 -2.6938,-3.33235 2.7226,0.52868 5.1757,0.5603 7.3781,0.1297 -1.7828,-1.40092 -2.4207,-2.29776 -2.7011,-3.03723 2.3449,-0.36292 5.007,-0.009 6.8784,-1.44178 -1.4469,-0.7125 -2.6697,-1.63266 -3.22,-3.17677 1.0935,-0.91198 3.7711,0.51743 6.3977,-1.54463 -1.3797,-1.13159 -2.8537,-2.30354 -3.0081,-2.9113 1.7113,-2.31827 3.3813,-2.93554 5.0531,-3.63158 -2.8143,-2.79047 -7.1293,-6.88232 -6.8301,-6.9729 l 2.5347,-0.38749 c -2.4409,-3.54486 -5.6505,-5.27874 -7.9867,-6.52093 -0.6042,-1.74063 0.738,-1.90328 2.2754,-1.90766 -2.4888,-1.91042 -4.8502,-3.33775 -7.0967,-4.32982 -0.6206,-2.07139 1.4774,-1.51162 2.7015,-1.79755 -3.9344,-2.71377 -5.8973,-3.07639 -7.8514,-3.42832 -0.6442,-2.31198 0.7977,-2.35147 1.9519,-2.70427 -3.1832,-1.47039 -5.1673,-1.3116 -7.2185,-1.24458 -0.2062,-1.27834 -0.764,-2.60891 0.8905,-3.61079 -2.4355,-0.57764 -4.4783,-0.45793 -6.2096,0.21565 -0.868,-2.05619 0.077,-2.80482 0.493,-3.93493 -2.7406,-0.0427 -4.789,0.75197 -7.1068,1.22062 -0.2155,-0.57407 -0.1506,-1.75097 0.1455,-3.42515 -6.8692,0.77735 -18.8393,7.8953 -11.0002,22.89761 11.4441,0.0616 23.6961,3.91582 36.4852,10.28894 z"
         id="path10011"
         style="opacity:0.487807;fill:#d7d7ff;fill-opacity:1;stroke-width:0.265342" /><path
         fill="#bc1142"
         d="m 1530.9237,632.04067 a 26.180208,16.4274 65.434239 1 1 -34.2822,-33.17892 26.180208,16.4274 65.434239 1 1 34.2822,33.17892 z"
         id="path10013"
         style="opacity:0.487807;fill:#d7d7ff;fill-opacity:1;stroke-width:0.299724" /><path
         fill="#bc1142"
         d="m 1523.6257,553.30502 a 24.117581,18.354704 71.912856 1 1 -33.2474,15.86579 24.117581,18.354704 71.912856 1 1 33.2474,-15.86579 z"
         id="path10015"
         style="opacity:0.487807;fill:#d7d7ff;fill-opacity:1;stroke-width:0.504355" /><path
         fill="#bc1142"
         d="m 1543.1648,570.878 a 28.078755,15.765338 74.88925 1 0 6.7545,54.58032 28.078755,15.765338 74.88925 1 0 -6.7545,-54.58032 z"
         id="path10017"
         style="opacity:0.487807;fill:#d7d7ff;fill-opacity:1;stroke-width:0.504355" /><path
         fill="#bc1142"
         d="m 1484.7986,527.8035 c 8.5678,5.02932 -11.2953,39.42403 -16.3216,30.16013 -4.4472,-13.06612 0.4175,-34.01896 16.3216,-30.16013 z"
         id="path10019"
         style="opacity:0.487807;fill:#d7d7ff;fill-opacity:1;stroke-width:0.265342" /><path
         fill="#bc1142"
         d="m 1573.6003,613.07874 c -6.7697,-9.81361 -16.4738,34.41554 -9.0215,37.22855 9.2792,0.21754 18.5656,-16.45821 9.0215,-37.22855 z"
         id="path10021"
         style="opacity:0.487807;fill:#d7d7ff;fill-opacity:1;stroke-width:0.265342" /><path
         fill="#bc1142"
         d="m 1558.5553,558.5889 c 14.2115,10.2072 21.7821,30.01429 15.0573,46.28396 -2.8429,5.98081 -20.2914,-50.04944 -15.0573,-46.28396 z"
         id="path10023"
         style="opacity:0.487807;fill:#d7d7ff;fill-opacity:1;stroke-width:0.265342" /><path
         fill="#bc1142"
         d="m 1522.176,522.71184 c -12.2566,-15.40911 -26.709,-16.91351 -32.5443,0.21485 -1.9723,6.82317 37.0613,5.45722 32.5443,-0.21485 z"
         id="path10025"
         style="opacity:0.487807;fill:#d7d7ff;fill-opacity:1;stroke-width:0.265342" /><path
         fill="#bc1142"
         d="m 1542.6501,537.21496 c -7.8085,-7.88331 -18.0442,-8.15851 -19.6027,-4.08072 -1.8935,4.95507 2.457,16.11542 11.7144,25.251 9.4734,9.27663 17.101,10.98791 19.0629,5.88176 2.223,-5.78494 -4.1324,-20.35915 -11.1747,-27.05249 z"
         id="path10027"
         style="opacity:0.487807;fill:#d7d7ff;fill-opacity:1;stroke-width:0.265342" /><path
         fill="#bc1142"
         d="m 1504.755,639.7292 c 7.0178,6.31484 15.1557,18.18878 13.7116,22.09448 -1.3056,3.8863 -13.0082,4.19605 -21.1675,-3.9256 -8.6749,-7.8128 -13.8107,-24.43698 -12.5877,-27.29267 1.5056,-4.46542 13.2753,2.30149 20.0436,9.12379 z"
         id="path10029"
         style="opacity:0.487807;fill:#d7d7ff;fill-opacity:1;stroke-width:0.265342" /><path
         fill="#bc1142"
         d="m 1487.9861,592.06891 c 2.3176,11.61887 0.011,25.85844 -5.4194,25.45864 -4.8927,-1.02858 -13.8719,-11.24531 -16.3525,-28.88144 -0.9811,-13.73383 3.1865,-22.70972 7.404,-22.44969 5.9924,1.22496 11.5987,12.82977 14.3681,25.87272 z"
         id="path10031"
         style="opacity:0.487807;fill:#d7d7ff;fill-opacity:1;stroke-width:0.265342" /><path
         fill="#bc1142"
         d="m 1538.6943,638.17321 c -8.0239,2.09691 -15.9373,12.42624 -13.665,20.41889 2.4589,6.88083 12.5649,16.03238 24.3573,11.28582 8.3199,-2.80091 11.5322,-17.81685 9.8162,-24.29089 -2.9902,-8.44406 -11.4381,-9.51717 -20.5078,-7.41582 z"
         id="path10033"
         style="opacity:0.487807;fill:#d7d7ff;fill-opacity:1;stroke-width:0.265342" /><path
         style="fill:#d7d7ff;fill-opacity:1;stroke:none;stroke-width:1;stroke-miterlimit:0;stroke-opacity:1;paint-order:markers fill stroke"
         d="m 1496.3655,526.6943 c -3.3388,-0.55612 -6.0449,-1.67858 -6.4232,-2.66425 -0.4033,-1.05115 2.2992,-6.66608 4.3117,-8.95819 3.7598,-4.28216 9.5316,-5.31421 15.1378,-2.70676 5.6655,2.63498 13.602,10.09399 12.5369,11.78254 -1.5575,2.46916 -16.8699,3.99461 -25.5632,2.54666 z"
         id="path1503" /><path
         style="fill:#d7d7ff;fill-opacity:1;stroke:none;stroke-width:1;stroke-miterlimit:0;stroke-opacity:1;paint-order:markers fill stroke"
         d="m 1469.0506,558.125 c -2.1253,-3.30953 -2.3065,-14.40739 -0.3287,-20.125 1.3487,-3.89868 4.2157,-7.63098 6.9817,-9.08867 2.9634,-1.56168 8.4371,-1.66335 9.778,-0.18162 3.7187,4.1091 -2.492,20.52824 -10.6463,28.14529 -2.8659,2.67714 -4.6242,3.05709 -5.7847,1.25 z"
         id="path1505" /><path
         style="fill:#d7d7ff;fill-opacity:1;stroke:none;stroke-width:1;stroke-miterlimit:0;stroke-opacity:1;paint-order:markers fill stroke"
         d="m 1506.623,584.23427 c -9.612,-2.40419 -17.2315,-12.69182 -18.2023,-24.5762 -1.1541,-14.12866 8.3754,-24.43665 19.5798,-21.17942 13.8408,4.02362 21.9116,23.38305 15.4532,37.06744 -1.4686,3.11177 -4.7546,6.51089 -7.4932,7.75132 -2.5018,1.13314 -6.8205,1.56644 -9.3375,0.93686 z"
         id="path1507" /><path
         style="fill:#d7d7ff;fill-opacity:1;stroke:none;stroke-width:1;stroke-miterlimit:0;stroke-opacity:1;paint-order:markers fill stroke"
         d="m 1480.5,616.34309 c -2.594,-1.60399 -6.5109,-6.34608 -8.6068,-10.42011 -5.8722,-11.41435 -7.2148,-24.23447 -3.5626,-34.01782 1.1874,-3.18062 3.9722,-5.857 5.5854,-5.36782 5.0375,1.52761 10.2783,10.77289 13.4385,23.70733 1.3788,5.64303 1.5185,16.41292 0.2665,20.53674 -1.7331,5.70796 -4.0093,7.48576 -7.121,5.56168 z"
         id="path1509" /><path
         style="fill:#d7d7ff;fill-opacity:1;stroke:none;stroke-width:1;stroke-miterlimit:0;stroke-opacity:1;paint-order:markers fill stroke"
         d="m 1517.123,639.7258 c -7.1601,-1.75858 -14.9137,-9.59952 -18.6571,-18.86715 -3.8799,-9.60573 -3.8044,-19.1969 0.1989,-25.26283 3.0846,-4.67383 9.4845,-5.99556 15.2717,-3.15395 5.7406,2.81871 11.9515,9.91426 14.9833,17.11747 3.0619,7.27492 3.9373,16.19166 2.1008,21.3992 -2.4313,6.89441 -7.7814,10.26947 -13.8976,8.76726 z"
         id="path1511" /><path
         style="fill:#d7d7ff;fill-opacity:1;stroke:none;stroke-width:1;stroke-miterlimit:0;stroke-opacity:1;paint-order:markers fill stroke"
         d="m 1507.2621,663.47464 c -7.4799,-2.08157 -14.154,-8.8281 -18.784,-18.98791 -1.9202,-4.21363 -3.7281,-10.18613 -3.7281,-12.31597 0,-3.39831 2.8351,-3.60665 8.5,-0.62462 8.9075,4.68892 18.2632,14.24561 23.1093,23.60577 2.3083,4.45851 2.4717,6.69437 0.5796,7.93408 -1.7541,1.14938 -6.2887,1.33151 -9.6768,0.38865 z"
         id="path1513" /><path
         style="fill:#d7d7ff;fill-opacity:1;stroke:none;stroke-width:1;stroke-miterlimit:0;stroke-opacity:1;paint-order:markers fill stroke"
         d="m 1537,669.84165 c -3.666,-1.56259 -4.9943,-2.47462 -7.5693,-5.19738 -3.5199,-3.72175 -4.3874,-5.52633 -4.3957,-9.14427 -0.01,-3.99809 1.8106,-7.87609 5.5214,-11.76648 3.4583,-3.62565 6.7015,-5.26635 11.7484,-5.94347 7.0587,-0.94702 12.6164,0.90854 15.3128,5.11257 2.4771,3.86222 2.0993,12.13422 -0.8516,18.64223 -2.937,6.4775 -7.1859,9.23124 -14.1598,9.17721 -2.2249,-0.0172 -4.3722,-0.35445 -5.6062,-0.88041 z"
         id="path1515" /><path
         style="fill:#d7d7ff;fill-opacity:1;stroke:none;stroke-width:1;stroke-miterlimit:0;stroke-opacity:1;paint-order:markers fill stroke"
         d="m 1546.3582,623.96028 c -1.5658,-0.78027 -3.8542,-2.65716 -5.7933,-4.75157 -10.744,-11.6046 -14.0939,-33.87566 -6.6182,-44.00033 2.0474,-2.77292 4.564,-4.0601 7.8877,-4.03435 7.1009,0.055 14.9322,8.49465 18.8609,20.32597 6.8023,20.48524 -1.3461,38.93395 -14.3371,32.46028 z"
         id="path1517" /><path
         style="fill:#d7d7ff;fill-opacity:1;stroke:none;stroke-width:1;stroke-miterlimit:0;stroke-opacity:1;paint-order:markers fill stroke"
         d="m 1545.3019,565.73072 c -9.7481,-4.4228 -20.4982,-17.80576 -22.1774,-27.60889 -0.9352,-5.4594 0.9608,-7.58901 6.4198,-7.21083 6.7552,0.46796 13.9573,5.89066 18.7667,14.12989 8.5885,14.71374 7.0553,25.25616 -3.0091,20.68983 z"
         id="path1519" /><path
         style="fill:#d7d7ff;fill-opacity:1;stroke:none;stroke-width:1;stroke-miterlimit:0;stroke-opacity:1;paint-order:markers fill stroke"
         d="m 1571.5682,603.43091 c -4.9667,-7.55149 -16.0236,-44.68091 -13.3056,-44.68091 0.3576,0 2.5957,1.96969 4.9734,4.37709 8.3237,8.42735 12.514,18.22894 12.514,29.27185 0,4.06151 -1.4676,11.51867 -2.4628,12.51385 -0.2654,0.26537 -0.9684,-0.34074 -1.719,-1.48188 z"
         id="path1521" /><path
         style="fill:#d7d7ff;fill-opacity:1;stroke:none;stroke-width:1;stroke-miterlimit:0;stroke-opacity:1;paint-order:markers fill stroke"
         d="m 1563.4338,648.96912 c -2.6239,-4.00459 -0.5612,-22.18141 3.5805,-31.55066 1.3133,-2.971 3.4555,-5.66846 4.5018,-5.66846 1.1366,0 2.1962,1.83041 3.7662,6.50576 2.7598,8.21837 2.5367,17.97854 -0.5492,24.02743 -2.0842,4.08527 -5.3658,6.94441 -8.8253,7.68911 -1.3681,0.29451 -1.7162,0.15337 -2.474,-1.00318 z"
         id="path1523" /><path
         style="fill:#d7d7ff;fill-opacity:1;stroke:none;stroke-width:1;stroke-miterlimit:0;stroke-opacity:1;paint-order:markers fill stroke"
         d="m 1524.4422,516.50414 c -1.8932,-0.96023 -4.964,-3.0354 -6.8239,-4.6115 -2.9821,-2.52703 -3.2627,-2.90964 -2.375,-3.23803 0.5537,-0.20481 1.0067,-0.48116 1.0067,-0.61409 0,-0.13295 -1.4625,-1.99382 -3.25,-4.13526 -3.0804,-3.69038 -3.7315,-4.73129 -2.875,-4.59605 1.5092,0.2383 1.7087,-0.10649 0.8297,-1.43421 -1.9159,-2.89387 -4.2047,-6.83396 -4.2047,-7.23818 0,-0.2321 0.45,-0.18117 1,0.11318 1.3898,0.74381 1.2802,0.23636 -1,-4.62946 -2.0533,-4.38164 -2.5404,-6.11091 -1.4,-4.97054 1.5743,1.57434 1.6864,0.40153 0.3283,-3.43624 -1.581,-4.46764 -1.7692,-5.50463 -0.8283,-4.56376 0.33,0.33 0.8706,0.6 1.2014,0.6 0.4366,0 0.3544,-0.85658 -0.2998,-3.125 -0.4957,-1.71875 -1.0468,-3.7683 -1.2246,-4.55455 l -0.3234,-1.42956 1.3982,1.10226 c 1.2,0.94602 1.4213,0.98823 1.5612,0.29784 0.09,-0.44243 -0.1758,-1.87014 -0.5898,-3.1727 -0.4141,-1.30256 -0.9083,-3.15579 -1.0983,-4.11829 l -0.3456,-1.75 1.4001,1.49753 1.4,1.49754 0.4001,-1.49621 c 0.2201,-0.82291 0.264,-2.7343 0.097,-4.24753 l -0.3027,-2.75133 2.1878,2.01712 c 1.2034,1.10942 2.7285,2.45942 3.3892,3.00001 l 1.2014,0.98287 -0.3139,-1.625 c -0.1726,-0.89375 -0.1177,-1.625 0.1219,-1.625 0.5556,0 3.1896,2.99294 4.8737,5.53783 1.4804,2.23699 2.0283,2.4205 2.6014,0.87129 0.3664,-0.99053 0.5996,-0.80209 2.5354,2.04846 2.0787,3.06108 2.7391,3.33495 3.1165,1.29242 0.1422,-0.7698 0.5433,-0.36696 1.7426,1.75 0.8569,1.5125 1.7147,3.26864 1.9062,3.90252 0.4304,1.42401 1.3883,1.18702 1.772,-0.43841 0.2421,-1.02568 0.4937,-0.69289 1.6388,2.16733 0.744,1.8585 1.3527,3.71421 1.3527,4.12382 0,1.02752 1.3425,0.93737 1.94,-0.13026 0.43,-0.76832 0.5594,-0.69212 1.0613,0.625 0.3144,0.825 0.8189,2.56875 1.121,3.875 0.5928,2.56237 1.633,3.121 2.3276,1.25 0.3324,-0.8956 0.6501,-0.10544 1.5575,3.875 0.627,2.75 1.2138,5.08831 1.3042,5.19625 0.09,0.10794 0.5126,-0.0929 0.9384,-0.44625 0.4258,-0.35338 0.8729,-0.54381 0.9935,-0.42318 0.5043,0.50433 1.7526,9.9484 1.7545,13.27357 0,5.10644 -0.8205,8.41268 -2.5997,10.43903 -1.3201,1.50353 -1.7939,1.71058 -3.9142,1.71058 h -2.4123 l -1.0474,-2.875 c -3.1446,-8.63154 -6.2096,-15.77554 -10.0286,-23.375 -4.3426,-8.64115 -11.4103,-21.0022 -11.7909,-20.62159 -0.115,0.11507 1.4519,3.677 3.4822,7.91541 9.0005,18.78975 16.2073,38.52601 14.7216,40.31619 -2.2095,2.66232 -6.4507,2.81134 -11.2165,0.39413 z"
         id="path1525" /><path
         style="fill:#d7d7ff;fill-opacity:1;stroke:none;stroke-width:1;stroke-miterlimit:0;stroke-opacity:1;paint-order:markers fill stroke"
         d="m 1582.3301,565.7496 c -3.8549,-1.82368 -4.1874,-1.84687 -3.5801,-0.2496 0.2614,0.6875 0.3088,1.25 0.1054,1.25 -0.2034,0 -1.7602,-1.125 -3.4596,-2.5 -3.555,-2.87651 -4.3936,-3.11578 -3.9429,-1.125 0.2727,1.20465 -0.029,1.01731 -2.4355,-1.5122 -6.7456,-7.09051 -10.7674,-15.36501 -10.7674,-22.1528 v -3.10851 l 3.375,-0.32938 c 5.5675,-0.54335 16.721,1.12539 26.8078,4.01087 2.4381,0.69744 4.523,1.17784 4.6333,1.06757 0.3111,-0.31112 -8.2326,-4.11587 -13.1499,-5.85601 -6.3892,-2.26101 -13.7713,-3.96104 -18.7831,-4.32553 l -4.3668,-0.3176 -1.0816,-2.8007 c -1.4614,-3.78451 -1.49,-8.58476 -0.067,-11.30071 1.8778,-3.58444 6.2634,-6.97862 10.2575,-7.93858 1.3058,-0.31385 1.375,-0.24027 1.375,1.46275 0,1.47549 0.155,1.74624 0.875,1.5281 1.0897,-0.33016 5.2596,-1.27352 5.7024,-1.29005 0.1801,-0.007 0.2093,0.8689 0.065,1.94583 l -0.2626,1.95804 2.9541,-0.26787 2.9541,-0.26787 -0.1964,2.05982 c -0.1961,2.05614 -0.1933,2.05983 1.5436,2.05983 0.957,0 2.4511,0.14222 3.3202,0.31605 1.459,0.29179 1.5204,0.38214 0.8005,1.17769 -1.1507,1.27152 -0.4669,2.31717 1.9597,2.99658 1.1833,0.33131 2.7595,1.00121 3.5026,1.48868 1.284,0.84231 1.2997,0.89973 0.3165,1.15684 -1.7813,0.46582 -1.1389,1.73103 1.7049,3.35812 3.2128,1.83818 3.5008,2.18425 2.5051,3.01061 -1.1588,0.96173 -0.9323,1.34303 1.8805,3.16538 3.2642,2.11482 5.9334,4.83005 4.7481,4.83005 -1.817,0 -1.3514,1.24495 1.5663,4.18882 1.6833,1.69845 3.0606,3.22348 3.0606,3.38897 0,0.16549 -0.684,0.5842 -1.5199,0.93046 -0.836,0.34626 -1.846,1.09508 -2.2445,1.66405 -0.6597,0.94191 -0.6028,1.16157 0.6361,2.45475 1.1413,1.1912 1.2412,1.49587 0.6195,1.88896 -0.4076,0.25777 -1.6842,0.47212 -2.8367,0.47633 -2.7254,0.01 -3.0605,0.67857 -1.2483,2.49076 0.8096,0.80961 1.3572,1.58681 1.2169,1.7271 -0.1403,0.14029 -1.5754,0.40444 -3.1891,0.58702 -1.6137,0.18257 -2.934,0.49301 -2.934,0.68987 0,0.19685 0.4447,0.76036 0.9882,1.25224 1.5451,1.39826 0.6977,1.92256 -2.5573,1.58235 -1.612,-0.1685 -2.9309,-0.17578 -2.9309,-0.0162 0,0.15958 0.4653,0.94363 1.034,1.74234 1.2226,1.71698 1.1806,1.72319 -3.4428,0.50934 -1.9752,-0.51856 -3.5912,-0.7739 -3.5912,-0.56743 0,0.20648 0.4663,0.96825 1.0363,1.69284 1.3207,1.67901 0.9284,1.65473 -2.9562,-0.18297 z"
         id="path1527" /></g></g><g
     inkscape:groupmode="layer"
     id="layer4"
     inkscape:label="Calque 4"><text
       xml:space="preserve"
       id="text10286"
       style="font-size:74.6667px;font-family:'PT Sans Caption';-inkscape-font-specification:'PT Sans Caption';white-space:pre;shape-inside:url(#rect10288);display:inline;opacity:0.567867;fill:#ececec;fill-opacity:1;stroke:none;stroke-width:6;stroke-dasharray:none;stroke-dashoffset:0;stroke-opacity:1"><tspan
         x="672.82031"
         y="902.22269"
         id="tspan318"><tspan
           style="font-family:'Noto Sans';-inkscape-font-specification:'Noto Sans'"
           id="tspan316">Pi Step initiative</tspan></tspan></text></g></svg>
