<?xml version="1.0" encoding="UTF-8" standalone="no"?>
<!-- Created with Sodipodi ("http://www.sodipodi.com/") -->

<svg
   id="svg888"
   sodipodi:version="0.31"
   width="600"
   height="600"
   sodipodi:docname="mini_GNUstep_logo.svg"
   version="1.1"
   inkscape:version="1.2.2 (b0a8486541, 2022-12-01)"
   xmlns:inkscape="http://www.inkscape.org/namespaces/inkscape"
   xmlns:sodipodi="http://sodipodi.sourceforge.net/DTD/sodipodi-0.dtd"
   xmlns="http://www.w3.org/2000/svg"
   xmlns:svg="http://www.w3.org/2000/svg"
   xmlns:rdf="http://www.w3.org/1999/02/22-rdf-syntax-ns#"
   xmlns:cc="http://creativecommons.org/ns#"
   xmlns:dc="http://purl.org/dc/elements/1.1/">
  <metadata
     id="metadata10">
    <rdf:RDF>
      <cc:Work
         rdf:about="">
        <dc:format>image/svg+xml</dc:format>
        <dc:type
           rdf:resource="http://purl.org/dc/dcmitype/StillImage" />
      </cc:Work>
    </rdf:RDF>
  </metadata>
  <defs
     id="defs890" />
  <sodipodi:namedview
     id="base"
     showgrid="false"
     inkscape:zoom="0.68333335"
     inkscape:cx="313.90243"
     inkscape:cy="299.99999"
     inkscape:window-width="1110"
     inkscape:window-height="999"
     inkscape:window-x="367"
     inkscape:window-y="17"
     inkscape:window-maximized="0"
     inkscape:current-layer="svg888"
     pagecolor="#505050"
     bordercolor="#ffffff"
     borderopacity="1"
     inkscape:showpageshadow="0"
     inkscape:pageopacity="0"
     inkscape:pagecheckerboard="1"
     inkscape:deskcolor="#505050" />
  <path
     style="font-size:12px;fill-rule:evenodd;stroke-width:1.00767pt"
     d="m 302.67312,50.049413 c -139.38917,0 -252.535151,111.352607 -252.535151,248.573837 0,63.20043 24.027752,120.90105 63.538441,164.77859 l 104.19415,-0.56238 0.47606,-166.9344 h 169.09731 l 0.92039,-164.6536 101.14735,0.24994 C 443.3094,81.480285 376.7081,50.049413 302.67312,50.049413 Z M 489.51167,131.5014 c 40.78563,44.15678 65.66485,102.78354 65.66485,167.12185 0,137.21681 -113.11311,248.6051 -252.5034,248.6051 -75.18818,0 -142.72426,-32.43987 -188.99671,-83.82651 l -62.141991,0.34368 0.920387,86.20102 505.482874,-0.46865 -1.84077,-417.78902 z"
     id="path148"
     inkscape:connector-curvature="0"
     inkscape:export-filename="../MDFinder.tiff"
     inkscape:export-xdpi="23.68264"
     inkscape:export-ydpi="23.68264" />
  <path
     style="fill:#4d4d4d;stroke-width:17.1057;stroke-dasharray:102.635, 34.2115"
     d="M 108.13175,455.45378 C 97.545217,443.20681 85.195608,424.18687 76.544356,406.80526 23.464373,300.1599 55.015463,172.62508 152.44103,100.01814 c 91.05289,-67.857663 219.46717,-65.00259 309.13855,6.87317 7.3569,5.89691 16.35787,13.7356 20.00217,17.41934 l 6.62598,6.69772 h -49.8579 -49.8579 l -0.98381,50.71647 c -0.5411,27.89407 -0.98382,64.76452 -0.98382,81.93436 v 31.21787 H 301.80845 217.0926 v 83.16408 83.16409 l -33.68066,0.96494 c -18.52436,0.53073 -41.54656,0.96495 -51.16046,0.96495 h -17.47981 z"
     id="path303" />
  <path
     style="fill:#4d4d4d;stroke-width:17.1057;stroke-dasharray:102.635, 34.2115"
     d="m 53.099372,528.60945 c -0.53288,-11.46715 -0.971319,-30.56078 -0.974309,-42.43028 l -0.0055,-21.58092 h 30.876742 30.876745 l 11.10961,11.14688 c 19.67559,19.7416 50.2507,40.31721 76.50432,51.48379 67.25777,28.6071 145.50405,27.08366 211.20162,-4.11202 18.21986,-8.65148 41.80512,-24.08304 57.66224,-37.72773 46.23149,-39.78116 78.1791,-100.62515 83.89991,-159.78671 0.99589,-10.29896 3.18686,122.59648 3.19008,193.49676 l 9.9e-4,30.3596 H 305.75525 54.068245 Z"
     id="path305" />
  <path
     style="fill:#4d4d4d;stroke-width:17.1057;stroke-dasharray:102.635, 34.2115"
     d="m 554.46774,275.49082 c -0.004,-13.03645 -7.76559,-46.98657 -14.96807,-65.47433 -8.74363,-22.44365 -24.43866,-49.34889 -39.47375,-67.66793 l -8.10647,-9.87708 h 32.01828 32.01829 v 74.61879 c 0,41.04033 -0.33441,74.61878 -0.74313,74.61878 -0.40872,0 -0.74404,-2.7982 -0.74515,-6.21823 z"
     id="path307" />
  <g
     id="g3290"
     transform="matrix(1.0155994,0,0,0.99979425,-12.945235,25.532885)">
    <ellipse
       style="fill:none;stroke:#c9cf66;stroke-width:30;stroke-dasharray:none;stroke-opacity:1"
       id="path361"
       cx="193.96692"
       cy="148.67812"
       rx="129.15099"
       ry="128.7924" />
    <path
       style="fill:none;stroke:#c9cf66;stroke-width:30;stroke-dasharray:none;stroke-opacity:1"
       d="m 284.52553,240.49697 172.24034,159.3842 1.67198,2.26898"
       id="path2869" />
  </g>
</svg>
