<?xml version="1.0" encoding="UTF-8" standalone="no"?>
<!-- Created with Inkscape (http://www.inkscape.org/) -->

<svg
   width="1920px"
   height="1080px"
   viewBox="0 0 1920 1080"
   version="1.1"
   id="SVGRoot"
   sodipodi:docname="wp_pi_step_initiative.svg"
   xml:space="preserve"
   inkscape:version="1.2.2 (b0a8486541, 2022-12-01)"
   inkscape:export-filename="fond_pi_step_initiative.png"
   inkscape:export-xdpi="96"
   inkscape:export-ydpi="96"
   xmlns:inkscape="http://www.inkscape.org/namespaces/inkscape"
   xmlns:sodipodi="http://sodipodi.sourceforge.net/DTD/sodipodi-0.dtd"
   xmlns:xlink="http://www.w3.org/1999/xlink"
   xmlns="http://www.w3.org/2000/svg"
   xmlns:svg="http://www.w3.org/2000/svg"
   xmlns:i="http://ns.adobe.com/AdobeIllustrator/10.0/"><sodipodi:namedview
     id="namedview589"
     pagecolor="#ffffff"
     bordercolor="#000000"
     borderopacity="0.25"
     inkscape:showpageshadow="2"
     inkscape:pageopacity="0.0"
     inkscape:pagecheckerboard="0"
     inkscape:deskcolor="#d1d1d1"
     inkscape:document-units="px"
     showgrid="false"
     inkscape:zoom="0.5"
     inkscape:cx="900"
     inkscape:cy="563"
     inkscape:window-width="1639"
     inkscape:window-height="1048"
     inkscape:window-x="133"
     inkscape:window-y="0"
     inkscape:window-maximized="0"
     inkscape:current-layer="layer2" /><defs
     id="defs584"><rect
       x="672.8197"
       y="836.16052"
       width="869.77771"
       height="91.773071"
       id="rect10288" /><inkscape:perspective
       sodipodi:type="inkscape:persp3d"
       inkscape:vp_x="-375.5791 : 293.16602 : 1"
       inkscape:vp_y="0 : 1000 : 0"
       inkscape:vp_z="1544.4209 : 293.16602 : 1"
       inkscape:persp3d-origin="584.4209 : 113.16602 : 1"
       id="perspective9592" /><inkscape:perspective
       sodipodi:type="inkscape:persp3d"
       inkscape:vp_x="-17.520019 : 342.68292 : 1"
       inkscape:vp_y="0 : 1000 : 0"
       inkscape:vp_z="1902.48 : 342.68292 : 1"
       inkscape:persp3d-origin="942.48002 : 162.68292 : 1"
       id="perspective9576" /><inkscape:perspective
       sodipodi:type="inkscape:persp3d"
       inkscape:vp_x="-183.57422 : 567.27051 : 1"
       inkscape:vp_y="0 : 1000 : 0"
       inkscape:vp_z="1736.4258 : 567.27051 : 1"
       inkscape:persp3d-origin="776.42578 : 387.27051 : 1"
       id="perspective9546" /><rect
       x="11.417744"
       y="270.91282"
       width="347.04813"
       height="90.018619"
       id="rect28450" /><rect
       x="-366.89584"
       y="140.67661"
       width="451.08523"
       height="185.61756"
       id="rect18881" /><radialGradient
       xlink:href="#linearGradient3704"
       id="radialGradient3706"
       cx="2007.3448"
       cy="1737.1503"
       fx="2007.3448"
       fy="1737.1503"
       r="960"
       gradientTransform="matrix(0.00191417,-0.35381647,0.63230921,0.00342084,-812.33583,1044.758)"
       gradientUnits="userSpaceOnUse" /><linearGradient
       id="linearGradient3704"><stop
         style="stop-color:#26475b;stop-opacity:0;"
         offset="0.69804424"
         id="stop3702" /><stop
         style="stop-color:#26475b;stop-opacity:1;"
         offset="1"
         id="stop3700" /></linearGradient><radialGradient
       xlink:href="#linearGradient3714"
       id="radialGradient3716"
       cx="-55.602444"
       cy="1782.1582"
       fx="-55.602444"
       fy="1782.1582"
       r="960.29187"
       gradientTransform="matrix(0.5448247,0.00718471,-0.00342953,0.2600655,-239.58877,-185.30849)"
       gradientUnits="userSpaceOnUse" /><linearGradient
       id="linearGradient3714"><stop
         style="stop-color:#264d64;stop-opacity:0;"
         offset="0.52651834"
         id="stop3712" /><stop
         style="stop-color:#264d64;stop-opacity:1;"
         offset="1"
         id="stop3710" /></linearGradient><radialGradient
       xlink:href="#linearGradient3724"
       id="radialGradient3726"
       cx="1903.3966"
       cy="1837.443"
       fx="1903.3966"
       fy="1837.443"
       r="905.96039"
       gradientTransform="matrix(1.1064066e-4,-0.26458331,0.51778643,2.1652248e-4,-668.2075,773.25416)"
       gradientUnits="userSpaceOnUse" /><linearGradient
       id="linearGradient3724"><stop
         style="stop-color:#26536e;stop-opacity:0;"
         offset="0.72692394"
         id="stop3722" /><stop
         style="stop-color:#26536e;stop-opacity:1;"
         offset="1"
         id="stop3720" /></linearGradient><radialGradient
       xlink:href="#linearGradient3704"
       id="radialGradient3706-9"
       cx="2007.3448"
       cy="1737.1503"
       fx="2007.3448"
       fy="1737.1503"
       r="960"
       gradientTransform="matrix(0.00191417,-0.35381647,0.63230921,0.00342084,-812.33583,1044.758)"
       gradientUnits="userSpaceOnUse" /><radialGradient
       xlink:href="#linearGradient3714"
       id="radialGradient3716-0"
       cx="-55.602444"
       cy="1782.1582"
       fx="-55.602444"
       fy="1782.1582"
       r="960.29187"
       gradientTransform="matrix(0.5448247,0.00718471,-0.00342953,0.2600655,-239.58877,-185.30849)"
       gradientUnits="userSpaceOnUse" /><radialGradient
       xlink:href="#linearGradient3724"
       id="radialGradient3726-6"
       cx="1903.3966"
       cy="1837.443"
       fx="1903.3966"
       fy="1837.443"
       r="905.96039"
       gradientTransform="matrix(1.1064066e-4,-0.26458331,0.51778643,2.1652248e-4,-668.2075,773.25416)"
       gradientUnits="userSpaceOnUse" /><rect
       x="11.417744"
       y="270.91282"
       width="347.04813"
       height="90.018619"
       id="rect28450-7" /><rect
       x="-366.89584"
       y="140.67661"
       width="451.08523"
       height="185.61756"
       id="rect18881-9" /><radialGradient
       xlink:href="#linearGradient3704"
       id="radialGradient3706-2"
       cx="2007.3448"
       cy="1737.1503"
       fx="2007.3448"
       fy="1737.1503"
       r="960"
       gradientTransform="matrix(0.00191417,-0.35381647,0.63230921,0.00342084,-812.33583,1044.758)"
       gradientUnits="userSpaceOnUse" /><radialGradient
       xlink:href="#linearGradient3714"
       id="radialGradient3716-3"
       cx="-55.602444"
       cy="1782.1582"
       fx="-55.602444"
       fy="1782.1582"
       r="960.29187"
       gradientTransform="matrix(0.5448247,0.00718471,-0.00342953,0.2600655,-239.58877,-185.30849)"
       gradientUnits="userSpaceOnUse" /><radialGradient
       xlink:href="#linearGradient3724"
       id="radialGradient3726-9"
       cx="1903.3966"
       cy="1837.443"
       fx="1903.3966"
       fy="1837.443"
       r="905.96039"
       gradientTransform="matrix(1.1064066e-4,-0.26458331,0.51778643,2.1652248e-4,-668.2075,773.25416)"
       gradientUnits="userSpaceOnUse" /><filter
       inkscape:collect="always"
       style="color-interpolation-filters:sRGB"
       id="filter11498"
       x="-0.034729832"
       y="-6.4943599"
       width="1.0712872"
       height="13.98941"><feGaussianBlur
         inkscape:collect="always"
         stdDeviation="10.041096"
         id="feGaussianBlur11500" /></filter></defs><g
     inkscape:label="Calque 1"
     inkscape:groupmode="layer"
     id="layer1"
     sodipodi:insensitive="true"><rect
       style="opacity:1;fill:#4f4f74;fill-opacity:1;stroke:none;stroke-width:18.8976"
       id="rect5364"
       width="1957.9348"
       height="1118.7898"
       x="-19.954407"
       y="-14.032837" /></g><g
     inkscape:groupmode="layer"
     id="layer5"
     inkscape:label="Calque 5"
     style="opacity:1;fill:#4f4f74;fill-opacity:1;stroke:#0d0000;stroke-width:6;stroke-dasharray:none;stroke-opacity:1"><path
       style="opacity:1;fill:#1a1a1a;fill-opacity:1;stroke:#1a1a1a;stroke-width:10;stroke-dasharray:none;stroke-dashoffset:0;stroke-opacity:1;filter:url(#filter11498)"
       d="m 1150.0685,759.53644 c 693.6214,-4.17493 694.755,-4.48011 694.755,-4.48011"
       id="path11496"
       transform="matrix(0.22828173,0.10772132,-0.23136737,1.0871826,178.67232,-226.37074)" /><path
       style="opacity:1;fill:#1a1a1a;fill-opacity:1;stroke:#1a1a1a;stroke-width:10;stroke-dasharray:none;stroke-dashoffset:0;stroke-opacity:1;filter:url(#filter11498)"
       d="m 1150.0685,759.53644 c 693.6214,-4.17493 694.755,-4.48011 694.755,-4.48011"
       id="path419"
       transform="matrix(0.24020905,0.04664859,0.00398082,1.1234263,335.85862,-167.6706)" /><path
       style="opacity:1;fill:#1a1a1a;fill-opacity:1;stroke:#1a1a1a;stroke-width:10;stroke-dasharray:none;stroke-dashoffset:0;stroke-opacity:1;filter:url(#filter11498)"
       d="m 1150.0685,759.53644 c 693.6214,-4.17493 694.755,-4.48011 694.755,-4.48011"
       id="path421"
       transform="matrix(0.26561436,-0.05091879,0.0519014,1.1191538,436.12808,-27.27373)" /></g><g
     inkscape:groupmode="layer"
     id="layer2"
     inkscape:label="Calque 2"><g
       sodipodi:type="inkscape:box3d"
       id="g9548"
       style="opacity:1;fill:#4f4f74;fill-opacity:1;stroke:#0d0000;stroke-width:6;stroke-dasharray:none;stroke-opacity:1"
       inkscape:perspectiveID="#perspective9546"
       inkscape:corner0="0.50896419 : 0.54547732 : 0 : 1"
       inkscape:corner7="0.20057101 : 0.19049005 : 0.25 : 1"><path
         sodipodi:type="inkscape:box3dside"
         id="path9560"
         style="fill:#e9e9ff;fill-rule:evenodd;stroke:none;stroke-linejoin:round"
         inkscape:box3dsidetype="11"
         d="M 635.08941,304.94964 809.1383,260.77539 v 244.72243 l -174.04889,1.2679 z"
         points="809.1383,260.77539 809.1383,505.49782 635.08941,506.76572 635.08941,304.94964 " /><path
         sodipodi:type="inkscape:box3dside"
         id="path9550"
         style="fill:#353564;fill-rule:evenodd;stroke:none;stroke-linejoin:round"
         inkscape:box3dsidetype="6"
         d="m 452.62378,270.52539 v 235.25228 l 182.46563,0.98805 V 304.94964 Z"
         points="452.62378,505.77767 635.08941,506.76572 635.08941,304.94964 452.62378,270.52539 " /><path
         sodipodi:type="inkscape:box3dside"
         id="path9552"
         style="fill:#4d4d9f;fill-rule:evenodd;stroke:none;stroke-linejoin:round"
         inkscape:box3dsidetype="5"
         d="M 452.62378,270.52539 616.04529,208.30991 809.1383,260.77539 635.08941,304.94964 Z"
         points="616.04529,208.30991 809.1383,260.77539 635.08941,304.94964 452.62378,270.52539 " /><path
         sodipodi:type="inkscape:box3dside"
         id="path9558"
         style="fill:#afafde;fill-rule:evenodd;stroke:none;stroke-linejoin:round"
         inkscape:box3dsidetype="13"
         d="m 452.62378,505.77767 163.42151,-1.78573 193.09301,1.50588 -174.04889,1.2679 z"
         points="616.04529,503.99194 809.1383,505.49782 635.08941,506.76572 452.62378,505.77767 " /><path
         sodipodi:type="inkscape:box3dside"
         id="path9556"
         style="fill:#d7d7ff;fill-rule:evenodd;stroke:none;stroke-linejoin:round"
         inkscape:box3dsidetype="14"
         d="m 616.04529,208.30991 v 295.68203 l 193.09301,1.50588 V 260.77539 Z"
         points="616.04529,503.99194 809.1383,505.49782 809.1383,260.77539 616.04529,208.30991 " /><path
         sodipodi:type="inkscape:box3dside"
         id="path9554"
         style="fill:#8686bf;fill-rule:evenodd;stroke:none;stroke-linejoin:round"
         inkscape:box3dsidetype="3"
         d="m 452.62378,270.52539 163.42151,-62.21548 v 295.68203 l -163.42151,1.78573 z"
         points="616.04529,208.30991 616.04529,503.99194 452.62378,505.77767 452.62378,270.52539 " /></g><path
       d="m 780.12499,465.95046 v 295.68203 l 193.093,-39.5373 V 477.37276 Z"
       style="fill:#d7d7ff;fill-opacity:1;fill-rule:evenodd;stroke:none;stroke-width:6;stroke-linejoin:round;stroke-dasharray:none;stroke-opacity:1"
       id="path405" /><path
       d="M 618.67801,493.74482 782.09952,466.26566 V 761.94769 L 618.67801,728.9971 Z"
       style="fill:#8686bf;fill-opacity:1;fill-rule:evenodd;stroke:none;stroke-width:6;stroke-linejoin:round;stroke-dasharray:none;stroke-opacity:1"
       id="path407" /><path
       d="M 424.04041,357.43815 V 653.12018 L 617.13342,620.57856 V 375.85613 Z"
       style="fill:#d7d7ff;fill-opacity:1;fill-rule:evenodd;stroke:none;stroke-width:6;stroke-linejoin:round;stroke-dasharray:none;stroke-opacity:1"
       id="path385" /><path
       d="m 260.08058,491.35525 163.42152,11.4274 V 798.46468 L 260.08058,726.60753 Z"
       style="fill:#8686bf;fill-opacity:1;fill-rule:evenodd;stroke:none;stroke-width:6;stroke-linejoin:round;stroke-dasharray:none;stroke-opacity:1"
       id="path387" /><path
       style="opacity:0.5;fill:#ff0000;fill-opacity:1;stroke:#ff0000;stroke-width:6.71464;stroke-dasharray:53.7171, 13.4293, 6.71464, 13.4293;stroke-dashoffset:0;stroke-opacity:1"
       d="M 622.92211,496.23408 1315.6105,374.04936"
       id="path9648" /><path
       style="opacity:0.500151;fill:#00ff00;fill-opacity:1;stroke:#00ff00;stroke-width:6.87989;stroke-dasharray:55.0391, 13.7598, 6.87989, 13.7598;stroke-dashoffset:0;stroke-opacity:1"
       d="M 617.5824,374.81093 140.25622,335.13767"
       id="path9920" /><path
       style="opacity:0.5;fill:#ffff00;fill-opacity:1;stroke:#ffff00;stroke-width:8.85796;stroke-dasharray:70.8637, 17.7159, 8.85796, 17.7159;stroke-dashoffset:0;stroke-opacity:1"
       d="m 617.4291,95.837088 -1.03423,821.699482 v 7.33759"
       id="path9922" /></g><g
     inkscape:groupmode="layer"
     id="layer3"
     inkscape:label="Calque 3"><path
       style="font-size:12px;opacity:0.333968;fill-rule:evenodd;stroke-width:0.378804pt"
       d="m 339.87713,509.64059 c -42.1179,-16.37894 -76.3061,22.40434 -76.3061,86.58133 0,29.5582 7.2602,59.36757 19.1988,84.53138 l 31.4833,11.98033 0.1439,-78.01759 51.0945,19.8698 0.2781,-76.89869 30.5627,12.00223 c -13.9605,-28.82338 -34.0847,-51.34927 -56.4552,-60.04879 z m 56.4552,60.04879 c 12.3238,25.44421 19.8413,55.78679 19.8413,85.87718 0,64.17492 -34.1783,102.97873 -76.2965,86.59964 -22.7189,-8.835 -43.1256,-31.94264 -57.1073,-61.4129 l -18.7769,-7.14128 0.2781,40.4235 152.7369,59.17768 -0.5562,-195.61204 z"
       id="path148"
       inkscape:connector-curvature="0" /><g
       id="g10055"
       transform="matrix(0.21060771,0.20382973,-0.09217346,0.24509431,686.31887,222.82373)"
       style="opacity:0.487807"><path
         fill="#000000"
         d="m 158.38,1.6562 c -3.6193,0.11232 -7.5172,1.4493 -11.938,4.9375 -10.83,-4.1763 -21.33,-5.6271 -30.72,2.8751 C 101.222,7.588 96.51,11.469 92.94,16 89.757,15.934 69.121,12.728 59.658,26.844 35.877,24.03 28.361,40.832 36.877,56.5 c -4.8569,7.519 -9.8895,14.947 1.4688,29.281 -4.018,7.9835 -1.5274,16.644 7.9375,27.125 -2.4979,11.223 2.4121,19.141 11.219,25.312 -1.6471,15.358 14.084,24.287 18.781,27.469 1.8037,8.9487 5.5629,17.393 23.531,22.062 2.9632,13.336 13.762,15.639 24.219,18.438 -34.562,20.09 -64.201,46.523 -64,111.38 l -5.0625,9.0312 c -39.63,24.1 -75.285,101.56 -19.53,164.52 3.6419,19.708 9.7496,33.864 15.188,49.531 8.1338,63.131 61.218,92.692 75.219,96.188 20.517,15.628 42.368,30.457 71.938,40.844 27.875,28.749 58.074,39.706 88.438,39.688 0.44515,-2.8e-4 0.89853,0.005 1.3438,0 30.364,0.0189 60.562,-10.938 88.438,-39.688 29.569,-10.387 51.421,-25.216 71.938,-40.844 14.001,-3.4959 67.085,-33.057 75.219,-96.188 5.4379,-15.667 11.546,-29.823 15.188,-49.531 55.754,-62.965 20.1,-140.43 -19.531,-164.53 l -5.07,-9.03 c 0.20067,-64.852 -29.438,-91.285 -64,-111.38 10.457,-2.7984 21.256,-5.1014 24.219,-18.438 17.968,-4.6698 21.728,-13.114 23.531,-22.062 4.6978,-3.1813 20.428,-12.111 18.781,-27.469 8.8067,-6.1716 13.717,-14.09 11.219,-25.312 9.4649,-10.481 11.956,-19.141 7.9375,-27.125 11.36,-14.328 6.32,-21.756 1.47,-29.275 8.51,-15.668 1,-32.47 -22.79,-29.656 -9.46,-14.116 -30.09,-10.91 -33.28,-10.844 -3.57,-4.531 -8.28,-8.412 -22.78,-6.5312 -9.39,-8.5022 -19.89,-7.0514 -30.72,-2.875 -12.86,-10.148 -21.37,-2.0133 -31.09,1.0624 -15.57,-5.0877 -19.13,1.881 -26.78,4.7188 -16.98,-3.5881 -22.14,4.224 -30.28,12.469 l -9.4688,-0.1875 c -25.611,15.093 -38.334,45.826 -42.844,61.625 -4.5121,-15.802 -17.206,-46.535 -42.812,-61.625 l -9.4688,0.1875 c -8.15,-8.245 -13.31,-16.057 -30.29,-12.469 -7.65,-2.8378 -11.2,-9.8065 -26.78,-4.7188 -6.3797,-2.0185 -12.247,-6.2144 -19.156,-6 z"
         id="path10007" /><path
         fill="#75a928"
         d="m 107.39,68.056 c 67.948,35.031 107.45,63.369 129.09,87.504 -11.082,44.418 -68.896,46.445 -90.036,45.199 4.3284,-2.0147 7.9399,-4.4278 9.2205,-8.1357 -5.3045,-3.7698 -24.113,-0.39719 -37.244,-7.7742 5.0441,-1.045 7.4035,-2.063 9.7629,-5.7854 -12.406,-3.9567 -25.769,-7.3664 -33.628,-13.921 4.2413,0.0524 8.2012,0.9488 13.74,-2.8927 -11.112,-5.9882 -22.969,-10.734 -32.181,-19.887 5.7452,-0.14063 11.939,-0.0568 13.74,-2.1695 -10.17,-6.3007 -18.751,-13.308 -25.854,-20.972 8.04,0.97052 11.435,0.13478 13.379,-1.2656 -7.6878,-7.8742 -17.418,-14.523 -22.057,-24.226 5.9696,2.0575 11.431,2.8451 15.368,-0.1808 -2.6124,-5.8935 -13.805,-9.3696 -20.249,-23.142 6.2844,0.60938 12.95,1.3711 14.283,0 -2.917,-11.884 -7.922,-18.565 -12.831,-25.487 13.45,-0.2 33.828,0.052 32.905,-1.085 l -8.3165,-8.4973 c 13.138,-3.5372 26.581,0.56816 36.34,3.6159 4.3819,-3.4577 -0.0776,-7.83 -5.4238,-12.294 11.165,1.4906 21.254,4.0574 30.373,7.5934 4.8724,-4.3993 -3.1639,-8.7987 -7.051,-13.198 17.249,3.2726 24.557,7.8707 31.82,12.475 5.2694,-5.0508 0.30166,-9.3433 -3.2543,-13.74 13.006,4.817 19.705,11.036 26.758,17.175 2.3912,-3.2271 6.0749,-5.5924 1.6272,-13.379 9.2342,5.3227 16.189,11.595 21.334,18.622 5.7134,-3.6379 3.4039,-8.613 3.4351,-13.198 9.5966,7.8065 15.687,16.114 23.142,24.226 1.5017,-1.0934 2.8166,-4.8017 3.9775,-10.667 22.895,22.212 55.246,78.158 8.3165,100.34 -39.94,-32.94 -87.64,-56.883 -140.5,-74.844 z"
         id="path10009" /><path
         fill="#75a928"
         d="m 467.92,68.056 c -67.94,35.034 -107.44,63.364 -129.08,87.504 11.082,44.418 68.896,46.445 90.036,45.199 -4.3284,-2.0147 -7.9399,-4.4278 -9.2205,-8.1357 5.3045,-3.7698 24.113,-0.39719 37.244,-7.7742 -5.0441,-1.045 -7.4035,-2.063 -9.7629,-5.7854 12.406,-3.9567 25.769,-7.3664 33.628,-13.921 -4.2413,0.0524 -8.2012,0.9488 -13.74,-2.8927 11.112,-5.9882 22.969,-10.734 32.181,-19.887 -5.7452,-0.14063 -11.939,-0.0568 -13.74,-2.1695 10.17,-6.3007 18.751,-13.308 25.854,-20.972 -8.04,0.97052 -11.435,0.13478 -13.379,-1.2656 7.6878,-7.8742 17.418,-14.523 22.057,-24.226 -5.9696,2.0575 -11.431,2.8451 -15.368,-0.1808 2.6124,-5.8935 13.805,-9.3696 20.249,-23.142 -6.2844,0.60938 -12.95,1.3711 -14.283,0 2.9223,-11.889 7.9275,-18.57 12.836,-25.492 -13.45,-0.19973 -33.828,0.05235 -32.905,-1.0848 l 8.3165,-8.4973 c -13.138,-3.5372 -26.581,0.56816 -36.34,3.6159 -4.3819,-3.4577 0.0776,-7.83 5.4238,-12.294 -11.165,1.4906 -21.254,4.0574 -30.373,7.5934 -4.8724,-4.3993 3.1639,-8.7987 7.051,-13.198 -17.249,3.2726 -24.557,7.8707 -31.82,12.475 -5.2694,-5.0508 -0.30166,-9.3433 3.2543,-13.74 -13.006,4.817 -19.705,11.036 -26.758,17.175 -2.3912,-3.2271 -6.0749,-5.5924 -1.6272,-13.379 -9.2342,5.3227 -16.189,11.595 -21.334,18.622 -5.7134,-3.6379 -3.4039,-8.613 -3.4351,-13.198 -9.5966,7.8065 -15.687,16.114 -23.142,24.226 -1.5017,-1.0934 -2.8166,-4.8017 -3.9775,-10.667 -22.895,22.212 -55.246,78.158 -8.3165,100.34 39.919,-32.947 87.616,-56.888 140.48,-74.849 z"
         id="path10011" /><path
         fill="#bc1142"
         d="m 365.2,521.85 a 71.956,66.532 0 1 1 -143.91,0 71.956,66.532 0 1 1 143.91,0 z"
         transform="matrix(1.131107,0,0,1.1280497,-43.139135,-68.310983)"
         id="path10013" /><path
         fill="#bc1142"
         d="m 262.84,276.65 a 61.875,28.125 0 1 1 -123.75,0 61.875,28.125 0 1 1 123.75,0 z"
         transform="matrix(0.76741684,-1.1613112,2.171115,1.4224368,-560.88858,217.68859)"
         id="path10015" /><path
         fill="#bc1142"
         d="m 262.84,276.65 a 61.875,28.125 0 1 1 -123.75,0 61.875,28.125 0 1 1 123.75,0 z"
         transform="matrix(-0.76741684,-1.1613112,-2.171115,1.4224368,1134.8288,213.68859)"
         id="path10017" /><path
         fill="#bc1142"
         d="M 72.91,342.09 C 109.32,332.33 85.202,492.72 55.577,479.56 22.99,453.35 12.494,376.59 72.91,342.09 Z"
         id="path10019" /><path
         fill="#bc1142"
         d="M 493.68,340.09 C 457.266,330.3331 481.388,490.73 511.013,477.57 543.6,451.357 554.096,374.59 493.68,340.09 Z"
         id="path10021" /><path
         fill="#bc1142"
         d="m 369.97,220.65 c 62.835,-10.61 115.12,26.722 113.01,94.858 -2.0669,26.121 -136.16,-90.969 -113.01,-94.858 z"
         id="path10023" /><path
         fill="#bc1142"
         d="M 196.36,218.65 C 133.52,208.04 81.24,245.38 83.35,313.51 85.417,339.63 219.51,222.54 196.36,218.65 Z"
         id="path10025" /><path
         fill="#bc1142"
         d="m 286.62,202.76 c -37.503,-0.97548 -73.495,27.834 -73.582,44.544 -0.10462,20.304 29.651,41.093 73.837,41.62 45.123,0.32321 73.916,-16.64 74.061,-37.594 0.16484,-23.74 -41.039,-48.937 -74.317,-48.571 z"
         id="path10027" /><path
         fill="#bc1142"
         d="m 288.91,619.12 c 32.697,-1.4271 76.571,10.532 76.657,26.396 0.5427,15.405 -39.79,50.211 -78.826,49.538 -40.427,1.7439 -80.069,-33.116 -79.55,-45.199 -0.60506,-17.716 49.226,-31.548 81.719,-30.735 z"
         id="path10029" /><path
         fill="#bc1142"
         d="m 168.14,525.1 c 23.279,28.046 33.891,77.319 14.464,91.844 -18.379,11.088 -63.012,6.5216 -94.736,-39.052 -21.395,-38.242 -18.638,-77.157 -3.6159,-88.589 22.464,-13.684 57.173,4.799 83.889,35.797 z"
         id="path10031" /><path
         fill="#bc1142"
         d="m 405.02,516.21 c -25.187,29.502 -39.212,83.31 -20.838,100.64 17.568,13.464 64.729,11.582 99.566,-36.756 25.296,-32.465 16.82,-86.682 2.3708,-101.08 -21.464,-16.602 -52.277,4.6449 -81.099,37.188 z"
         id="path10033" /></g><g
       id="g880001"
       style="display:inline;opacity:0.567867;fill:#51a1d0;fill-opacity:1"
       transform="matrix(1.5079328,1.0976227,-0.54884267,1.9719849,840.3453,455.6791)"><path
         i:knockout="Off"
         fill="#51a1d0"
         d="m 51.986,57.297 c -1.797,0.025 0.34,0.926 2.686,1.287 0.648,-0.506 1.236,-1.018 1.76,-1.516 -1.461,0.358 -2.948,0.366 -4.446,0.229"
         id="path879977"
         style="display:none;fill:#51a1d0;fill-opacity:1" /><path
         i:knockout="Off"
         fill="#51a1d0"
         d="m 61.631,54.893 c 1.07,-1.477 1.85,-3.094 2.125,-4.766 -0.24,1.192 -0.887,2.221 -1.496,3.307 -3.359,2.115 -0.316,-1.256 -0.002,-2.537 -3.612,4.546 -0.496,2.726 -0.627,3.996"
         id="path879979"
         style="fill:#51a1d0;fill-opacity:1" /><path
         i:knockout="Off"
         fill="#51a1d0"
         d="m 65.191,45.629 c 0.217,-3.236 -0.637,-2.213 -0.924,-0.978 0.335,0.174 0.6,2.281 0.924,0.978"
         id="path879981"
         style="fill:#51a1d0;fill-opacity:1" /><path
         i:knockout="Off"
         fill="#51a1d0"
         d="m 45.172,1.399 c 0.959,0.172 2.072,0.304 1.916,0.533 1.049,-0.23 1.287,-0.442 -1.916,-0.533"
         id="path879983"
         style="fill:#51a1d0;fill-opacity:1" /><path
         i:knockout="Off"
         fill="#51a1d0"
         d="M 47.088,1.932 46.41,2.072 47.041,2.016 47.088,1.932"
         id="path879985"
         style="fill:#51a1d0;fill-opacity:1" /><path
         i:knockout="Off"
         fill="#51a1d0"
         d="m 76.992,46.856 c 0.107,2.906 -0.85,4.316 -1.713,6.812 l -1.553,0.776 c -1.271,2.468 0.123,1.567 -0.787,3.53 -1.984,1.764 -6.021,5.52 -7.313,5.863 -0.943,-0.021 0.639,-1.113 0.846,-1.541 -2.656,1.824 -2.131,2.738 -6.193,3.846 L 60.16,65.878 C 50.142,70.591 36.226,61.251 36.409,48.507 c -0.107,0.809 -0.304,0.607 -0.526,0.934 -0.517,-6.557 3.028,-13.143 9.007,-15.832 5.848,-2.895 12.704,-1.707 16.893,2.197 -2.301,-3.014 -6.881,-6.209 -12.309,-5.91 -5.317,0.084 -10.291,3.463 -11.951,7.131 -2.724,1.715 -3.04,6.611 -4.227,7.507 -1.597,11.737 3.004,16.808 10.787,22.773 1.225,0.826 0.345,0.951 0.511,1.58 -2.586,-1.211 -4.954,-3.039 -6.901,-5.277 1.033,1.512 2.148,2.982 3.589,4.137 -2.438,-0.826 -5.695,-5.908 -6.646,-6.115 4.203,7.525 17.052,13.197 23.78,10.383 -3.113,0.115 -7.068,0.064 -10.566,-1.229 -1.469,-0.756 -3.467,-2.322 -3.11,-2.615 9.182,3.43 18.667,2.598 26.612,-3.771 2.021,-1.574 4.229,-4.252 4.867,-4.289 -0.961,1.445 0.164,0.695 -0.574,1.971 2.014,-3.248 -0.875,-1.322 2.082,-5.609 l 1.092,1.504 c -0.406,-2.696 3.348,-5.97 2.967,-10.234 0.861,-1.304 0.961,1.403 0.047,4.403 1.268,-3.328 0.334,-3.863 0.66,-6.609 0.352,0.923 0.814,1.904 1.051,2.878 -0.826,-3.216 0.848,-5.416 1.262,-7.285 -0.408,-0.181 -1.275,1.422 -1.473,-2.377 0.029,-1.65 0.459,-0.865 0.625,-1.271 -0.324,-0.186 -1.174,-1.451 -1.691,-3.877 0.375,-0.57 1.002,1.478 1.512,1.562 -0.328,-1.929 -0.893,-3.4 -0.916,-4.88 -1.49,-3.114 -0.527,0.415 -1.736,-1.337 -1.586,-4.947 1.316,-1.148 1.512,-3.396 2.404,3.483 3.775,8.881 4.404,11.117 -0.48,-2.726 -1.256,-5.367 -2.203,-7.922 0.73,0.307 -1.176,-5.609 0.949,-1.691 C 83.519,18.706 76.074,10.902 69.225,7.24 70.063,8.007 71.121,8.97 70.741,9.121 67.335,7.093 67.934,6.935 67.446,6.078 64.671,4.949 64.489,6.169 62.651,6.08 57.421,3.306 56.413,3.601 51.6,1.863 l 0.219,1.023 c -3.465,-1.154 -4.037,0.438 -7.782,0.004 -0.228,-0.178 1.2,-0.644 2.375,-0.815 -3.35,0.442 -3.193,-0.66 -6.471,0.122 0.808,-0.567 1.662,-0.942 2.524,-1.424 -2.732,0.166 -6.522,1.59 -5.352,0.295 -4.456,1.988 -12.37,4.779 -16.811,8.943 l -0.14,-0.933 c -2.035,2.443 -8.874,7.296 -9.419,10.46 l -0.544,0.127 c -1.059,1.793 -1.744,3.825 -2.584,5.67 -1.385,2.36 -2.03,0.908 -1.833,1.278 -2.724,5.523 -4.077,10.164 -5.246,13.97 0.833,1.245 0.02,7.495 0.335,12.497 -1.368,24.704 17.338,48.69 37.785,54.228 2.997,1.072 7.454,1.031 11.245,1.141 -4.473,-1.279 -5.051,-0.678 -9.408,-2.197 -3.143,-1.48 -3.832,-3.17 -6.058,-5.102 l 0.881,1.557 c -4.366,-1.545 -2.539,-1.912 -6.091,-3.037 l 0.941,-1.229 C 28.751,98.334 26.418,96.056 25.78,94.795 l -1.548,0.061 c -1.86,-2.295 -2.851,-3.949 -2.779,-5.23 l -0.5,0.891 c -0.567,-0.973 -6.843,-8.607 -3.587,-6.83 -0.605,-0.553 -1.409,-0.9 -2.281,-2.484 l 0.663,-0.758 c -1.567,-2.016 -2.884,-4.6 -2.784,-5.461 0.836,1.129 1.416,1.34 1.99,1.533 -3.957,-9.818 -4.179,-0.541 -7.176,-9.994 L 8.412,66.472 C 7.926,65.74 7.631,64.945 7.24,64.165 l 0.276,-2.75 C 4.667,58.121 6.719,47.409 7.13,41.534 7.415,39.145 9.508,36.602 11.1,32.614 l -0.97,-0.167 c 1.854,-3.234 10.586,-12.988 14.63,-12.486 1.959,-2.461 -0.389,-0.009 -0.772,-0.629 4.303,-4.453 5.656,-3.146 8.56,-3.947 3.132,-1.859 -2.688,0.725 -1.203,-0.709 5.414,-1.383 3.837,-3.144 10.9,-3.846 0.745,0.424 -1.729,0.655 -2.35,1.205 4.511,-2.207 14.275,-1.705 20.617,1.225 7.359,3.439 15.627,13.605 15.953,23.17 l 0.371,0.1 c -0.188,3.802 0.582,8.199 -0.752,12.238 l 0.908,-1.912"
         id="path879987"
         style="fill:#51a1d0;fill-opacity:1" /><path
         i:knockout="Off"
         fill="#51a1d0"
         d="m 32.372,59.764 -0.252,1.26 c 1.181,1.604 2.118,3.342 3.626,4.596 -1.085,-2.118 -1.891,-2.993 -3.374,-5.856"
         id="path879989"
         style="fill:#51a1d0;fill-opacity:1" /><path
         i:knockout="Off"
         fill="#51a1d0"
         d="m 35.164,59.654 c -0.625,-0.691 -0.995,-1.523 -1.409,-2.352 0.396,1.457 1.207,2.709 1.962,3.982 l -0.553,-1.63"
         id="path879991"
         style="fill:#51a1d0;fill-opacity:1" /><path
         i:knockout="Off"
         fill="#51a1d0"
         d="m 84.568,48.916 -0.264,0.662 c -0.484,3.438 -1.529,6.84 -3.131,9.994 1.77,-3.328 2.915,-6.968 3.395,-10.656"
         id="path879993"
         style="fill:#51a1d0;fill-opacity:1" /><path
         i:knockout="Off"
         fill="#51a1d0"
         d="M 45.527,0.537 C 46.742,0.092 48.514,0.293 49.803,0 48.123,0.141 46.451,0.225 44.8,0.438 l 0.727,0.099"
         id="path879995"
         style="fill:#51a1d0;fill-opacity:1" /><path
         i:knockout="Off"
         fill="#51a1d0"
         d="m 2.872,23.219 c 0.28,2.592 -1.95,3.598 0.494,1.889 1.31,-2.951 -0.512,-0.815 -0.494,-1.889"
         id="path879997"
         style="fill:#51a1d0;fill-opacity:1" /><path
         i:knockout="Off"
         fill="#51a1d0"
         d="M 0,35.215 C 0.563,33.487 0.665,32.449 0.88,31.449 -0.676,33.438 0.164,33.862 0,35.215"
         id="path879999"
         style="fill:#51a1d0;fill-opacity:1" /></g></g><g
     inkscape:groupmode="layer"
     id="layer4"
     inkscape:label="Calque 4"><text
       xml:space="preserve"
       id="text10286"
       style="font-size:74.6667px;font-family:'PT Sans Caption';-inkscape-font-specification:'PT Sans Caption';white-space:pre;shape-inside:url(#rect10288);display:inline;opacity:0.567867;fill:#ececec;fill-opacity:1;stroke:none;stroke-width:6;stroke-dasharray:none;stroke-dashoffset:0;stroke-opacity:1"><tspan
         x="672.82031"
         y="902.22269"
         id="tspan550"><tspan
           style="font-family:'Noto Sans';-inkscape-font-specification:'Noto Sans'"
           id="tspan548">Pi Step initiative</tspan></tspan></text></g></svg>
