<?xml version="1.0" encoding="UTF-8" standalone="no"?>
<!-- Created with Inkscape (http://www.inkscape.org/) -->

<svg
   width="210mm"
   height="297mm"
   viewBox="0 0 210 297"
   version="1.1"
   id="svg5"
   sodipodi:docname="icon_pisi_BIS.svg"
   inkscape:version="1.2.2 (b0a8486541, 2022-12-01)"
   xml:space="preserve"
   inkscape:export-filename="icon_pisi.tiff"
   inkscape:export-xdpi="7.740952"
   inkscape:export-ydpi="7.740952"
   xmlns:inkscape="http://www.inkscape.org/namespaces/inkscape"
   xmlns:sodipodi="http://sodipodi.sourceforge.net/DTD/sodipodi-0.dtd"
   xmlns="http://www.w3.org/2000/svg"
   xmlns:svg="http://www.w3.org/2000/svg"><sodipodi:namedview
     id="namedview7"
     pagecolor="#ffffff"
     bordercolor="#000000"
     borderopacity="0.25"
     inkscape:showpageshadow="2"
     inkscape:pageopacity="0.0"
     inkscape:pagecheckerboard="0"
     inkscape:deskcolor="#d1d1d1"
     inkscape:document-units="mm"
     showgrid="true"
     inkscape:zoom="0.73406285"
     inkscape:cx="-40.187295"
     inkscape:cy="505.40632"
     inkscape:window-width="1920"
     inkscape:window-height="1016"
     inkscape:window-x="0"
     inkscape:window-y="36"
     inkscape:window-maximized="1"
     inkscape:current-layer="svg5"><inkscape:grid
       type="xygrid"
       id="grid733" /></sodipodi:namedview><defs
     id="defs2"><rect
       x="547.13258"
       y="460.98185"
       width="130.74673"
       height="77.63797"
       id="rect1323" /><inkscape:perspective
       sodipodi:type="inkscape:persp3d"
       inkscape:vp_x="866.702 : -20.559663 : 1"
       inkscape:vp_y="0 : -6567.402 : 0"
       inkscape:vp_z="363.77788 : 433.99293 : 1"
       inkscape:persp3d-origin="-1033.0095 : 2133.3053 : 1"
       id="perspective165" /><filter
       inkscape:label="Inset"
       inkscape:menu="Shadows and Glows"
       inkscape:menu-tooltip="Shadowy outer bevel"
       style="color-interpolation-filters:sRGB;"
       id="filter1218"
       x="-0.38551229"
       y="-0.32447728"
       width="1.7710246"
       height="1.6489546"><feMorphology
         result="result1"
         in="SourceAlpha"
         operator="dilate"
         radius="3.6"
         id="feMorphology1206" /><feGaussianBlur
         stdDeviation="3.6"
         in="result1"
         result="result0"
         id="feGaussianBlur1208" /><feDiffuseLighting
         surfaceScale="-5"
         id="feDiffuseLighting1212"><feDistantLight
           elevation="45"
           azimuth="225"
           id="feDistantLight1210" /></feDiffuseLighting><feComposite
         in2="result0"
         operator="in"
         result="result91"
         id="feComposite1214" /><feComposite
         in="SourceGraphic"
         in2="result91"
         id="feComposite1216" /></filter><filter
       inkscape:collect="always"
       style="color-interpolation-filters:sRGB"
       id="filter1652"
       x="-0.074898466"
       y="-0.2514251"
       width="1.1789827"
       height="1.5878743"><feGaussianBlur
         inkscape:collect="always"
         stdDeviation="1.5489552"
         id="feGaussianBlur1654" /></filter></defs><g
     inkscape:groupmode="layer"
     id="layer1"
     inkscape:label="Ombre" /><text
     xml:space="preserve"
     transform="scale(0.26458333)"
     id="text1321"
     style="font-style:normal;font-variant:normal;font-weight:normal;font-stretch:normal;font-size:85.3333px;font-family:'PT Sans Caption';-inkscape-font-specification:'PT Sans Caption';white-space:pre;shape-inside:url(#rect1323);display:inline;fill:#ffff00"><tspan
       x="547.13281"
       y="614.99244"
       id="tspan1326"><tspan
         style="font-size:64px;fill:#ff00ff"
         id="tspan1324">P</tspan></tspan></text><g
     id="g1208"
     transform="matrix(1.0033083,0,0,0.93882265,-0.32950222,6.5484346)"><g
       id="g1171"
       transform="matrix(1.0005506,0,0,0.98953371,-0.05484149,1.1203137)"><path
         style="mix-blend-mode:lighten;fill:none;stroke:#000000;stroke-width:4.99999;stroke-dasharray:none;stroke-opacity:1;filter:url(#filter1652)"
         d="m 74.294438,129.22414 34.313372,10.89521 25.42176,-19.18099 v -0.1122"
         id="path1650" /><g
         id="g1164"
         transform="translate(28.54429,-99.59314)"><path
           style="fill:#333333;stroke:none;stroke-width:0.360437"
           d="m 81.797572,219.54913 0.0932,-19.91006 12.254846,-7.71064 c 6.740172,-4.24086 12.538702,-7.87125 12.885622,-8.06755 0.59717,-0.33788 0.63004,0.60833 0.61727,17.76774 l -0.0135,18.12464 -12.652112,9.73179 c -6.95866,5.35249 -12.793036,9.78633 -12.965296,9.85297 -0.17566,0.068 -0.27227,-8.62175 -0.22001,-19.78889 z"
           id="path757" /><path
           style="fill:#666666;stroke:none;stroke-width:0.360437"
           d="m 79.206716,239.06645 c -1.060887,-0.3518 -8.684649,-2.66522 -11.533981,-3.49997 -1.090322,-0.31942 -2.631189,-0.7871 -3.42415,-1.03928 -0.792962,-0.25218 -3.388106,-1.04281 -5.766991,-1.75695 -2.378882,-0.71415 -5.055126,-1.52344 -5.947209,-1.79841 -0.89208,-0.27498 -3.122284,-0.95274 -4.956005,-1.50613 l -3.334041,-1.00617 v -20.98932 -20.98933 l 2.432947,0.8389 c 1.965452,0.67771 29.632578,10.47678 33.340412,11.80842 l 0.991201,0.35599 v 19.96898 c 0,15.75008 -0.09519,19.96298 -0.450546,19.94054 -0.247798,-0.0156 -0.856036,-0.16292 -1.351637,-0.32727 z"
           id="path759" /><path
           style="fill:#999999;stroke:none;stroke-width:0.360437"
           d="m 79.30323,198.14689 c -0.96334,-0.38075 -2.01762,-0.74111 -2.34284,-0.80078 -0.32521,-0.0597 -1.23458,-0.3867 -2.02081,-0.72673 -0.78623,-0.34004 -1.67831,-0.66861 -1.9824,-0.73017 -0.30409,-0.0616 -0.79619,-0.21133 -1.09355,-0.33283 -1.0083,-0.41198 -5.58677,-2.0858 -5.58677,-2.04244 0,0.0237 -0.40549,-0.10736 -0.90109,-0.29126 -3.91918,-1.45426 -4.8887,-1.80335 -5.04612,-1.81689 -0.22107,-0.019 -1.07799,-0.327 -3.42415,-1.23063 -0.9912,-0.38176 -1.80218,-0.67003 -1.80218,-0.64059 0,0.0652 -0.38651,-0.0698 -3.60437,-1.25884 -1.38769,-0.51278 -2.60416,-0.94375 -2.70328,-0.95773 -0.0991,-0.014 -0.55231,-0.16689 -1.0071,-0.3398 -0.45478,-0.17291 -1.23709,-0.41733 -1.738461,-0.54317 -0.501372,-0.12584 -0.778063,-0.35311 -0.614868,-0.50505 0.52415,-0.488 29.929299,-15.49157 30.361579,-15.49157 0.71205,0 31.38963,11.99693 31.38963,12.27539 0,0.2101 -9.223232,6.23486 -11.832002,7.72886 -0.34616,0.19824 -3.55636,2.18514 -7.13379,4.41535 -3.57741,2.2302 -6.653228,4.03832 -6.835138,4.01804 -0.18191,-0.0203 -1.11894,-0.3484 -2.08229,-0.72916 z"
           id="path899" /></g><text
         xml:space="preserve"
         style="font-style:normal;font-variant:normal;font-weight:normal;font-stretch:normal;font-size:19.7556px;font-family:'PT Sans Caption';-inkscape-font-specification:'PT Sans Caption';fill:#00ff00;stroke:none;stroke-width:0.264583"
         x="112.91345"
         y="187.83318"
         id="text1334"
         transform="skewY(-32.5)"><tspan
           sodipodi:role="line"
           id="tspan1332"
           style="font-size:19.7556px;fill:#ff00ff;stroke:none;stroke-width:0.264583"
           x="112.91345"
           y="187.83318">P</tspan></text><text
         xml:space="preserve"
         style="font-style:normal;font-variant:normal;font-weight:normal;font-stretch:normal;font-size:19.7556px;font-family:'PT Sans Caption';-inkscape-font-specification:'PT Sans Caption';fill:#00ff00;stroke:none;stroke-width:0.264583"
         x="113.34248"
         y="204.44083"
         id="text1338"
         transform="skewY(-32.5)"><tspan
           sodipodi:role="line"
           id="tspan1336"
           style="font-size:19.7556px;fill:#00ff00;stroke:none;stroke-width:0.264583"
           x="113.34248"
           y="204.44083">S</tspan></text><text
         xml:space="preserve"
         style="font-style:normal;font-variant:normal;font-weight:normal;font-stretch:normal;font-size:19.7556px;font-family:'PT Sans Caption';-inkscape-font-specification:'PT Sans Caption';fill:#00ff00;stroke:none;stroke-width:0.264583"
         x="127.57592"
         y="202.60399"
         id="text1342"
         transform="skewY(-32.5)"><tspan
           sodipodi:role="line"
           id="tspan1340"
           style="font-size:19.7556px;fill:#ffff00;stroke:none;stroke-width:0.264583"
           x="127.57592"
           y="202.60399">i</tspan></text><text
         xml:space="preserve"
         style="font-style:normal;font-variant:normal;font-weight:normal;font-stretch:normal;font-size:19.7556px;font-family:'PT Sans Caption';-inkscape-font-specification:'PT Sans Caption';fill:#00ff00;stroke:none;stroke-width:0.264583"
         x="127.60223"
         y="187.12079"
         id="text1346"
         transform="skewY(-32.5)"><tspan
           sodipodi:role="line"
           id="tspan1344"
           style="font-size:19.7556px;fill:#ff00ff;stroke:none;stroke-width:0.264583"
           x="127.60223"
           y="187.12079">i</tspan></text><g
         id="g1176"
         transform="matrix(0.0196006,-0.02784838,0.03164867,0.016531,88.423537,87.605444)"
         style="stroke:none"><path
           fill="#000000"
           d="m 158.38,1.6562 c -3.6193,0.11232 -7.5172,1.4493 -11.938,4.9375 -10.83,-4.1763 -21.33,-5.6271 -30.72,2.8751 C 101.222,7.588 96.51,11.469 92.94,16 89.757,15.934 69.121,12.728 59.658,26.844 35.877,24.03 28.361,40.832 36.877,56.5 c -4.8569,7.519 -9.8895,14.947 1.4688,29.281 -4.018,7.9835 -1.5274,16.644 7.9375,27.125 -2.4979,11.223 2.4121,19.141 11.219,25.312 -1.6471,15.358 14.084,24.287 18.781,27.469 1.8037,8.9487 5.5629,17.393 23.531,22.062 2.9632,13.336 13.762,15.639 24.219,18.438 -34.562,20.09 -64.201,46.523 -64,111.38 l -5.0625,9.0312 c -39.63,24.1 -75.285,101.56 -19.53,164.52 3.6419,19.708 9.7496,33.864 15.188,49.531 8.1338,63.131 61.218,92.692 75.219,96.188 20.517,15.628 42.368,30.457 71.938,40.844 27.875,28.749 58.074,39.706 88.438,39.688 0.44515,-2.8e-4 0.89853,0.005 1.3438,0 30.364,0.0189 60.562,-10.938 88.438,-39.688 29.569,-10.387 51.421,-25.216 71.938,-40.844 14.001,-3.4959 67.085,-33.057 75.219,-96.188 5.4379,-15.667 11.546,-29.823 15.188,-49.531 55.754,-62.965 20.1,-140.43 -19.531,-164.53 l -5.07,-9.03 c 0.20067,-64.852 -29.438,-91.285 -64,-111.38 10.457,-2.7984 21.256,-5.1014 24.219,-18.438 17.968,-4.6698 21.728,-13.114 23.531,-22.062 4.6978,-3.1813 20.428,-12.111 18.781,-27.469 8.8067,-6.1716 13.717,-14.09 11.219,-25.312 9.4649,-10.481 11.956,-19.141 7.9375,-27.125 11.36,-14.328 6.32,-21.756 1.47,-29.275 8.51,-15.668 1,-32.47 -22.79,-29.656 -9.46,-14.116 -30.09,-10.91 -33.28,-10.844 -3.57,-4.531 -8.28,-8.412 -22.78,-6.5312 -9.39,-8.5022 -19.89,-7.0514 -30.72,-2.875 -12.86,-10.148 -21.37,-2.0133 -31.09,1.0624 -15.57,-5.0877 -19.13,1.881 -26.78,4.7188 -16.98,-3.5881 -22.14,4.224 -30.28,12.469 l -9.4688,-0.1875 c -25.611,15.093 -38.334,45.826 -42.844,61.625 -4.5121,-15.802 -17.206,-46.535 -42.812,-61.625 l -9.4688,0.1875 c -8.15,-8.245 -13.31,-16.057 -30.29,-12.469 -7.65,-2.8378 -11.2,-9.8065 -26.78,-4.7188 -6.3797,-2.0185 -12.247,-6.2144 -19.156,-6 z"
           id="path1128"
           style="stroke:none" /><path
           fill="#75a928"
           d="m 107.39,68.056 c 67.948,35.031 107.45,63.369 129.09,87.504 -11.082,44.418 -68.896,46.445 -90.036,45.199 4.3284,-2.0147 7.9399,-4.4278 9.2205,-8.1357 -5.3045,-3.7698 -24.113,-0.39719 -37.244,-7.7742 5.0441,-1.045 7.4035,-2.063 9.7629,-5.7854 -12.406,-3.9567 -25.769,-7.3664 -33.628,-13.921 4.2413,0.0524 8.2012,0.9488 13.74,-2.8927 -11.112,-5.9882 -22.969,-10.734 -32.181,-19.887 5.7452,-0.14063 11.939,-0.0568 13.74,-2.1695 -10.17,-6.3007 -18.751,-13.308 -25.854,-20.972 8.04,0.97052 11.435,0.13478 13.379,-1.2656 -7.6878,-7.8742 -17.418,-14.523 -22.057,-24.226 5.9696,2.0575 11.431,2.8451 15.368,-0.1808 -2.6124,-5.8935 -13.805,-9.3696 -20.249,-23.142 6.2844,0.60938 12.95,1.3711 14.283,0 -2.917,-11.884 -7.922,-18.565 -12.831,-25.487 13.45,-0.2 33.828,0.052 32.905,-1.085 l -8.3165,-8.4973 c 13.138,-3.5372 26.581,0.56816 36.34,3.6159 4.3819,-3.4577 -0.0776,-7.83 -5.4238,-12.294 11.165,1.4906 21.254,4.0574 30.373,7.5934 4.8724,-4.3993 -3.1639,-8.7987 -7.051,-13.198 17.249,3.2726 24.557,7.8707 31.82,12.475 5.2694,-5.0508 0.30166,-9.3433 -3.2543,-13.74 13.006,4.817 19.705,11.036 26.758,17.175 2.3912,-3.2271 6.0749,-5.5924 1.6272,-13.379 9.2342,5.3227 16.189,11.595 21.334,18.622 5.7134,-3.6379 3.4039,-8.613 3.4351,-13.198 9.5966,7.8065 15.687,16.114 23.142,24.226 1.5017,-1.0934 2.8166,-4.8017 3.9775,-10.667 22.895,22.212 55.246,78.158 8.3165,100.34 -39.94,-32.94 -87.64,-56.883 -140.5,-74.844 z"
           id="path1130"
           style="stroke:none" /><path
           fill="#75a928"
           d="m 467.92,68.056 c -67.94,35.034 -107.44,63.364 -129.08,87.504 11.082,44.418 68.896,46.445 90.036,45.199 -4.3284,-2.0147 -7.9399,-4.4278 -9.2205,-8.1357 5.3045,-3.7698 24.113,-0.39719 37.244,-7.7742 -5.0441,-1.045 -7.4035,-2.063 -9.7629,-5.7854 12.406,-3.9567 25.769,-7.3664 33.628,-13.921 -4.2413,0.0524 -8.2012,0.9488 -13.74,-2.8927 11.112,-5.9882 22.969,-10.734 32.181,-19.887 -5.7452,-0.14063 -11.939,-0.0568 -13.74,-2.1695 10.17,-6.3007 18.751,-13.308 25.854,-20.972 -8.04,0.97052 -11.435,0.13478 -13.379,-1.2656 7.6878,-7.8742 17.418,-14.523 22.057,-24.226 -5.9696,2.0575 -11.431,2.8451 -15.368,-0.1808 2.6124,-5.8935 13.805,-9.3696 20.249,-23.142 -6.2844,0.60938 -12.95,1.3711 -14.283,0 2.9223,-11.889 7.9275,-18.57 12.836,-25.492 -13.45,-0.19973 -33.828,0.05235 -32.905,-1.0848 l 8.3165,-8.4973 c -13.138,-3.5372 -26.581,0.56816 -36.34,3.6159 -4.3819,-3.4577 0.0776,-7.83 5.4238,-12.294 -11.165,1.4906 -21.254,4.0574 -30.373,7.5934 -4.8724,-4.3993 3.1639,-8.7987 7.051,-13.198 -17.249,3.2726 -24.557,7.8707 -31.82,12.475 -5.2694,-5.0508 -0.30166,-9.3433 3.2543,-13.74 -13.006,4.817 -19.705,11.036 -26.758,17.175 -2.3912,-3.2271 -6.0749,-5.5924 -1.6272,-13.379 -9.2342,5.3227 -16.189,11.595 -21.334,18.622 -5.7134,-3.6379 -3.4039,-8.613 -3.4351,-13.198 -9.5966,7.8065 -15.687,16.114 -23.142,24.226 -1.5017,-1.0934 -2.8166,-4.8017 -3.9775,-10.667 -22.895,22.212 -55.246,78.158 -8.3165,100.34 39.919,-32.947 87.616,-56.888 140.48,-74.849 z"
           id="path1132"
           style="stroke:none" /><path
           fill="#bc1142"
           d="m 365.2,521.85 a 71.956,66.532 0 1 1 -143.91,0 71.956,66.532 0 1 1 143.91,0 z"
           transform="matrix(1.131107,0,0,1.1280497,-43.139135,-68.310983)"
           id="path1134"
           style="stroke:none" /><path
           fill="#bc1142"
           d="m 262.84,276.65 a 61.875,28.125 0 1 1 -123.75,0 61.875,28.125 0 1 1 123.75,0 z"
           transform="matrix(0.76741684,-1.1613112,2.171115,1.4224368,-560.88858,217.68859)"
           id="path1136"
           style="stroke:none" /><path
           fill="#bc1142"
           d="m 262.84,276.65 a 61.875,28.125 0 1 1 -123.75,0 61.875,28.125 0 1 1 123.75,0 z"
           transform="matrix(-0.76741684,-1.1613112,-2.171115,1.4224368,1134.8288,213.68859)"
           id="path1138"
           style="stroke:none" /><path
           fill="#bc1142"
           d="M 72.91,342.09 C 109.32,332.33 85.202,492.72 55.577,479.56 22.99,453.35 12.494,376.59 72.91,342.09 Z"
           id="path1140"
           style="stroke:none" /><path
           fill="#bc1142"
           d="M 493.68,340.09 C 457.266,330.3331 481.388,490.73 511.013,477.57 543.6,451.357 554.096,374.59 493.68,340.09 Z"
           id="path1142"
           style="stroke:none" /><path
           fill="#bc1142"
           d="m 369.97,220.65 c 62.835,-10.61 115.12,26.722 113.01,94.858 -2.0669,26.121 -136.16,-90.969 -113.01,-94.858 z"
           id="path1144"
           style="stroke:none" /><path
           fill="#bc1142"
           d="M 196.36,218.65 C 133.52,208.04 81.24,245.38 83.35,313.51 85.417,339.63 219.51,222.54 196.36,218.65 Z"
           id="path1146"
           style="stroke:none" /><path
           fill="#bc1142"
           d="m 286.62,202.76 c -37.503,-0.97548 -73.495,27.834 -73.582,44.544 -0.10462,20.304 29.651,41.093 73.837,41.62 45.123,0.32321 73.916,-16.64 74.061,-37.594 0.16484,-23.74 -41.039,-48.937 -74.317,-48.571 z"
           id="path1148"
           style="stroke:none" /><path
           fill="#bc1142"
           d="m 288.91,619.12 c 32.697,-1.4271 76.571,10.532 76.657,26.396 0.5427,15.405 -39.79,50.211 -78.826,49.538 -40.427,1.7439 -80.069,-33.116 -79.55,-45.199 -0.60506,-17.716 49.226,-31.548 81.719,-30.735 z"
           id="path1150"
           style="stroke:none" /><path
           fill="#bc1142"
           d="m 168.14,525.1 c 23.279,28.046 33.891,77.319 14.464,91.844 -18.379,11.088 -63.012,6.5216 -94.736,-39.052 -21.395,-38.242 -18.638,-77.157 -3.6159,-88.589 22.464,-13.684 57.173,4.799 83.889,35.797 z"
           id="path1152"
           style="stroke:none" /><path
           fill="#bc1142"
           d="m 405.02,516.21 c -25.187,29.502 -39.212,83.31 -20.838,100.64 17.568,13.464 64.729,11.582 99.566,-36.756 25.296,-32.465 16.82,-86.682 2.3708,-101.08 -21.464,-16.602 -52.277,4.6449 -81.099,37.188 z"
           id="path1154"
           style="stroke:none" /></g><g
         id="g1163"
         transform="translate(-0.25525813,-42.842844)"><path
           style="font-size:12px;fill-rule:evenodd;stroke-width:0.0661457pt"
           d="m 91.198008,141.5388 c -9.078394,-2.94976 -16.447574,2.0229 -16.447574,11.10138 0,4.18131 1.564923,8.50722 4.138248,12.24626 l 6.786149,2.16775 0.03101,-11.0342 11.013282,3.57843 0.05994,-10.87391 6.587717,2.15697 c -3.00915,-4.2871 -7.346884,-7.77596 -12.168771,-9.3427 z m 12.168762,9.3427 c 2.65637,3.7845 4.27675,8.1897 4.27675,12.44629 0,9.07819 -7.36704,14.05388 -16.445512,11.10411 -4.896994,-1.59113 -9.295608,-5.16654 -12.309326,-9.54546 l -4.047298,-1.29235 0.05994,5.72249 32.922016,10.66601 -0.11988,-27.67964 z"
           id="path148"
           inkscape:connector-curvature="0" /><path
           style="fill:#cccccc;stroke:#000000;stroke-width:0;stroke-dasharray:none"
           d="m 350.30372,659.99462 c -13.05619,-3.29776 -26.36935,-11.1643 -38.34133,-22.65528 -5.99404,-5.75322 -10.54197,-10.81725 -10.10652,-11.2534 0.43545,-0.43616 5.29378,0.73823 10.79629,2.60976 5.5025,1.87152 10.5102,3.40276 11.12822,3.40276 0.61803,0 1.12368,-9.20707 1.12368,-20.46017 v -20.46017 l 3.74627,0.92767 c 2.06045,0.51022 10.76737,3.28052 19.3487,6.15622 8.58134,2.8757 16.09091,5.22855 16.68795,5.22855 0.59703,0 1.08551,-9.16818 1.08551,-20.37373 V 562.7431 l 12.49059,4.36692 12.49059,4.36693 4.54829,8.17369 c 11.11921,19.98224 13.66643,41.84186 6.68773,57.39248 -6.70106,14.93195 -18.62699,23.19559 -35.15969,24.36262 -5.08025,0.3586 -11.78698,-0.21406 -16.52628,-1.41112 z"
           id="path1159"
           transform="scale(0.26458333)" /></g><path
         style="fill:#ffffff;stroke:#ffffff;stroke-width:0.952871;stroke-dasharray:none"
         d="m 109.97262,100.39534 -0.11526,39.78383 v 0"
         id="path1221" /><path
         style="fill:#ffffff;stroke:#ffffff;stroke-width:0.600001"
         d="M 110.02945,99.860477 134.85721,84.116068"
         id="path889" /><path
         style="fill:#ffffff;stroke:#ffffff;stroke-width:0.600001"
         d="M 109.95576,99.483869 73.707188,86.800657 v 0.206187"
         id="path891" /></g></g></svg>
